<svg width="602" height="467" viewBox="0 0 602 467" fill="none" xmlns="http://www.w3.org/2000/svg">
<g clip-path="url(#clip0_603_34015)">
<path d="M11.0897 347.04C14.8703 346.773 22.1795 342.359 22.1795 342.359C22.3055 342.359 18.0208 338.08 17.7687 337.813C14.3662 335.138 6.17485 331.928 2.26822 335.004C-0.504235 337.144 -0.630256 341.29 1.51209 343.964C3.78046 346.773 7.93914 347.308 11.0897 347.04Z" fill="#263238"/>
<path d="M25.0776 368.572C28.4801 367.234 34.1511 361.484 34.5291 361.082C37.5536 364.426 40.8301 367.635 44.4847 370.711C46.5011 372.45 48.6434 374.188 50.7858 375.793C49.6516 375.124 48.7694 374.723 48.6434 374.59C44.6108 372.985 36.0414 372.182 33.0169 376.194C30.8745 379.003 31.7567 383.015 34.5291 385.021C37.3016 387.027 41.4602 386.492 44.4847 385.288C47.5092 384.085 52.424 379.27 53.6842 378.067C54.5664 378.735 55.3225 379.27 56.0786 379.939C59.9853 382.881 64.0179 385.957 67.7985 388.899C69.1848 389.969 70.445 391.039 71.7052 392.242C70.697 391.708 69.9409 391.306 69.8149 391.173C65.7822 389.568 57.2128 388.765 54.1883 392.777C52.046 395.586 52.9281 399.598 55.7006 401.604C58.473 403.61 62.6317 403.075 65.6562 401.871C68.5547 400.801 73.0914 396.388 74.6036 394.783C75.8638 395.987 77.1241 397.057 78.3843 398.26C79.1404 399.063 80.0225 399.865 80.7786 400.668C81.5348 401.47 82.2909 402.406 83.047 403.209C84.4332 404.947 85.8195 406.552 87.2057 408.291C88.0878 409.494 88.97 410.564 89.8521 411.634C88.5919 410.564 85.9455 408.558 85.6934 408.291C82.0388 406.017 73.5955 403.877 69.9409 407.354C67.4205 409.762 67.7985 413.907 70.1929 416.315C72.7133 418.722 76.872 418.856 80.0225 418.187C83.4251 417.518 89.6001 412.971 90.3562 412.303C91.7424 414.175 93.1287 416.047 94.3889 417.786C97.7914 422.466 100.69 426.746 102.958 430.089L105.731 428.484C103.336 425.007 100.312 420.728 96.6572 415.913C95.271 414.041 93.6327 412.035 91.9945 409.895C92.3725 409.36 94.6409 406.686 96.4052 403.744C99.8077 405.081 106.865 404.814 107.747 404.814C107.999 407.221 108.125 409.494 108.377 411.768C108.755 417.518 109.007 422.6 109.133 426.612L112.158 425.275C111.906 421.53 111.654 416.983 111.15 411.901C110.898 409.494 110.646 406.82 110.393 404.145C111.276 403.877 118.459 401.604 121.231 399.197C123.626 397.057 126.146 393.446 126.02 389.835C125.768 386.358 122.996 383.416 119.593 383.951C114.804 384.753 111.15 393.045 110.519 397.592C110.519 397.859 110.393 400.801 110.393 402.674C110.267 401.604 110.141 400.534 110.015 399.464C109.763 397.191 109.385 395.051 109.007 392.644C108.755 391.44 108.629 390.37 108.377 389.167C108.125 387.963 107.873 386.759 107.621 385.689C106.991 382.881 106.109 380.206 105.353 377.398C107.243 377.131 113.67 376.061 116.442 374.322C119.215 372.584 122.113 369.508 122.491 365.897C122.743 362.42 120.475 359.076 116.947 359.076C112.158 359.076 107.243 366.699 105.983 371.112C105.857 371.38 105.353 374.59 104.975 376.328C104.47 374.723 103.966 372.985 103.336 371.38C101.698 366.566 99.8077 361.885 97.9174 357.07C97.4133 355.599 96.7832 354.128 96.2792 352.657C96.9093 352.523 104.723 351.454 107.747 349.448C110.519 347.709 113.418 344.633 113.796 341.022C114.048 337.545 111.78 334.202 108.251 334.202C103.462 334.202 98.5475 341.825 97.2873 346.238C97.1613 346.505 96.4052 351.186 96.1531 352.39C94.8929 349.18 93.7588 345.97 92.7506 342.761C91.3644 338.348 90.1042 333.934 89.348 329.521C89.6001 329.521 97.6654 328.451 100.816 326.312C103.588 324.573 106.487 321.497 106.865 317.886C107.117 314.409 104.849 311.066 101.32 311.066C96.5312 311.066 91.6164 318.689 90.3562 323.102C90.2302 323.503 89.348 328.451 89.222 329.387C89.222 329.12 89.096 328.852 89.096 328.585C88.2138 323.904 87.9618 319.224 87.9618 314.81C87.9618 312.269 88.0878 309.862 88.2139 307.455C89.7261 307.455 96.6572 307.188 99.6817 305.716C102.58 304.245 105.857 301.571 106.613 297.96C107.243 294.483 105.227 291.006 101.824 290.604C97.0353 290.07 91.3644 297.024 89.7261 301.169C89.6001 301.437 88.97 303.844 88.4659 305.583C88.5919 304.513 88.5919 303.443 88.7179 302.373C89.096 298.495 89.6001 295.018 90.1042 291.942C90.3562 290.203 90.7343 288.598 90.9863 287.127C92.4985 286.325 98.4215 282.714 100.312 279.906C102.202 277.231 103.966 273.219 103.084 269.742C102.202 266.399 98.7996 264.125 95.6491 265.462C91.2383 267.335 89.222 276.295 89.4741 280.842C89.4741 281.243 90.4822 287.261 90.6082 287.261H90.7343C90.3562 288.732 90.1042 290.203 89.7261 291.808C89.096 294.884 88.4659 298.361 88.0878 302.239C87.5837 306.118 87.2057 310.263 87.2057 314.677C87.2057 319.09 87.3317 323.771 88.0878 328.585V328.719C87.4577 327.381 85.5674 323.771 85.4414 323.503C82.921 319.759 76.1159 314.142 71.5791 315.613C68.3026 316.683 66.9164 320.695 68.3026 323.904C69.6888 327.248 73.3434 329.12 76.4939 330.056C80.0225 330.992 87.7098 329.521 88.3399 329.387C89.096 333.934 90.2302 338.615 91.6164 343.162C92.3725 345.837 93.2547 348.378 94.1368 351.052C93.5067 349.982 93.0026 348.913 92.8766 348.779C90.3562 345.034 83.5511 339.417 79.0144 340.889C75.7378 341.958 74.3516 345.97 75.7378 349.18C77.124 352.523 80.7786 354.396 83.9292 355.332C87.0797 356.134 93.6327 355.064 95.397 354.663C95.7751 355.733 96.1531 356.669 96.4052 357.739C98.1695 362.553 99.9338 367.368 101.446 372.049C101.95 373.787 102.454 375.392 102.958 377.131C102.454 376.061 101.95 375.258 101.95 375.124C99.4297 371.38 92.6246 365.763 88.0878 367.234C84.8113 368.304 83.4251 372.316 84.8113 375.526C86.1975 378.869 89.8521 380.741 93.0026 381.677C96.0271 382.48 102.076 381.41 104.218 381.143C104.723 382.881 105.101 384.62 105.479 386.358C105.731 387.562 105.983 388.632 106.235 389.835C106.487 391.039 106.613 392.109 106.865 393.312C107.117 395.586 107.495 397.859 107.747 399.999C107.873 401.47 107.999 402.941 108.251 404.412C107.747 402.674 106.613 399.464 106.487 399.197C105.227 396.522 102.202 392.644 98.9256 390.638C98.7996 390.236 98.5475 389.835 98.2955 389.434C96.2792 386.626 92.4986 385.823 89.8521 388.364C86.3235 391.841 87.4577 400.935 89.348 405.081C89.4741 405.348 90.8603 407.889 91.8684 409.36C91.2383 408.558 90.4822 407.756 89.8521 406.82C88.4659 405.081 87.0797 403.476 85.4414 401.738C84.6853 400.935 83.9292 400.133 83.173 399.197C82.4169 398.394 81.5348 397.592 80.6526 396.656C78.6363 394.783 76.62 392.911 74.4776 391.173C75.8638 389.835 80.7786 385.155 82.0388 382.079C83.4251 379.003 84.3072 374.723 82.669 371.514C81.1567 368.438 77.3761 367.1 74.4776 369.106C70.445 371.915 70.3189 381.143 71.5791 385.556C71.7052 385.823 72.8394 388.899 73.4695 390.504C72.2093 389.434 70.823 388.364 69.5628 387.294C65.6562 384.352 61.6235 381.41 57.5909 378.468C56.3307 377.532 55.1965 376.729 53.9363 375.793C54.4404 375.392 60.3633 369.909 61.8756 366.432C63.2618 363.356 64.1439 359.076 62.5057 355.867C60.9934 352.791 57.2128 351.454 54.3143 353.46C50.2817 356.268 50.1557 365.496 51.4159 369.909C51.5419 370.176 53.1802 374.59 53.6842 375.659C51.0378 373.653 48.3914 371.647 45.871 369.641C42.3424 366.833 39.0659 363.757 36.0414 360.547C36.2934 360.28 42.4684 354.663 43.9807 351.186C45.3669 348.11 46.249 343.831 44.6108 340.621C43.0985 337.545 39.3179 336.208 36.4194 338.214C32.3868 341.022 32.2608 350.25 33.521 354.663C33.647 355.064 35.4113 359.745 35.7893 360.547C35.6633 360.414 35.4113 360.146 35.2852 360.013C32.1347 356.535 29.4883 352.791 27.2199 349.18C25.8337 347.04 24.6995 345.034 23.5653 342.895C24.8255 341.958 30.4965 337.679 32.2608 334.603C33.899 331.661 35.2852 327.515 34.025 324.172C32.7648 320.962 29.2363 319.09 26.2118 320.828C21.9271 323.236 20.9189 332.33 21.675 336.743C21.675 337.01 22.4312 339.417 22.9352 341.156C22.4312 340.22 21.9271 339.284 21.549 338.348C19.9107 334.87 18.5245 331.661 17.3903 328.852C16.7602 327.248 16.1301 325.777 15.626 324.305C16.3822 322.701 19.5327 316.281 19.6587 312.804C19.9107 309.461 19.2806 305.048 16.6342 302.641C14.1138 300.367 10.2072 300.501 8.19083 303.443C5.41838 307.589 8.44288 316.281 11.0893 319.892C11.3413 320.16 15.374 324.707 15.374 324.573V324.439C15.8781 325.777 16.3822 327.248 16.8862 328.852C18.0204 331.795 19.2806 335.004 20.9189 338.481C22.5572 341.958 24.3215 345.703 26.5898 349.448C28.8582 353.192 31.3786 356.937 34.5291 360.547L34.6551 360.681C33.3949 359.879 29.9924 358.007 29.6143 357.873C25.5817 356.268 17.0123 355.466 13.9878 359.478C11.8454 362.286 12.7276 366.298 15.5 368.304C17.8944 370.31 22.0531 369.641 25.0776 368.572Z" fill="#263238"/>
<path d="M87.3326 306.653C87.4586 306.653 86.0724 300.635 85.9463 300.233C84.4341 295.954 79.2672 288.599 74.4785 288.732C71.0759 288.866 68.8075 292.343 69.1856 295.82C69.6897 299.431 72.7142 302.373 75.6127 303.978C78.8892 305.984 87.3326 306.653 87.3326 306.653Z" fill="#263238"/>
<path d="M590.91 347.04C587.13 346.773 579.821 342.36 579.821 342.36C579.695 342.36 583.979 338.08 584.231 337.813C587.634 335.138 595.825 331.928 599.732 335.004C602.504 337.144 602.63 341.29 600.488 343.965C598.22 346.773 594.187 347.308 590.91 347.04Z" fill="#263238"/>
<path d="M577.048 368.572C573.645 367.234 567.975 361.484 567.596 361.083C564.572 364.426 561.295 367.635 557.641 370.711C555.625 372.45 553.482 374.188 551.34 375.793C552.474 375.125 553.356 374.723 553.482 374.59C557.515 372.985 566.084 372.182 569.109 376.194C571.251 379.003 570.369 383.015 567.596 385.021C564.824 387.027 560.665 386.492 557.641 385.288C554.616 384.085 549.702 379.27 548.441 378.067C547.559 378.735 546.803 379.27 546.047 379.939C542.14 382.881 538.108 385.957 534.327 388.899C532.941 389.969 531.681 391.039 530.42 392.243C531.429 391.708 532.185 391.306 532.311 391.173C536.343 389.568 544.913 388.766 547.937 392.778C550.08 395.586 549.198 399.598 546.425 401.604C543.653 403.61 539.494 403.075 536.469 401.871C533.571 400.802 529.034 396.388 527.522 394.784C526.262 395.987 525.002 397.057 523.741 398.261C522.985 399.063 522.103 399.865 521.347 400.668C520.591 401.47 519.835 402.406 519.079 403.209C517.692 404.947 516.306 406.552 514.92 408.291C514.038 409.494 513.156 410.564 512.273 411.634C513.534 410.564 516.18 408.558 516.432 408.291C520.087 406.017 528.53 403.877 532.185 407.355C534.705 409.762 534.327 413.908 531.933 416.315C529.412 418.722 525.254 418.856 522.103 418.187C518.701 417.518 512.526 412.971 511.769 412.303C510.383 414.175 508.997 416.047 507.737 417.786C504.334 422.467 501.436 426.746 499.167 430.089L496.395 428.485C498.789 425.007 501.814 420.728 505.468 415.914C506.855 414.041 508.493 412.035 510.131 409.896C509.753 409.361 507.485 406.686 505.72 403.744C502.318 405.081 495.261 404.814 494.379 404.814C494.127 407.221 494.001 409.494 493.748 411.768C493.37 417.518 493.118 422.6 492.992 426.612L489.968 424.874C490.22 421.129 490.472 416.582 490.976 411.5C491.228 409.093 491.48 406.418 491.732 403.744C490.85 403.476 483.667 401.203 480.894 398.796C478.5 396.656 475.98 393.045 476.106 389.434C476.358 385.957 479.13 383.015 482.533 383.55C487.321 384.352 490.976 392.644 491.606 397.191C491.606 397.458 491.732 400.4 491.732 402.273C491.858 401.203 491.984 400.133 492.11 399.063C492.362 396.79 492.74 394.65 493.118 392.243C493.37 391.039 493.496 389.969 493.748 388.766C494.001 387.562 494.253 386.358 494.505 385.288C495.135 382.48 496.017 379.805 496.773 376.997C494.883 376.729 488.456 375.66 485.683 373.921C482.911 372.182 480.012 369.107 479.634 365.496C479.382 362.019 481.651 358.675 485.179 358.675C489.968 358.675 494.883 366.298 496.143 370.711C496.269 370.979 496.773 374.188 497.151 375.927C497.655 374.322 498.159 372.584 498.789 370.979C500.428 366.164 502.318 361.484 504.208 356.669C504.712 355.198 505.342 353.727 505.846 352.256C505.216 352.122 497.403 351.052 494.379 349.046C491.606 347.308 488.708 344.232 488.33 340.621C488.078 337.144 490.346 333.801 493.875 333.801C498.663 333.801 503.578 341.424 504.838 345.837C504.964 346.104 505.72 350.785 505.972 351.989C507.233 348.779 508.367 345.569 509.375 342.36C510.761 337.946 512.021 333.533 512.778 329.12C512.526 329.12 504.46 328.05 501.31 325.91C498.537 324.172 495.639 321.096 495.261 317.485C495.009 314.008 497.277 310.665 500.806 310.665C505.594 310.665 510.509 318.288 511.769 322.701C511.895 323.102 512.778 328.05 512.904 328.986C512.904 328.719 513.03 328.451 513.03 328.184C513.912 323.503 514.164 318.822 514.164 314.409C514.164 311.868 514.038 309.461 513.912 307.054C512.4 307.054 505.468 306.786 502.444 305.315C499.545 303.844 496.269 301.17 495.513 297.559C494.883 294.082 496.899 290.605 500.302 290.203C505.09 289.668 510.761 296.623 512.4 300.768C512.526 301.036 513.156 303.443 513.66 305.182C513.534 304.112 513.534 303.042 513.408 301.972C513.03 298.094 512.526 294.617 512.021 291.541C511.769 289.802 511.391 288.197 511.139 286.726C509.627 285.924 503.704 282.313 501.814 279.505C499.924 276.83 498.159 272.818 499.041 269.341C499.923 265.997 503.326 263.724 506.477 265.061C510.887 266.934 512.904 275.894 512.652 280.441C512.652 280.842 511.643 286.86 511.517 286.86H511.391C511.769 288.331 512.021 289.802 512.4 291.407C513.03 294.483 513.66 297.96 514.038 301.838C514.542 305.717 514.92 309.862 514.92 314.276C514.92 318.689 514.794 323.369 514.038 328.184V328.318C514.668 326.98 516.558 323.369 516.684 323.102C519.205 319.357 526.01 313.741 530.546 315.212C533.823 316.282 535.209 320.294 533.823 323.503C532.437 326.847 528.782 328.719 525.632 329.655C522.103 330.591 514.416 329.12 513.786 328.986C513.03 333.533 511.895 338.214 510.509 342.761C509.753 345.436 508.871 347.977 507.989 350.651C508.619 349.581 509.123 348.511 509.249 348.378C511.769 344.633 518.575 339.016 523.111 340.487C526.388 341.557 527.774 345.569 526.388 348.779C525.002 352.122 521.347 353.995 518.196 354.931C515.046 355.733 508.493 354.663 506.729 354.262C506.351 355.332 505.972 356.268 505.72 357.338C503.956 362.152 502.192 366.967 500.68 371.647C500.176 373.386 499.671 374.991 499.167 376.729C499.671 375.66 500.176 374.857 500.176 374.723C502.696 370.979 509.501 365.362 514.038 366.833C517.314 367.903 518.701 371.915 517.314 375.125C515.928 378.468 512.273 380.34 509.123 381.276C506.098 382.079 500.05 381.009 497.907 380.741C497.403 382.48 497.025 384.219 496.647 385.957C496.395 387.161 496.143 388.231 495.891 389.434C495.639 390.638 495.513 391.708 495.261 392.911C495.009 395.185 494.631 397.458 494.379 399.598C494.253 401.069 494.127 402.54 493.875 404.011C494.379 402.273 495.513 399.063 495.639 398.796C496.899 396.121 499.923 392.243 503.2 390.237C503.326 389.835 503.578 389.434 503.83 389.033C505.846 386.225 509.627 385.422 512.273 387.963C515.802 391.44 514.668 400.534 512.778 404.68C512.652 404.947 511.265 407.488 510.257 408.959C510.887 408.157 511.643 407.355 512.273 406.418C513.66 404.68 515.046 403.075 516.684 401.337C517.44 400.534 518.196 399.732 518.953 398.796C519.709 397.993 520.591 397.191 521.473 396.255C523.489 394.382 525.506 392.51 527.648 390.772C526.262 389.434 521.347 384.753 520.087 381.678C518.701 378.602 517.818 374.322 519.457 371.113C520.969 368.037 524.75 366.699 527.648 368.705C531.681 371.514 531.807 380.741 530.546 385.155C530.42 385.422 529.286 388.498 528.656 390.103C529.916 389.033 531.303 387.963 532.563 386.893C536.469 383.951 540.502 381.009 544.535 378.067C545.795 377.131 546.929 376.328 548.189 375.392C547.685 374.991 541.762 369.508 540.25 366.031C538.864 362.955 537.982 358.675 539.62 355.466C541.132 352.39 544.913 351.052 547.811 353.058C551.844 355.867 551.97 365.095 550.71 369.508C550.584 369.775 548.945 374.188 548.441 375.258C551.088 373.252 553.734 371.246 556.255 369.24C559.783 366.432 563.06 363.356 566.084 360.146C565.832 359.879 559.657 354.262 558.145 350.785C556.759 347.709 555.877 343.43 557.515 340.22C559.027 337.144 562.808 335.807 565.706 337.813C569.739 340.621 569.865 349.849 568.605 354.262C568.479 354.663 566.714 359.344 566.336 360.146C566.462 360.013 566.714 359.745 566.84 359.611C569.991 356.134 572.637 352.39 574.906 348.779C576.292 346.639 577.426 344.633 578.56 342.493C577.3 341.557 571.629 337.278 569.865 334.202C568.227 331.26 566.84 327.114 568.101 323.771C569.361 320.561 572.889 318.689 575.914 320.427C580.199 322.835 581.207 331.928 580.451 336.342C580.451 336.609 579.694 339.016 579.19 340.755C579.694 339.819 580.199 338.883 580.577 337.946C582.215 334.469 583.601 331.26 584.735 328.451C585.365 326.847 585.995 325.375 586.5 323.904C585.743 322.3 582.593 315.88 582.467 312.403C582.215 309.06 582.845 304.647 585.491 302.239C588.012 299.966 591.918 300.1 593.935 303.042C596.707 307.188 593.683 315.88 591.036 319.491C590.784 319.759 586.752 324.306 586.752 324.172V324.038C586.248 325.375 585.743 326.847 585.239 328.451C584.105 331.394 582.845 334.603 581.207 338.08C579.568 341.557 577.804 345.302 575.536 349.046C573.267 352.791 570.747 356.536 567.596 360.146L567.47 360.28C568.731 359.478 572.133 357.605 572.511 357.472C576.544 355.867 585.113 355.064 588.138 359.076C590.28 361.885 589.398 365.897 586.626 367.903C584.231 370.31 580.072 369.642 577.048 368.572Z" fill="#263238"/>
<path d="M514.668 306.653C514.542 306.653 515.928 300.635 516.054 300.233C517.566 295.954 522.733 288.599 527.522 288.732C530.924 288.866 533.193 292.343 532.815 295.82C532.311 299.431 529.286 302.373 526.388 303.978C523.111 305.984 514.668 306.653 514.668 306.653Z" fill="#263238"/>
<path d="M454.052 139.886H153.871V423.269H454.052V139.886Z" fill="white" stroke="#263238" stroke-miterlimit="10"/>
<path d="M188.274 189.501H415.868" stroke="#263238" stroke-miterlimit="10"/>
<path d="M188.274 214.376H415.868" stroke="#263238" stroke-miterlimit="10"/>
<path d="M188.274 239.117H415.868" stroke="#263238" stroke-miterlimit="10"/>
<path d="M188.274 263.991H415.868" stroke="#263238" stroke-miterlimit="10"/>
<path d="M188.274 288.732H415.868" stroke="#263238" stroke-miterlimit="10"/>
<path d="M188.274 313.607H415.868" stroke="#263238" stroke-miterlimit="10"/>
<path d="M506.98 466.331H100.942V227.348L303.961 373.653L506.98 227.348V466.331Z" fill="#01AAED" stroke="#263238" stroke-miterlimit="10"/>
<path d="M347.816 60.9829C347.816 60.9829 346.304 68.6058 348.32 71.013C350.337 73.4202 358.024 82.113 358.024 83.4503C358.024 84.7876 355.504 123.704 355.504 123.704L343.784 114.744L336.601 138.014C336.601 138.014 354.495 146.172 362.813 147.776C371.256 149.381 372.768 146.974 372.768 139.886C372.768 132.798 366.089 79.0371 366.089 79.0371C366.089 79.0371 368.106 66.5998 368.106 64.46C368.106 62.3203 368.862 61.2504 367.098 60.1805C365.333 59.1107 350.841 57.5059 350.841 57.5059C350.841 57.5059 347.816 58.7095 347.816 60.9829Z" fill="white" stroke="#263238" stroke-miterlimit="10" stroke-linecap="round" stroke-linejoin="round"/>
<path d="M344.036 117.954L340.255 138.816L336.601 138.014L344.036 117.954Z" fill="#263238" stroke="#263238" stroke-miterlimit="10" stroke-linecap="round" stroke-linejoin="round"/>
<path d="M372.643 67.001L343.784 62.8552V55.2324C343.784 54.5637 344.288 53.895 345.044 53.895C345.674 53.895 346.305 54.43 346.305 55.2324V60.5817L370.5 64.0588L370.879 57.9071C370.879 57.2384 371.509 56.7034 372.139 56.7034C372.769 56.7034 373.273 57.3721 373.273 58.0408L372.643 67.001Z" fill="#263238"/>
<path d="M350.463 64.46L366.215 66.0648L367.224 60.0468L350.967 57.3721L350.463 64.46Z" fill="white" stroke="#263238" stroke-miterlimit="10" stroke-linecap="round" stroke-linejoin="round"/>
<path d="M347.564 65.2624C347.564 65.2624 347.564 58.4419 348.321 57.907C349.077 57.372 360.041 58.1745 360.041 59.7793C360.041 61.3841 360.041 62.1865 358.78 62.1865C357.52 62.1865 355 62.4539 355 62.4539C355 62.4539 360.923 68.0708 359.032 73.2864" fill="white"/>
<path d="M347.564 65.2624C347.564 65.2624 347.564 58.4419 348.321 57.907C349.077 57.372 360.041 58.1745 360.041 59.7793C360.041 61.3841 360.041 62.1865 358.78 62.1865C357.52 62.1865 355 62.4539 355 62.4539C355 62.4539 360.923 68.0708 359.032 73.2864" stroke="#263238" stroke-miterlimit="10" stroke-linecap="round" stroke-linejoin="round"/>
<path d="M355.503 123.704L354.495 135.607" stroke="#263238" stroke-miterlimit="10" stroke-linecap="round" stroke-linejoin="round"/>
<path d="M226.081 118.489C226.081 118.489 190.039 148.311 191.047 151.521C191.929 154.731 218.646 181.879 227.593 188.565C236.415 195.252 241.329 198.194 241.329 198.194L246.874 201.939C246.874 201.939 244.606 205.951 245.992 206.619C247.378 207.422 252.545 210.096 253.175 208.625C253.931 207.154 257.586 196.054 257.082 193.38C256.578 190.705 243.094 188.432 242.211 187.495C241.329 186.559 219.15 150.05 219.15 150.05L236.288 135.74L226.081 118.489Z" fill="white" stroke="#263238" stroke-miterlimit="10" stroke-linecap="round" stroke-linejoin="round"/>
<path d="M225.451 119.425L232.004 138.281L236.289 135.473L225.451 119.425Z" fill="#263238" stroke="#263238" stroke-miterlimit="10" stroke-linecap="round" stroke-linejoin="round"/>
<path d="M246.748 201.805C246.748 201.805 248.386 205.549 251.159 205.817" stroke="#263238" stroke-miterlimit="10" stroke-linecap="round" stroke-linejoin="round"/>
<path d="M219.15 149.782L214.487 141.09" stroke="#263238" stroke-miterlimit="10" stroke-linecap="round" stroke-linejoin="round"/>
<path d="M250.025 419.792L249.646 441.724L266.533 442.125L268.045 418.187L250.025 419.792Z" fill="white" stroke="#263238" stroke-miterlimit="10" stroke-linecap="round" stroke-linejoin="round"/>
<path d="M250.15 418.588V424.071L267.667 424.874L268.045 419.257L250.15 418.588Z" fill="#263238" stroke="#263238" stroke-miterlimit="10" stroke-linecap="round" stroke-linejoin="round"/>
<path d="M258.089 435.974C258.089 435.974 255.82 426.746 252.544 426.479C249.141 426.345 247.503 429.02 246.243 431.56C244.983 434.101 236.791 442.794 234.019 444.934C231.246 447.074 225.071 449.882 224.189 456.168C223.307 462.453 226.836 464.994 229.23 465.663C231.624 466.331 242.588 466.465 249.141 465.663C255.694 464.86 273.463 466.733 274.471 465.663C275.48 464.593 276.866 461.116 275.984 458.709C275.102 456.301 273.337 453.76 273.337 453.76C273.337 453.76 275.228 448.01 274.093 444.934C272.959 441.724 270.691 437.846 271.069 436.107C271.447 434.369 275.48 430.624 272.707 430.357C269.935 430.223 265.398 433.7 262.625 434.636C259.727 435.84 258.089 435.974 258.089 435.974Z" fill="#263238" stroke="#263238" stroke-miterlimit="10" stroke-linecap="round" stroke-linejoin="round"/>
<path d="M269.936 454.696C267.289 455.098 257.334 460.18 250.907 461.784C244.606 463.389 239.061 463.523 236.036 461.918C233.012 460.313 230.491 455.633 228.223 452.69C225.955 449.748 224.19 457.237 224.19 457.237L223.938 457.371C223.56 462.854 226.837 465.128 229.105 465.663C231.499 466.198 242.463 466.465 249.016 465.663C255.569 464.86 273.338 466.733 274.346 465.663C275.355 464.593 276.741 461.116 275.859 458.708C274.977 456.301 273.212 453.76 273.212 453.76C271.952 453.76 272.582 454.295 269.936 454.696Z" fill="white" stroke="#263238" stroke-miterlimit="10" stroke-linecap="round" stroke-linejoin="round"/>
<path d="M242.842 437.177C242.842 437.177 247.883 435.974 254.184 442.527L250.781 445.469C250.781 445.469 244.228 440.119 240.195 440.119L242.842 437.177Z" fill="white" stroke="#263238" stroke-miterlimit="10" stroke-linecap="round" stroke-linejoin="round"/>
<path d="M238.179 441.189C238.179 441.189 243.219 439.986 249.521 446.539L246.118 449.481C246.118 449.481 239.565 444.131 235.532 444.131L238.179 441.189Z" fill="white" stroke="#263238" stroke-miterlimit="10" stroke-linecap="round" stroke-linejoin="round"/>
<path d="M252.797 440.521L258.09 435.974" stroke="#263238" stroke-miterlimit="10" stroke-linecap="round" stroke-linejoin="round"/>
<path d="M246.118 449.481C246.118 449.481 247.379 452.423 245.236 454.162C242.968 455.9 228.349 452.958 228.475 450.818C228.601 448.678 235.533 444.131 235.533 444.131C235.533 444.131 241.077 445.335 246.118 449.481Z" fill="white" stroke="#263238" stroke-miterlimit="10" stroke-linecap="round" stroke-linejoin="round"/>
<path d="M356.764 419.792L357.142 441.724L340.255 442.125L338.743 418.187L356.764 419.792Z" fill="white" stroke="#263238" stroke-miterlimit="10" stroke-linecap="round" stroke-linejoin="round"/>
<path d="M339.121 422.333V425.542L357.016 425.275L356.89 420.594L338.617 420.327L339.121 422.333Z" fill="#263238" stroke="#263238" stroke-miterlimit="10" stroke-linecap="round" stroke-linejoin="round"/>
<path d="M348.824 435.974C348.824 435.974 351.093 426.746 354.369 426.479C357.772 426.345 359.41 429.02 360.67 431.56C361.931 434.101 370.122 442.794 372.894 444.934C375.667 447.074 381.842 449.882 382.724 456.168C383.606 462.453 380.078 464.994 377.683 465.663C375.289 466.198 364.325 466.465 357.772 465.663C351.219 464.86 333.45 466.733 332.442 465.663C331.434 464.593 330.047 461.116 330.93 458.708C331.812 456.301 333.576 453.76 333.576 453.76C333.576 453.76 331.686 448.01 332.82 444.934C333.954 441.724 336.222 437.846 335.844 436.107C335.466 434.369 331.434 430.624 334.206 430.357C336.979 430.223 341.515 433.7 344.288 434.636C347.06 435.84 348.824 435.974 348.824 435.974Z" fill="#263238" stroke="#263238" stroke-miterlimit="10" stroke-linecap="round" stroke-linejoin="round"/>
<path d="M336.852 454.696C339.499 455.098 349.455 460.18 355.882 461.784C362.183 463.389 367.728 463.523 370.752 461.918C373.776 460.313 376.297 455.633 378.565 452.69C380.834 449.748 382.598 457.237 382.598 457.237L382.85 457.371C383.228 462.854 379.951 465.128 377.683 465.663C375.289 466.198 364.325 466.465 357.772 465.663C351.219 464.86 333.45 466.733 332.442 465.663C331.434 464.593 330.047 461.116 330.93 458.708C331.812 456.301 333.576 453.76 333.576 453.76C334.836 453.76 334.332 454.295 336.852 454.696Z" fill="white" stroke="#263238" stroke-miterlimit="10" stroke-linecap="round" stroke-linejoin="round"/>
<path d="M364.073 437.177C364.073 437.177 359.032 435.974 352.731 442.527L356.134 445.469C356.134 445.469 362.687 440.119 366.72 440.119L364.073 437.177Z" fill="white" stroke="#263238" stroke-miterlimit="10" stroke-linecap="round" stroke-linejoin="round"/>
<path d="M368.735 441.189C368.735 441.189 363.695 439.986 357.394 446.539L360.796 449.481C360.796 449.481 367.349 444.131 371.382 444.131L368.735 441.189Z" fill="white" stroke="#263238" stroke-miterlimit="10" stroke-linecap="round" stroke-linejoin="round"/>
<path d="M353.991 440.521L348.824 435.974" stroke="#263238" stroke-miterlimit="10" stroke-linecap="round" stroke-linejoin="round"/>
<path d="M360.67 449.481C360.67 449.481 359.41 452.423 361.552 454.162C363.82 455.9 378.439 452.958 378.313 450.818C378.187 448.678 371.256 444.131 371.256 444.131C371.256 444.131 365.711 445.335 360.67 449.481Z" fill="white" stroke="#263238" stroke-miterlimit="10" stroke-linecap="round" stroke-linejoin="round"/>
<path d="M257.838 188.432C257.838 188.432 248.008 231.093 244.354 267.201C240.699 303.309 234.902 421.664 234.902 421.664H280.018C280.018 421.664 293.502 301.571 295.644 280.173C297.661 258.91 297.661 245.402 297.661 245.402L323.117 421.664H376.801C376.801 421.664 356.26 309.862 348.069 258.508C339.877 207.154 328.41 187.094 328.41 187.094L257.838 188.432Z" fill="#A0A4A8" stroke="#263238" stroke-miterlimit="10" stroke-linecap="round" stroke-linejoin="round"/>
<path d="M296.4 191.508C296.022 192.711 285.311 209.829 288.587 211.033C291.864 212.37 298.039 212.37 298.039 208.893C298.039 205.416 298.039 194.985 298.039 194.985C298.039 194.985 298.921 214.51 302.575 213.707C306.23 212.771 311.145 213.707 310.011 209.294C308.75 204.881 299.299 190.973 299.299 190.973C299.299 190.973 297.535 187.629 296.4 191.508Z" fill="#A0A4A8" stroke="#263238" stroke-miterlimit="10" stroke-linecap="round" stroke-linejoin="round"/>
<path d="M298.039 192.979C298.039 192.979 307.365 207.021 306.482 208.224C305.6 209.562 304.34 210.765 303.458 208.893C302.576 206.887 298.039 192.979 298.039 192.979Z" stroke="#263238" stroke-miterlimit="10"/>
<path d="M297.787 191.374C297.787 191.374 290.856 207.021 291.738 207.556C292.62 208.224 294.762 208.224 295.392 205.951C295.896 203.811 297.787 191.374 297.787 191.374Z" stroke="#263238" stroke-miterlimit="10"/>
<path d="M325.763 235.773C326.141 238.047 326.519 240.053 326.645 241.925" stroke="#263238" stroke-miterlimit="10" stroke-linecap="round" stroke-linejoin="round"/>
<path d="M316.06 192.845C316.06 192.845 321.226 212.236 324.503 228.685" stroke="#263238" stroke-miterlimit="10" stroke-linecap="round" stroke-linejoin="round"/>
<path d="M312.405 192.845C312.405 192.845 315.682 217.184 317.32 223.737" stroke="#263238" stroke-miterlimit="10" stroke-linecap="round" stroke-linejoin="round"/>
<path d="M267.668 226.546C267.542 228.284 267.29 229.756 267.164 231.093" stroke="#263238" stroke-miterlimit="10" stroke-linecap="round" stroke-linejoin="round"/>
<path d="M270.944 192.845C270.944 192.845 269.558 207.689 268.424 219.993" stroke="#263238" stroke-miterlimit="10" stroke-linecap="round" stroke-linejoin="round"/>
<path d="M267.668 193.647L266.029 214.51" stroke="#263238" stroke-miterlimit="10" stroke-linecap="round" stroke-linejoin="round"/>
<path d="M296.401 15.2456C296.401 15.2456 311.649 16.8504 308.12 25.2757C304.592 33.7009 300.937 35.3057 300.181 35.3057C299.425 35.3057 293.25 25.2757 293.25 25.2757L296.401 15.2456Z" fill="#263238" stroke="#263238" stroke-miterlimit="10" stroke-linecap="round" stroke-linejoin="round"/>
<path d="M294.636 23.0023C294.636 23.0023 300.559 26.4794 302.324 33.0324C304.088 39.5853 308.751 41.4576 310.011 41.1901C311.271 40.9227 313.035 44.9347 311.523 47.7431C310.011 50.4178 310.011 50.4178 310.011 50.4178C310.011 50.4178 311.271 68.8731 309.759 71.2803C308.247 73.6876 298.795 72.3502 298.795 72.3502C298.795 72.3502 296.779 81.0429 298.543 86.3923C300.307 91.7417 305.726 94.5501 307.743 94.5501C309.759 94.5501 314.17 91.8754 319.967 95.085C325.89 98.2947 345.423 114.075 345.423 114.075L334.963 144.299L323.747 138.014L331.686 189.635L255.192 191.507C255.192 191.507 255.948 154.731 253.932 147.91C251.915 141.09 248.639 134.938 248.639 134.938L238.935 143.096L225.451 118.221C225.451 118.221 245.362 97.0911 253.176 95.2188C261.115 93.3465 270.567 95.7537 273.591 91.7417C276.616 87.7297 274.095 68.4719 274.095 68.4719C274.095 68.4719 266.66 65.7972 262.375 52.0226C258.09 38.248 272.835 23.9384 272.835 23.9384C272.835 23.9384 279.262 16.583 294.636 23.0023Z" fill="white" stroke="#263238" stroke-miterlimit="10" stroke-linecap="round" stroke-linejoin="round"/>
<path d="M298.669 72.2166L291.738 71.0129L297.283 77.8334L298.669 72.2166Z" fill="#263238" stroke="#263238" stroke-miterlimit="10" stroke-linecap="round" stroke-linejoin="round"/>
<path d="M295.393 37.713C295.393 37.713 295.393 32.6311 299.677 32.6311" stroke="#263238" stroke-width="2" stroke-miterlimit="10" stroke-linecap="round" stroke-linejoin="round"/>
<path d="M306.861 56.3021L297.913 51.7551C297.913 51.7551 297.157 61.5177 300.434 61.2503C303.836 60.9828 306.861 56.3021 306.861 56.3021Z" fill="#263238" stroke="#263238" stroke-miterlimit="10" stroke-linecap="round" stroke-linejoin="round"/>
<path d="M298.165 42.6613C298.165 42.6613 301.063 39.3179 303.458 42.1263" stroke="#263238" stroke-miterlimit="10" stroke-linecap="round" stroke-linejoin="round"/>
<path d="M297.913 54.831L305.978 57.6394C306.608 56.9708 306.986 56.4358 306.986 56.4358L298.039 51.8889C297.913 51.7551 297.787 53.0925 297.913 54.831Z" fill="white" stroke="#263238" stroke-miterlimit="10" stroke-linecap="round" stroke-linejoin="round"/>
<path d="M248.009 34.637C248.009 34.637 242.464 22.4672 234.525 23.8046C226.585 25.1419 220.536 34.3696 223.057 47.3418C223.057 47.3418 224.317 50.8189 225.325 53.8948C225.325 53.8948 215.369 50.6852 210.077 57.6393C204.784 64.7273 208.816 71.9489 214.865 75.426C221.04 78.9031 224.569 78.6356 224.569 78.6356C224.569 78.6356 211.085 82.9151 215.873 88.3982C220.662 93.7476 235.533 90.2705 232.382 85.7235C229.358 81.1766 227.089 81.7115 227.089 81.7115C227.089 81.7115 239.313 76.8971 238.053 73.2862C236.793 69.8092 230.618 67.0007 230.618 67.0007C230.618 67.0007 242.338 71.2802 248.765 67.2682C255.192 63.2562 249.521 45.8707 249.521 45.8707L248.009 34.637Z" fill="#263238" stroke="#263238" stroke-miterlimit="10" stroke-linecap="round" stroke-linejoin="round"/>
<path d="M299.173 9.22763C299.173 9.22763 301.189 16.8505 297.661 23.2697C294.132 29.8227 286.445 40.7889 285.437 53.2262C284.428 65.6635 287.705 81.0429 289.721 86.2586C291.738 91.3404 287.201 92.5441 283.798 92.1429C280.522 91.8754 279.262 89.7356 279.262 84.7875C279.262 79.973 278.253 71.2803 278.253 71.2803C278.253 71.2803 265.273 69.943 259.098 66.1984C252.923 62.4539 244.102 49.4816 247.882 34.5034C251.663 19.6589 261.871 15.2457 268.046 12.571C274.221 9.8963 282.538 10.1638 288.461 8.82643C294.384 7.62282 298.921 6.01801 299.173 9.22763Z" fill="#263238" stroke="#263238" stroke-miterlimit="10" stroke-linecap="round" stroke-linejoin="round"/>
<path d="M280.648 47.0745L278.38 56.8371C278.38 56.8371 273.591 54.4299 272.835 50.0167C272.079 45.7372 277.876 43.4637 282.034 47.342" fill="white"/>
<path d="M280.648 47.0745L278.38 56.8371C278.38 56.8371 273.591 54.4299 272.835 50.0167C272.079 45.7372 277.876 43.4637 282.034 47.342" stroke="#263238" stroke-miterlimit="10" stroke-linecap="round" stroke-linejoin="round"/>
<path d="M355 62.5876L351.724 62.8551" stroke="#263238" stroke-miterlimit="10" stroke-linecap="round" stroke-linejoin="round"/>
<path d="M331.182 54.6973L416.119 67.4021L404.525 0.668701L328.535 39.4516L331.182 54.6973Z" fill="#01AAED" stroke="#263238" stroke-miterlimit="10" stroke-linecap="round" stroke-linejoin="round"/>
<path d="M328.52 39.5784L315.876 42.031L318.482 57.1598L331.126 54.7071L328.52 39.5784Z" fill="#01AAED" stroke="#263238" stroke-miterlimit="10" stroke-linecap="round" stroke-linejoin="round"/>
<path d="M345.296 113.942C345.296 113.942 325.637 98.2948 319.84 94.9515C314.043 91.7419 309.758 94.2828 307.742 94.4165C304.465 99.3647 297.03 107.656 283.168 107.389C266.407 107.121 261.744 97.225 260.736 94.4165C258.216 94.5503 255.569 94.684 253.049 95.2189C245.109 97.0912 225.324 118.221 225.324 118.221L238.808 143.096L248.512 134.938C248.512 134.938 251.789 141.224 253.805 147.91C255.821 154.731 255.065 191.508 255.065 191.508L331.56 189.635L323.62 138.014L334.836 144.299L345.296 113.942Z" fill="#263238" stroke="#263238" stroke-miterlimit="10" stroke-linecap="round" stroke-linejoin="round"/>
<path d="M291.485 166.098C304.5 166.098 315.051 154.902 315.051 141.09C315.051 127.278 304.5 116.082 291.485 116.082C278.47 116.082 267.919 127.278 267.919 141.09C267.919 154.902 278.47 166.098 291.485 166.098Z" stroke="white" stroke-miterlimit="10"/>
<path d="M305.852 129.856H278.001L291.737 143.898L305.852 129.856Z" fill="#01AAED"/>
<path d="M297.281 140.822L306.985 149.916V131.194L297.281 140.822Z" fill="#01AAED"/>
<path d="M286.192 140.822L276.362 130.659V149.515L286.192 140.822Z" fill="#01AAED"/>
<path d="M296.021 142.026L291.737 146.305L287.452 142.026L277.244 151.12H305.725L296.021 142.026Z" fill="#01AAED"/>
</g>
<defs>
<clipPath id="clip0_603_34015">
<rect width="602" height="467" fill="white"/>
</clipPath>
</defs>
</svg>
