<svg width="106" height="104" viewBox="0 0 106 104" fill="none" xmlns="http://www.w3.org/2000/svg">
<path d="M104.5 52C104.5 80.1575 81.4517 103 53 103C24.5483 103 1.5 80.1575 1.5 52C1.5 23.8425 24.5483 1 53 1C81.4517 1 104.5 23.8425 104.5 52Z" fill="#E6F7FD" stroke="#01AAED" stroke-width="2"/>
<path fillRule="evenodd" clipRule="evenodd" d="M57.193 52.1038C57.193 49.7889 55.3158 47.9116 53.0008 47.9116C50.6858 47.9116 48.8086 49.7889 48.8086 52.1038C48.8086 54.4188 50.6858 56.296 53.0008 56.296C55.3158 56.296 57.193 54.4188 57.193 52.1038Z" stroke="#01AAED" stroke-width="1.5" stroke-linecap="round" stroke-linejoin="round"/>
<path fillRule="evenodd" clipRule="evenodd" d="M53 62.3696C63.7233 62.3696 65 59.1567 65 52.1949C65 47.3152 64.3546 44.7042 60.2901 43.5818C59.9169 43.4639 59.503 43.2394 59.1677 42.8705C58.6261 42.277 58.2304 40.4545 56.9228 39.9031C55.6152 39.3531 50.3637 39.3783 49.0772 39.9031C47.792 40.4292 47.3739 42.277 46.8323 42.8705C46.497 43.2394 46.0845 43.4639 45.7099 43.5818C41.6454 44.7042 41 47.3152 41 52.1949C41 59.1567 42.2767 62.3696 53 62.3696Z" stroke="#01AAED" stroke-width="1.5" stroke-linecap="round" stroke-linejoin="round"/>
<path d="M59.5472 47.4413H59.5591" stroke="#01AAED" stroke-width="1.5" stroke-linecap="round" stroke-linejoin="round"/>
</svg>
