<svg width="106" height="104" viewBox="0 0 106 104" fill="none" xmlns="http://www.w3.org/2000/svg">
<ellipse cx="53" cy="52" rx="52.5" ry="52" fill="#E6F7FD"/>
<path fill-rule="evenodd" clip-rule="evenodd" d="M57.1925 52.1038C57.1925 49.7889 55.3153 47.9116 53.0003 47.9116C50.6853 47.9116 48.8081 49.7889 48.8081 52.1038C48.8081 54.4188 50.6853 56.296 53.0003 56.296C55.3153 56.296 57.1925 54.4188 57.1925 52.1038Z" stroke="#01AAED" stroke-width="1.5" stroke-linecap="round" stroke-linejoin="round"/>
<path fill-rule="evenodd" clip-rule="evenodd" d="M53 62.3696C63.7233 62.3696 65 59.1567 65 52.1949C65 47.3152 64.3546 44.7042 60.2901 43.5818C59.9169 43.4639 59.503 43.2394 59.1677 42.8705C58.6261 42.277 58.2304 40.4545 56.9228 39.9031C55.6152 39.3531 50.3637 39.3783 49.0772 39.9031C47.792 40.4292 47.3739 42.277 46.8323 42.8705C46.497 43.2394 46.0845 43.4639 45.7099 43.5818C41.6454 44.7042 41 47.3152 41 52.1949C41 59.1567 42.2767 62.3696 53 62.3696Z" stroke="#01AAED" stroke-width="1.5" stroke-linecap="round" stroke-linejoin="round"/>
<path d="M59.5472 47.4413H59.5591" stroke="#01AAED" stroke-width="1.5" stroke-linecap="round" stroke-linejoin="round"/>
</svg>
