<svg width="698" height="421" viewBox="0 0 698 421" fill="none" xmlns="http://www.w3.org/2000/svg">
<g clipPath="url(#clip0_1_29446)">
<path d="M697.8 196.9H626V229.2H697.8V196.9Z" fill="#F5F5F5"/>
<path d="M612.6 337.6H535.9V369.9H612.6V337.6Z" fill="#F5F5F5"/>
<path d="M644.9 365.9H568.2V398.2H644.9V365.9Z" fill="#EBEBEB"/>
<path d="M76.7 117.4H0V149.7H76.7V117.4Z" fill="#F5F5F5"/>
<path d="M671.8 229.2H600V261.5H671.8V229.2Z" fill="#EBEBEB"/>
<path d="M154.5 372.5H77.7998V404.8H154.5V372.5Z" fill="#F5F5F5"/>
<path d="M110.6 340.1H33.9004V372.4H110.6V340.1Z" fill="#EBEBEB"/>
<path d="M660.4 76.7002H583.7V109H660.4V76.7002Z" fill="#F5F5F5"/>
<path d="M647.8 13.6001H571.1V45.9001H647.8V13.6001Z" fill="#F5F5F5"/>
<path d="M270 0.200195H193.3V32.5002H270V0.200195Z" fill="#F5F5F5"/>
<path d="M616.4 44.3999H539.7V76.6999H616.4V44.3999Z" fill="#EBEBEB"/>
<path d="M507.4 256.5H467.2V224.3H450.8V193.9H477.1V161.8H505.9V129.5H455.8V97.2001H417.5V64.9001H380.1V32.6001H303.4V64.9001H264.9V97.2001H227V129.5H190V160.2H160V191.9H140.4V206.5L140.3 224.3H117.6L117.5 256.5H84L122.1 264.4L123.5 250.3L156.8 253.7V256.6H184.9L197 257.8V288.8L120.2 282.4V290.9L197 289.4V290.9H228.1V322.5H271.2V355.2H421.9V322.5H450V290.9H507.4V256.5Z" fill="#263238"/>
<path d="M574.2 194.2H527.5V226.3H574.2V194.2Z" fill="#F5F5F5"/>
<path d="M574.2 226.2C574.2 226.2 574.2 226 574.2 225.6C574.2 225.2 574.2 224.6 574.2 223.9C574.2 222.4 574.2 220.2 574.1 217.4C574.1 211.8 574 203.8 574 194.1L574.2 194.3C561.3 194.3 545.1 194.3 527.5 194.4C527.4 194.5 528 193.9 527.8 194.1V194.2V194.3V194.6V195.1V196.2C527.8 196.9 527.8 197.6 527.8 198.3C527.8 199.7 527.8 201.1 527.8 202.5C527.8 205.3 527.8 208 527.8 210.7C527.8 216.1 527.8 221.2 527.8 226.1L527.6 225.9C541.3 225.9 553 226 561.2 226C565.3 226 568.6 226 570.8 226.1C571.9 226.1 572.8 226.1 573.4 226.1C573.7 226.1 573.9 226.1 574.1 226.1C574.1 226.2 574.2 226.2 574.2 226.2C574.2 226.2 574.1 226.2 574 226.2C573.8 226.2 573.6 226.2 573.4 226.2C572.8 226.2 572 226.2 570.9 226.2C568.7 226.2 565.4 226.2 561.3 226.3C553 226.3 541.3 226.4 527.5 226.4H527.3V226.2C527.3 221.3 527.3 216.2 527.3 210.8C527.3 208.1 527.3 205.4 527.3 202.6C527.3 201.2 527.3 199.8 527.3 198.4C527.3 197.7 527.3 197 527.3 196.3V195.2V194.7V194.4V194.3V194.2C527.1 194.4 527.6 193.9 527.6 193.9C545.1 193.9 561.3 193.9 574.3 194H574.5V194.2C574.5 204 574.4 212 574.4 217.6C574.4 220.4 574.4 222.5 574.3 224C574.3 224.7 574.3 225.3 574.3 225.7C574.2 226.1 574.2 226.2 574.2 226.2Z" fill="#263238"/>
<path d="M229.501 290.6H152.801V322.9H229.501V290.6Z" fill="#EBEBEB"/>
<path d="M229.501 322.9C229.501 322.9 229.501 322.7 229.501 322.3C229.501 321.9 229.501 321.3 229.501 320.6C229.501 319.1 229.501 316.9 229.501 314.2C229.501 308.6 229.401 300.6 229.401 290.6L229.601 290.8C209.901 290.8 182.801 290.8 153.001 290.9L153.301 290.6C153.301 301.9 153.301 312.9 153.301 322.9L153.101 322.7C175.301 322.7 194.401 322.8 208.001 322.8C214.801 322.8 220.201 322.9 223.901 322.9C225.701 322.9 227.201 322.9 228.201 322.9C228.701 322.9 229.001 322.9 229.301 322.9H229.501C229.501 322.9 229.401 322.9 229.101 322.9C228.801 322.9 228.501 322.9 228.001 322.9C227.001 322.9 225.601 322.9 223.801 322.9C220.101 322.9 214.701 322.9 207.901 323C194.301 323 175.101 323.1 152.801 323.1H152.601V322.9C152.601 312.8 152.601 301.9 152.601 290.6V290.3H152.901C182.801 290.3 209.901 290.4 229.501 290.4H229.701V290.6C229.701 300.6 229.601 308.7 229.601 314.3C229.601 317.1 229.601 319.2 229.601 320.7C229.601 321.4 229.601 322 229.601 322.4C229.501 322.7 229.501 322.9 229.501 322.9Z" fill="#263238"/>
<path d="M152.8 290.5H106.1V323H152.8V290.5Z" fill="#F5F5F5"/>
<path d="M152.8 323C152.8 323 152.8 322.8 152.8 322.4C152.8 322 152.8 321.4 152.8 320.7C152.8 319.2 152.8 316.9 152.7 314.1C152.7 308.4 152.6 300.3 152.6 290.5L152.8 290.7C139.8 290.7 123.6 290.7 106.1 290.8C106 290.9 106.6 290.3 106.4 290.5V290.6V290.7V291V291.5V292.6C106.4 293.3 106.4 294 106.4 294.8C106.4 296.2 106.4 297.7 106.4 299.1C106.4 301.9 106.4 304.7 106.4 307.4C106.4 312.8 106.4 318.1 106.4 323L106.2 322.8C119.9 322.8 131.6 322.9 139.8 322.9C143.9 322.9 147.2 322.9 149.4 323C150.5 323 151.4 323 152 323C152.3 323 152.5 323 152.7 323H152.8C152.8 323 152.7 323 152.6 323C152.4 323 152.2 323 152 323C151.4 323 150.6 323 149.5 323C147.3 323 144 323 139.9 323.1C131.6 323.1 119.9 323.2 106.1 323.2H105.9V323C105.9 318.1 105.9 312.8 105.9 307.4C105.9 304.7 105.9 301.9 105.9 299.1C105.9 297.7 105.9 296.3 105.9 294.8C105.9 294.1 105.9 293.4 105.9 292.6V291.5V291V290.7V290.6V290.5C105.7 290.7 106.2 290.2 106.2 290.2C123.7 290.2 139.9 290.2 152.9 290.3H153.1V290.5C153.1 300.4 153 308.5 153 314.2C153 317 153 319.2 152.9 320.7C152.9 321.4 152.9 322 152.9 322.4C152.8 322.8 152.8 323 152.8 323Z" fill="#263238"/>
<path d="M194.301 322.899H117.601V355.199H194.301V322.899Z" fill="#EBEBEB"/>
<path d="M194.3 355.2C194.3 355.2 194.3 355 194.3 354.6C194.3 354.2 194.3 353.6 194.3 352.9C194.3 351.4 194.3 349.2 194.3 346.5C194.3 340.9 194.2 332.9 194.2 322.9L194.4 323.1C174.7 323.1 147.6 323.1 117.8 323.2L118.1 322.9C118.1 334.2 118.1 345.2 118.1 355.2L117.9 355C140.1 355 159.2 355.1 172.8 355.1C179.6 355.1 185 355.2 188.7 355.2C190.5 355.2 192 355.2 193 355.2C193.5 355.2 193.8 355.2 194.1 355.2H194.3C194.3 355.2 194.2 355.2 193.9 355.2C193.6 355.2 193.3 355.2 192.8 355.2C191.8 355.2 190.4 355.2 188.6 355.2C184.9 355.2 179.5 355.2 172.7 355.3C159.1 355.3 139.9 355.4 117.6 355.4H117.4V355.2C117.4 345.1 117.4 334.2 117.4 322.9V322.6H117.7C147.6 322.6 174.7 322.7 194.3 322.7H194.5V322.9C194.5 332.9 194.4 341 194.4 346.6C194.4 349.4 194.4 351.5 194.4 353C194.4 353.7 194.4 354.3 194.4 354.7C194.3 355 194.3 355.2 194.3 355.2Z" fill="#263238"/>
<path d="M151.1 97H90V129.5H151.1V97Z" fill="#F5F5F5"/>
<path d="M151 129.5C151 129.5 151 129.3 151 128.9C151 128.5 151 127.9 151 127.2C151 125.7 151 123.5 151 120.7C151 115.1 150.9 107 150.9 96.9999L151.1 97.1999C134.9 97.1999 113.5 97.1999 89.9998 97.2999C89.7998 97.4999 90.2998 96.9999 90.2998 96.9999V97.0999V97.1999V97.4999V97.9999V99.0999C90.2998 99.7999 90.2998 100.5 90.2998 101.2C90.2998 102.6 90.2998 104 90.2998 105.4C90.2998 108.2 90.2998 111 90.2998 113.7C90.2998 119.1 90.2998 124.4 90.2998 129.4L90.0998 129.2C107.9 129.2 123.1 129.3 133.9 129.3C139.3 129.3 143.6 129.4 146.5 129.4C148 129.4 149.1 129.4 149.9 129.4C150.3 129.4 150.6 129.4 150.8 129.4C150.9 129.5 151 129.5 151 129.5C151 129.5 150.9 129.5 150.7 129.5C150.5 129.5 150.2 129.5 149.8 129.5C149 129.5 147.9 129.5 146.5 129.5C143.5 129.5 139.3 129.5 133.9 129.6C123.1 129.6 107.8 129.7 89.8998 129.7H89.6998V129.5C89.6998 124.5 89.6998 119.2 89.6998 113.8C89.6998 111.1 89.6998 108.3 89.6998 105.5C89.6998 104.1 89.6998 102.7 89.6998 101.3C89.6998 100.6 89.6998 99.8999 89.6998 99.1999V98.0999V97.5999V97.2999V97.1999V97.0999C89.5998 97.1999 90.1998 96.5999 89.9998 96.7999C113.5 96.7999 134.9 96.7999 151.1 96.8999H151.3V97.0999C151.3 107.1 151.2 115.2 151.2 120.9C151.2 123.7 151.2 125.9 151.2 127.4C151.2 128.1 151.2 128.7 151.2 129.1C151.1 129.3 151 129.5 151 129.5Z" fill="#263238"/>
<path d="M188.1 64.9004H141.4V97.0004H188.1V64.9004Z" fill="#EBEBEB"/>
<path d="M188.101 97.0002C188.101 97.0002 188.101 96.8002 188.101 96.4002C188.101 96.0002 188.101 95.4002 188.101 94.7002C188.101 93.2002 188.101 91.0002 188.001 88.2002C188.001 82.6002 187.901 74.6002 187.901 64.9002L188.101 65.1002C175.201 65.1002 159.001 65.1002 141.401 65.2002C141.301 65.3002 141.901 64.7002 141.701 64.9002V65.0002V65.1002V65.4002V66.0002V67.1002C141.701 67.8002 141.701 68.5002 141.701 69.2002C141.701 70.6002 141.701 72.0002 141.701 73.4002C141.701 76.2002 141.701 78.9002 141.701 81.6002C141.701 87.0002 141.701 92.1002 141.701 97.0002L141.501 96.8002C155.201 96.8002 166.901 96.9002 175.101 96.9002C179.201 96.9002 182.501 96.9002 184.701 97.0002C185.801 97.0002 186.701 97.0002 187.301 97.0002C187.601 97.0002 187.801 97.0002 188.001 97.0002H188.101C188.101 97.0002 188.001 97.0002 187.901 97.0002C187.701 97.0002 187.501 97.0002 187.301 97.0002C186.701 97.0002 185.901 97.0002 184.801 97.0002C182.601 97.0002 179.301 97.0002 175.201 97.1002C166.901 97.1002 155.201 97.2002 141.401 97.2002H141.201V97.0002C141.201 92.1002 141.201 87.0002 141.201 81.6002C141.201 78.9002 141.201 76.2002 141.201 73.4002C141.201 72.0002 141.201 70.6002 141.201 69.2002C141.201 68.5002 141.201 67.8002 141.201 67.1002V66.0002V65.5002V65.2002V65.0002C141.001 65.2002 141.501 64.7002 141.501 64.7002C159.001 64.7002 175.201 64.7002 188.201 64.8002H188.401V65.0002C188.401 74.8002 188.301 82.8002 188.301 88.5002C188.301 91.3002 188.301 93.4002 188.201 94.9002C188.201 95.6002 188.201 96.2002 188.201 96.6002C188.101 96.8002 188.101 97.0002 188.101 97.0002Z" fill="#263238"/>
<path d="M502.9 32.7998H456.2V65.2998H502.9V32.7998Z" fill="#F5F5F5"/>
<path d="M502.9 65.3C502.9 65.3 502.9 65.1 502.9 64.7C502.9 64.3 502.9 63.7 502.9 63C502.9 61.5 502.9 59.2 502.8 56.4C502.8 50.7 502.7 42.6 502.7 32.8L502.9 33C489.9 33 473.7 33 456.2 33.1C456.1 33.2 456.7 32.6 456.5 32.8V32.9V33V33.3V33.8V34.9C456.5 35.6 456.5 36.3 456.5 37.1C456.5 38.5 456.5 40 456.5 41.4C456.5 44.2 456.5 47 456.5 49.7C456.5 55.1 456.5 60.4 456.5 65.3L456.3 65.1C470 65.1 481.7 65.2 489.9 65.2C494 65.2 497.3 65.2 499.5 65.3C500.6 65.3 501.5 65.3 502.1 65.3C502.4 65.3 502.6 65.3 502.8 65.3H502.9C502.9 65.3 502.8 65.3 502.7 65.3C502.5 65.3 502.3 65.3 502.1 65.3C501.5 65.3 500.7 65.3 499.6 65.3C497.4 65.3 494.1 65.3 490 65.4C481.7 65.4 470 65.5 456.2 65.5H456V65.3C456 60.4 456 55.1 456 49.7C456 47 456 44.2 456 41.4C456 40 456 38.6 456 37.1C456 36.4 456 35.7 456 34.9V33.8V33.3V33V32.9V32.8C455.8 33 456.3 32.5 456.3 32.5C473.8 32.5 490 32.5 503 32.6H503.2V32.8C503.2 42.7 503.1 50.8 503.1 56.5C503.1 59.3 503.1 61.5 503 63C503 63.7 503 64.3 503 64.7C502.9 65.1 502.9 65.3 502.9 65.3Z" fill="#263238"/>
<path d="M504.1 355.3H457.4V387.8H504.1V355.3Z" fill="#F5F5F5"/>
<path d="M504 387.8C504 387.8 504 387.6 504 387.2C504 386.8 504 386.2 504 385.5C504 384 504 381.7 503.9 378.9C503.9 373.2 503.8 365.1 503.8 355.3L504 355.5C491 355.5 474.8 355.5 457.3 355.6C457.2 355.7 457.8 355.1 457.6 355.3V355.4V355.5V355.8V356.3V357.4C457.6 358.1 457.6 358.8 457.6 359.6C457.6 361 457.6 362.5 457.6 363.9C457.6 366.7 457.6 369.5 457.6 372.2C457.6 377.6 457.6 382.9 457.6 387.8L457.4 387.6C471.1 387.6 482.8 387.7 491 387.7C495.1 387.7 498.4 387.7 500.6 387.8C501.7 387.8 502.6 387.8 503.2 387.8C503.5 387.8 503.7 387.8 503.9 387.8C504 387.8 504 387.8 504 387.8C504 387.8 503.9 387.8 503.8 387.8C503.6 387.8 503.4 387.8 503.2 387.8C502.6 387.8 501.8 387.8 500.7 387.8C498.5 387.8 495.2 387.8 491.1 387.9C482.8 387.9 471.1 388 457.3 388H457.1V387.8C457.1 382.9 457.1 377.6 457.1 372.2C457.1 369.5 457.1 366.7 457.1 363.9C457.1 362.5 457.1 361.1 457.1 359.6C457.1 358.9 457.1 358.2 457.1 357.4V356.3V355.8V355.5V355.4V355.3C456.9 355.5 457.4 355 457.4 355C474.9 355 491.1 355 504.1 355.1H504.3V355.3C504.3 365.2 504.2 373.3 504.2 379C504.2 381.8 504.2 384 504.1 385.5C504.1 386.2 504.1 386.8 504.1 387.2C504.1 387.6 504 387.8 504 387.8Z" fill="#263238"/>
<path d="M227.6 355.3H180.9V387.8H227.6V355.3Z" fill="#F5F5F5"/>
<path d="M227.601 387.8C227.601 387.8 227.601 387.6 227.601 387.2C227.601 386.8 227.601 386.2 227.601 385.5C227.601 384 227.601 381.7 227.501 378.9C227.501 373.2 227.401 365.1 227.401 355.3L227.601 355.5C214.601 355.5 198.401 355.5 180.901 355.6C180.801 355.7 181.401 355.1 181.201 355.3V355.4V355.5V355.8V356.3V357.4C181.201 358.1 181.201 358.8 181.201 359.6C181.201 361 181.201 362.5 181.201 363.9C181.201 366.7 181.201 369.5 181.201 372.2C181.201 377.6 181.201 382.9 181.201 387.8L181.001 387.6C194.701 387.6 206.401 387.7 214.601 387.7C218.701 387.7 222.001 387.7 224.201 387.8C225.301 387.8 226.201 387.8 226.801 387.8C227.101 387.8 227.301 387.8 227.501 387.8H227.601C227.601 387.8 227.501 387.8 227.401 387.8C227.201 387.8 227.001 387.8 226.801 387.8C226.201 387.8 225.401 387.8 224.301 387.8C222.101 387.8 218.801 387.8 214.701 387.9C206.401 387.9 194.701 388 180.901 388H180.701V387.8C180.701 382.9 180.701 377.6 180.701 372.2C180.701 369.5 180.701 366.7 180.701 363.9C180.701 362.5 180.701 361.1 180.701 359.6C180.701 358.9 180.701 358.2 180.701 357.4V356.3V355.8V355.5V355.4V355.3C180.501 355.5 181.001 355 181.001 355C198.501 355 214.701 355 227.701 355.1H227.901V355.3C227.901 365.2 227.801 373.3 227.801 379C227.801 381.8 227.801 384 227.701 385.5C227.701 386.2 227.701 386.8 227.701 387.2C227.601 387.6 227.601 387.8 227.601 387.8Z" fill="#263238"/>
<path d="M345.8 0.299805H269.1V32.5998H345.8V0.299805Z" fill="#F5F5F5"/>
<path d="M345.7 32.6C345.7 32.6 345.7 32.4 345.7 32C345.7 31.6 345.7 31 345.7 30.3C345.7 28.8 345.7 26.6 345.7 23.9C345.7 18.3 345.6 10.3 345.6 0.3L345.8 0.5C326.1 0.5 299 0.5 269.2 0.6L269.5 0.3C269.5 11.6 269.5 22.6 269.5 32.6L269.3 32.4C291.5 32.4 310.6 32.5 324.2 32.5C331 32.5 336.4 32.6 340.1 32.6C341.9 32.6 343.4 32.6 344.4 32.6C344.9 32.6 345.2 32.6 345.5 32.6C345.6 32.6 345.7 32.6 345.7 32.6C345.7 32.6 345.6 32.6 345.3 32.6C345 32.6 344.7 32.6 344.2 32.6C343.2 32.6 341.8 32.6 340 32.6C336.3 32.6 330.9 32.6 324.1 32.7C310.5 32.7 291.3 32.8 269 32.8H268.8V32.6C268.8 22.5 268.8 11.6 268.8 0.3V0H269.1C299 0 326.1 0.1 345.7 0.1H345.9V0.3C345.9 10.3 345.8 18.4 345.8 24C345.8 26.8 345.8 28.9 345.8 30.4C345.8 31.1 345.8 31.7 345.8 32.1C345.7 32.4 345.7 32.6 345.7 32.6Z" fill="#263238"/>
<path d="M422.4 0.299805H345.7V32.5998H422.4V0.299805Z" fill="#F5F5F5"/>
<path d="M422.4 32.6C422.4 32.6 422.4 32.4 422.4 32C422.4 31.6 422.4 31 422.4 30.3C422.4 28.8 422.4 26.6 422.4 23.9C422.4 18.3 422.3 10.3 422.3 0.3L422.5 0.5C402.8 0.5 375.7 0.5 345.9 0.6L346.2 0.3C346.2 11.6 346.2 22.6 346.2 32.6L346 32.4C368.2 32.4 387.3 32.5 400.9 32.5C407.7 32.5 413.1 32.6 416.8 32.6C418.6 32.6 420.1 32.6 421.1 32.6C421.6 32.6 421.9 32.6 422.2 32.6H422.4C422.4 32.6 422.3 32.6 422 32.6C421.7 32.6 421.4 32.6 420.9 32.6C419.9 32.6 418.5 32.6 416.7 32.6C413 32.6 407.6 32.6 400.8 32.7C387.2 32.7 368 32.8 345.7 32.8H345.5V32.6C345.5 22.5 345.5 11.6 345.5 0.3V0H345.8C375.7 0 402.8 0.1 422.4 0.1H422.6V0.3C422.6 10.3 422.5 18.4 422.5 24C422.5 26.8 422.5 28.9 422.5 30.4C422.5 31.1 422.5 31.7 422.5 32.1C422.4 32.4 422.4 32.6 422.4 32.6Z" fill="#263238"/>
<path d="M456.3 32.7998H379.6V65.0998H456.3V32.7998Z" fill="#EBEBEB"/>
<path d="M456.2 65.1C456.2 65.1 456.2 64.9 456.2 64.5C456.2 64.1 456.2 63.5 456.2 62.8C456.2 61.3 456.2 59.1 456.2 56.4C456.2 50.8 456.1 42.8 456.1 32.8L456.3 33C436.6 33 409.5 33 379.7 33.1L380 32.8C380 44.1 380 55.1 380 65.1L379.8 64.9C402 64.9 421.1 65 434.7 65C441.5 65 446.9 65.1 450.6 65.1C452.4 65.1 453.9 65.1 454.9 65.1C455.4 65.1 455.7 65.1 456 65.1C456.1 65.1 456.2 65.1 456.2 65.1C456.2 65.1 456.1 65.1 455.8 65.1C455.5 65.1 455.2 65.1 454.7 65.1C453.7 65.1 452.3 65.1 450.5 65.1C446.8 65.1 441.4 65.1 434.6 65.2C421 65.2 401.8 65.3 379.5 65.3H379.3V65.1C379.3 55 379.3 44.1 379.3 32.8V32.5H379.6C409.5 32.5 436.6 32.6 456.2 32.6H456.4V32.8C456.4 42.8 456.3 50.9 456.3 56.5C456.3 59.3 456.3 61.4 456.3 62.9C456.3 63.6 456.3 64.2 456.3 64.6C456.2 64.9 456.2 65.1 456.2 65.1Z" fill="#263238"/>
<path d="M494.2 65.2998H417.5V97.5998H494.2V65.2998Z" fill="#F5F5F5"/>
<path d="M494.1 97.6C494.1 97.6 494.1 97.4 494.1 97C494.1 96.6 494.1 96 494.1 95.3C494.1 93.8 494.1 91.6 494.1 88.9C494.1 83.3 494 75.3 494 65.3L494.2 65.5C474.5 65.5 447.4 65.5 417.6 65.6L417.9 65.3C417.9 76.6 417.9 87.6 417.9 97.6L417.7 97.4C439.9 97.4 459 97.5 472.6 97.5C479.4 97.5 484.8 97.6 488.5 97.6C490.3 97.6 491.8 97.6 492.8 97.6C493.3 97.6 493.6 97.6 493.9 97.6C494 97.6 494.1 97.6 494.1 97.6C494.1 97.6 494 97.6 493.7 97.6C493.4 97.6 493.1 97.6 492.6 97.6C491.6 97.6 490.2 97.6 488.4 97.6C484.7 97.6 479.3 97.6 472.5 97.7C458.9 97.7 439.7 97.8 417.4 97.8H417.2V97.6C417.2 87.5 417.2 76.6 417.2 65.3V65H417.5C447.4 65 474.5 65.1 494.1 65.1H494.3V65.3C494.3 75.3 494.2 83.4 494.2 89C494.2 91.8 494.2 93.9 494.2 95.4C494.2 96.1 494.2 96.7 494.2 97.1C494.1 97.4 494.1 97.6 494.1 97.6Z" fill="#263238"/>
<path d="M532.5 97.5996H455.8V129.9H532.5V97.5996Z" fill="#EBEBEB"/>
<path d="M532.4 129.9C532.4 129.9 532.4 129.7 532.4 129.3C532.4 128.9 532.4 128.3 532.4 127.6C532.4 126.1 532.4 123.9 532.4 121.2C532.4 115.6 532.3 107.6 532.3 97.5998L532.5 97.7998C512.8 97.7998 485.7 97.7998 455.9 97.8998L456.2 97.5998C456.2 108.9 456.2 119.9 456.2 129.9L456 129.7C478.2 129.7 497.3 129.8 510.9 129.8C517.7 129.8 523.1 129.9 526.8 129.9C528.6 129.9 530.1 129.9 531.1 129.9C531.6 129.9 531.9 129.9 532.2 129.9C532.3 129.9 532.4 129.9 532.4 129.9C532.4 129.9 532.3 129.9 532 129.9C531.7 129.9 531.4 129.9 530.9 129.9C529.9 129.9 528.5 129.9 526.7 129.9C523 129.9 517.6 129.9 510.8 130C497.2 130 478 130.1 455.7 130.1H455.5V129.9C455.5 119.8 455.5 108.9 455.5 97.5998V97.2998H455.8C485.7 97.2998 512.8 97.3998 532.4 97.3998H532.6V97.5998C532.6 107.6 532.5 115.7 532.5 121.3C532.5 124.1 532.5 126.2 532.5 127.7C532.5 128.4 532.5 129 532.5 129.4C532.5 129.7 532.4 129.9 532.4 129.9Z" fill="#263238"/>
<path d="M582.9 129.9H506.2V162.2H582.9V129.9Z" fill="#F5F5F5"/>
<path d="M582.9 162.2C582.9 162.2 582.9 162 582.9 161.6C582.9 161.2 582.9 160.6 582.9 159.9C582.9 158.4 582.9 156.2 582.9 153.5C582.9 147.9 582.8 139.9 582.8 129.9L583 130.1C563.3 130.1 536.2 130.1 506.4 130.2L506.7 129.9C506.7 141.2 506.7 152.2 506.7 162.2L506.5 162C528.7 162 547.8 162.1 561.4 162.1C568.2 162.1 573.6 162.2 577.3 162.2C579.1 162.2 580.6 162.2 581.6 162.2C582.1 162.2 582.4 162.2 582.7 162.2H582.9C582.9 162.2 582.8 162.2 582.5 162.2C582.2 162.2 581.9 162.2 581.4 162.2C580.4 162.2 579 162.2 577.2 162.2C573.5 162.2 568.1 162.2 561.3 162.3C547.7 162.3 528.5 162.4 506.2 162.4H506V162.2C506 152.1 506 141.2 506 129.9V129.6H506.3C536.2 129.6 563.3 129.7 582.9 129.7H583.1V129.9C583.1 139.9 583 148 583 153.6C583 156.4 583 158.5 583 160C583 160.7 583 161.3 583 161.7C582.9 162.1 582.9 162.2 582.9 162.2Z" fill="#263238"/>
<path d="M553.7 161.6H477V193.9H553.7V161.6Z" fill="#EBEBEB"/>
<path d="M553.6 193.9C553.6 193.9 553.6 193.7 553.6 193.3C553.6 192.9 553.6 192.3 553.6 191.6C553.6 190.1 553.6 187.9 553.6 185.2C553.6 179.6 553.5 171.6 553.5 161.6L553.7 161.8C534 161.8 506.9 161.8 477.1 161.9L477.4 161.6C477.4 172.9 477.4 183.9 477.4 193.9L477.2 193.7C499.4 193.7 518.5 193.8 532.1 193.8C538.9 193.8 544.3 193.9 548 193.9C549.8 193.9 551.3 193.9 552.3 193.9C552.8 193.9 553.1 193.9 553.4 193.9C553.5 193.9 553.6 193.9 553.6 193.9C553.6 193.9 553.5 193.9 553.2 193.9C552.9 193.9 552.6 193.9 552.1 193.9C551.1 193.9 549.7 193.9 547.9 193.9C544.2 193.9 538.8 193.9 532 194C518.4 194 499.2 194.1 476.9 194.1H476.7V193.9C476.7 183.8 476.7 172.9 476.7 161.6V161.3H477C506.9 161.3 534 161.4 553.6 161.4H553.8V161.6C553.8 171.6 553.7 179.7 553.7 185.3C553.7 188.1 553.7 190.2 553.7 191.7C553.7 192.4 553.7 193 553.7 193.4C553.7 193.7 553.6 193.9 553.6 193.9Z" fill="#263238"/>
<path d="M527.6 193.9H450.9V226.2H527.6V193.9Z" fill="#F5F5F5"/>
<path d="M527.6 226.2C527.6 226.2 527.6 226 527.6 225.6C527.6 225.2 527.6 224.6 527.6 223.9C527.6 222.4 527.6 220.2 527.6 217.5C527.6 211.9 527.5 203.9 527.5 193.9L527.7 194.1C508 194.1 480.9 194.1 451.1 194.2L451.4 193.9C451.4 205.2 451.4 216.2 451.4 226.2L451.2 226C473.4 226 492.5 226.1 506.1 226.1C512.9 226.1 518.3 226.2 522 226.2C523.8 226.2 525.3 226.2 526.3 226.2C526.8 226.2 527.1 226.2 527.4 226.2C527.5 226.2 527.6 226.2 527.6 226.2C527.6 226.2 527.5 226.2 527.2 226.2C526.9 226.2 526.6 226.2 526.1 226.2C525.1 226.2 523.7 226.2 521.9 226.2C518.2 226.2 512.8 226.2 506 226.3C492.4 226.3 473.2 226.4 450.9 226.4H450.7V226.2C450.7 216.1 450.7 205.2 450.7 193.9V193.6H451C480.9 193.6 508 193.7 527.6 193.7H527.8V193.9C527.8 203.9 527.7 212 527.7 217.6C527.7 220.4 527.7 222.5 527.7 224C527.7 224.7 527.7 225.3 527.7 225.7C527.6 226.1 527.6 226.2 527.6 226.2Z" fill="#263238"/>
<path d="M618.8 161.6H553.5V193.9H618.8V161.6Z" fill="#F5F5F5"/>
<path d="M618.8 193.9C618.8 193.9 618.8 193.7 618.8 193.3C618.8 192.9 618.8 192.3 618.8 191.6C618.8 190.1 618.8 187.9 618.8 185.1C618.8 179.5 618.7 171.5 618.7 161.5L618.9 161.7C601.8 161.7 578.8 161.7 553.7 161.8C553.5 162 554 161.5 554 161.5V161.6V161.7V162V162.5V163.6C554 164.3 554 165 554 165.7C554 167.1 554 168.5 554 169.9C554 172.7 554 175.4 554 178.1C554 183.5 554 188.7 554 193.7L553.8 193.5C572.8 193.5 589.1 193.6 600.6 193.6C606.4 193.6 611 193.7 614.1 193.7C615.7 193.7 616.9 193.7 617.7 193.7C618.1 193.7 618.4 193.7 618.6 193.7C618.7 193.9 618.8 193.9 618.8 193.9C618.8 193.9 618.7 193.9 618.5 193.9C618.3 193.9 618 193.9 617.6 193.9C616.8 193.9 615.6 193.9 614 193.9C610.8 193.9 606.3 193.9 600.5 194C588.9 194 572.6 194.1 553.5 194.1H553.3V193.9C553.3 188.9 553.3 183.7 553.3 178.3C553.3 175.6 553.3 172.8 553.3 170.1C553.3 168.7 553.3 167.3 553.3 165.9C553.3 165.2 553.3 164.5 553.3 163.8V162.7V162.2V161.9V161.8V161.7C553.2 161.8 553.8 161.2 553.6 161.4C578.8 161.4 601.7 161.4 618.8 161.5H619V161.7C619 171.7 618.9 179.8 618.9 185.4C618.9 188.2 618.9 190.3 618.9 191.8C618.9 192.5 618.9 193.1 618.9 193.5C618.8 193.7 618.8 193.9 618.8 193.9Z" fill="#263238"/>
<path d="M543.7 226.3H467V258.6H543.7V226.3Z" fill="#EBEBEB"/>
<path d="M543.7 258.6C543.7 258.6 543.7 258.4 543.7 258C543.7 257.6 543.7 257 543.7 256.3C543.7 254.8 543.7 252.6 543.7 249.9C543.7 244.3 543.6 236.3 543.6 226.3L543.8 226.5C524.1 226.5 497 226.5 467.2 226.6L467.5 226.3C467.5 237.6 467.5 248.6 467.5 258.6L467.3 258.4C489.5 258.4 508.6 258.5 522.2 258.5C529 258.5 534.4 258.6 538.1 258.6C539.9 258.6 541.4 258.6 542.4 258.6C542.9 258.6 543.2 258.6 543.5 258.6H543.7C543.7 258.6 543.6 258.6 543.3 258.6C543 258.6 542.7 258.6 542.2 258.6C541.2 258.6 539.8 258.6 538 258.6C534.3 258.6 528.9 258.6 522.1 258.7C508.5 258.7 489.3 258.8 467 258.8H466.8V258.6C466.8 248.5 466.8 237.6 466.8 226.3V226H467.1C497 226 524.1 226.1 543.7 226.1H543.9V226.3C543.9 236.3 543.8 244.4 543.8 250C543.8 252.8 543.8 254.9 543.8 256.4C543.8 257.1 543.8 257.7 543.8 258.1C543.7 258.4 543.7 258.6 543.7 258.6Z" fill="#263238"/>
<path d="M584.4 258.6H507.7V290.9H584.4V258.6Z" fill="#F5F5F5"/>
<path d="M584.4 290.9C584.4 290.9 584.4 290.7 584.4 290.3C584.4 289.9 584.4 289.3 584.4 288.6C584.4 287.1 584.4 284.9 584.4 282.2C584.4 276.6 584.3 268.6 584.3 258.6L584.5 258.8C564.8 258.8 537.7 258.8 507.9 258.9L508.2 258.6C508.2 269.9 508.2 280.9 508.2 290.9L508 290.7C530.2 290.7 549.3 290.8 562.9 290.8C569.7 290.8 575.1 290.9 578.8 290.9C580.6 290.9 582.1 290.9 583.1 290.9C583.6 290.9 583.9 290.9 584.2 290.9H584.4C584.4 290.9 584.3 290.9 584 290.9C583.7 290.9 583.4 290.9 582.9 290.9C581.9 290.9 580.5 290.9 578.7 290.9C575 290.9 569.6 290.9 562.8 291C549.2 291 530 291.1 507.7 291.1H507.5V290.9C507.5 280.8 507.5 269.9 507.5 258.6V258.3H507.8C537.7 258.3 564.8 258.4 584.4 258.4H584.6V258.6C584.6 268.6 584.5 276.7 584.5 282.3C584.5 285.1 584.5 287.2 584.5 288.7C584.5 289.4 584.5 290 584.5 290.4C584.4 290.8 584.4 290.9 584.4 290.9Z" fill="#263238"/>
<path d="M525.801 290.2H449.101V322.5H525.801V290.2Z" fill="#EBEBEB"/>
<path d="M525.8 322.5C525.8 322.5 525.8 322.3 525.8 321.9C525.8 321.5 525.8 320.9 525.8 320.2C525.8 318.7 525.8 316.5 525.8 313.8C525.8 308.2 525.7 300.2 525.7 290.2L525.9 290.4C506.2 290.4 479.1 290.4 449.3 290.5L449.6 290.2C449.6 301.5 449.6 312.5 449.6 322.5L449.4 322.3C471.6 322.3 490.7 322.4 504.3 322.4C511.1 322.4 516.5 322.5 520.2 322.5C522 322.5 523.5 322.5 524.5 322.5C525 322.5 525.3 322.5 525.6 322.5H525.8C525.8 322.5 525.7 322.5 525.4 322.5C525.1 322.5 524.8 322.5 524.3 322.5C523.3 322.5 521.9 322.5 520.1 322.5C516.4 322.5 511 322.5 504.2 322.6C490.6 322.6 471.4 322.7 449.1 322.7H448.9V322.5C448.9 312.4 448.9 301.5 448.9 290.2V289.9H449.2C479.1 289.9 506.2 290 525.8 290H526V290.2C526 300.2 525.9 308.3 525.9 313.9C525.9 316.7 525.9 318.8 525.9 320.3C525.9 321 525.9 321.6 525.9 322C525.8 322.4 525.8 322.5 525.8 322.5Z" fill="#263238"/>
<path d="M498.8 322.2H422.1V355.4H498.8V322.2Z" fill="#F5F5F5"/>
<path d="M498.7 355.4C498.7 355.4 498.7 355.2 498.7 354.8C498.7 354.4 498.7 353.8 498.7 353.1C498.7 351.6 498.7 349.3 498.7 346.5C498.7 340.8 498.6 332.5 498.6 322.3L498.8 322.5C479.1 322.5 452 322.5 422.2 322.6L422.5 322.3C422.5 333.9 422.5 345.2 422.5 355.5L422.3 355.3C444.5 355.3 463.7 355.4 477.2 355.4C484 355.4 489.4 355.5 493.1 355.5C494.9 355.5 496.4 355.5 497.4 355.5C497.9 355.5 498.2 355.5 498.5 355.5C498.6 355.4 498.7 355.4 498.7 355.4C498.7 355.4 498.6 355.4 498.3 355.4C498 355.4 497.7 355.4 497.2 355.4C496.2 355.4 494.8 355.4 493 355.4C489.3 355.4 483.9 355.4 477.1 355.5C463.5 355.5 444.3 355.6 422 355.6H421.8V355.4C421.8 345.1 421.8 333.9 421.8 322.2V321.9H422.1C451.9 321.9 479 322 498.7 322H498.9V322.2C498.9 332.5 498.8 340.8 498.8 346.5C498.8 349.3 498.8 351.6 498.8 353.1C498.8 353.8 498.8 354.4 498.8 354.8C498.7 355.2 498.7 355.4 498.7 355.4Z" fill="#263238"/>
<path d="M303.6 32.5996H226.9V64.8996H303.6V32.5996Z" fill="#EBEBEB"/>
<path d="M303.501 64.8998C303.501 64.8998 303.501 64.6998 303.501 64.2998C303.501 63.8998 303.501 63.2998 303.501 62.5998C303.501 61.0998 303.501 58.8998 303.501 56.1998C303.501 50.5998 303.401 42.5998 303.401 32.5998L303.601 32.7998C283.901 32.7998 256.801 32.7998 227.001 32.8998L227.301 32.5998C227.301 43.8998 227.301 54.8998 227.301 64.8998L227.101 64.6998C249.301 64.6998 268.401 64.7998 282.001 64.7998C288.801 64.7998 294.201 64.8998 297.901 64.8998C299.701 64.8998 301.201 64.8998 302.201 64.8998C302.701 64.8998 303.001 64.8998 303.301 64.8998C303.401 64.8998 303.501 64.8998 303.501 64.8998C303.501 64.8998 303.401 64.8998 303.101 64.8998C302.801 64.8998 302.501 64.8998 302.001 64.8998C301.001 64.8998 299.601 64.8998 297.801 64.8998C294.101 64.8998 288.701 64.8998 281.901 64.9998C268.301 64.9998 249.101 65.0998 226.801 65.0998H226.601V64.8998C226.601 54.7998 226.601 43.8998 226.601 32.5998V32.2998H226.901C256.801 32.2998 283.901 32.3998 303.501 32.3998H303.701V32.5998C303.701 42.5998 303.601 50.6998 303.601 56.2998C303.601 59.0998 303.601 61.1998 303.601 62.6998C303.601 63.3998 303.601 63.9998 303.601 64.3998C303.501 64.6998 303.501 64.8998 303.501 64.8998Z" fill="#263238"/>
<path d="M264.801 64.8999H188.101V97.1999H264.801V64.8999Z" fill="#F5F5F5"/>
<path d="M264.8 97.2001C264.8 97.2001 264.8 97.0001 264.8 96.6001C264.8 96.2001 264.8 95.6001 264.8 94.9001C264.8 93.4001 264.8 91.2001 264.8 88.5001C264.8 82.9001 264.7 74.9001 264.7 64.9001L264.9 65.1001C245.2 65.1001 218.1 65.1001 188.3 65.2001L188.6 64.9001C188.6 76.2001 188.6 87.2001 188.6 97.2001L188.4 97.0001C210.6 97.0001 229.7 97.1001 243.3 97.1001C250.1 97.1001 255.5 97.2001 259.2 97.2001C261 97.2001 262.5 97.2001 263.5 97.2001C264 97.2001 264.3 97.2001 264.6 97.2001H264.8C264.8 97.2001 264.7 97.2001 264.4 97.2001C264.1 97.2001 263.8 97.2001 263.3 97.2001C262.3 97.2001 260.9 97.2001 259.1 97.2001C255.4 97.2001 250 97.2001 243.2 97.3001C229.6 97.3001 210.4 97.4001 188.1 97.4001H187.9V97.2001C187.9 87.1001 187.9 76.2001 187.9 64.9001V64.6001H188.2C218.1 64.6001 245.2 64.7001 264.8 64.7001H265V64.9001C265 74.9001 264.9 83.0001 264.9 88.6001C264.9 91.4001 264.9 93.5001 264.9 95.0001C264.9 95.7001 264.9 96.3001 264.9 96.7001C264.8 97.0001 264.8 97.2001 264.8 97.2001Z" fill="#263238"/>
<path d="M123.466 250.362L120.181 282.494L196.482 290.295L199.767 258.162L123.466 250.362Z" fill="#F5F5F5"/>
<path d="M196.5 290.2C196.5 290.2 196.5 290 196.5 289.6C196.5 289.2 196.6 288.6 196.7 287.9C196.8 286.4 197 284.3 197.3 281.5C197.8 275.9 198.6 267.9 199.6 258L199.8 258.2C180.2 256.2 153.3 253.5 123.5 250.5L123.8 250.3C122.6 261.6 121.5 272.4 120.5 282.4L120.3 282.1C142.4 284.4 161.4 286.4 174.9 287.8C181.7 288.5 187 289.1 190.8 289.5C192.6 289.7 194.1 289.9 195 290C195.5 290.1 195.8 290.1 196.1 290.1C196.4 290.2 196.5 290.2 196.5 290.2C196.5 290.2 196.4 290.2 196.1 290.2C195.8 290.2 195.5 290.1 195 290.1C194 290 192.6 289.9 190.8 289.7C187.1 289.3 181.7 288.8 175 288.2C161.4 286.8 142.3 284.9 120.2 282.7H120V282.5C121 272.5 122.1 261.6 123.3 250.3V250H123.6C153.3 253.1 180.3 255.8 199.8 257.9H200V258.1C198.9 268 198.1 276.1 197.5 281.7C197.2 284.5 197 286.6 196.8 288.1C196.7 288.8 196.7 289.4 196.6 289.7C196.5 290.1 196.5 290.2 196.5 290.2Z" fill="#263238"/>
<path d="M140.4 191.9H63.7002V224.2H140.4V191.9Z" fill="#EBEBEB"/>
<path d="M140.3 224.3C140.3 224.3 140.3 224.1 140.3 223.7C140.3 223.3 140.3 222.7 140.3 222C140.3 220.5 140.3 218.3 140.3 215.6C140.3 210 140.2 202 140.2 192L140.4 192.2C120.7 192.2 93.6004 192.2 63.8004 192.3L64.1004 192C64.1004 203.3 64.1004 214.3 64.1004 224.3L63.9004 224.1C86.1004 224.1 105.2 224.2 118.8 224.2C125.6 224.2 131 224.3 134.7 224.3C136.5 224.3 138 224.3 139 224.3C139.5 224.3 139.8 224.3 140.1 224.3C140.2 224.2 140.3 224.3 140.3 224.3C140.3 224.3 140.2 224.3 139.9 224.3C139.6 224.3 139.3 224.3 138.8 224.3C137.8 224.3 136.4 224.3 134.6 224.3C130.9 224.3 125.5 224.3 118.7 224.4C105.1 224.4 85.9004 224.5 63.6004 224.5H63.4004V224.3C63.4004 214.2 63.4004 203.3 63.4004 192V191.7H63.7004C93.6004 191.7 120.7 191.8 140.3 191.8H140.5V192C140.5 202 140.4 210.1 140.4 215.7C140.4 218.5 140.4 220.6 140.4 222.1C140.4 222.8 140.4 223.4 140.4 223.8C140.3 224.1 140.3 224.3 140.3 224.3Z" fill="#263238"/>
<path d="M160.4 160H83.7002V192.3H160.4V160Z" fill="#F5F5F5"/>
<path d="M160.4 192.3C160.4 192.3 160.4 192.1 160.4 191.7C160.4 191.3 160.4 190.7 160.4 190C160.4 188.5 160.4 186.3 160.4 183.6C160.4 178 160.3 170 160.3 160L160.5 160.2C140.8 160.2 113.7 160.2 83.9 160.3L84 160C84 171.3 84 182.3 84 192.3L83.8 192.1C106 192.1 125.1 192.2 138.7 192.2C145.5 192.2 150.9 192.3 154.6 192.3C156.4 192.3 157.9 192.3 158.9 192.3C159.4 192.3 159.7 192.3 160 192.3C160.2 192.3 160.4 192.3 160.4 192.3C160.4 192.3 160.3 192.3 160 192.3C159.7 192.3 159.4 192.3 158.9 192.3C157.9 192.3 156.5 192.3 154.7 192.3C151 192.3 145.6 192.3 138.8 192.4C125.2 192.4 106 192.5 83.7 192.5H83.5V192.3C83.5 182.2 83.5 171.3 83.5 160V159.7H83.8C113.7 159.7 140.8 159.8 160.4 159.8H160.6V160C160.6 170 160.5 178.1 160.5 183.7C160.5 186.5 160.5 188.6 160.5 190.1C160.5 190.8 160.5 191.4 160.5 191.8C160.4 192.2 160.4 192.3 160.4 192.3Z" fill="#263238"/>
<path d="M189.9 129.3H113.2V160.3H189.9V129.3Z" fill="#EBEBEB"/>
<path d="M189.9 160.3C189.9 160.3 189.9 160.1 189.9 159.7C189.9 159.3 189.9 158.8 189.9 158.1C189.9 156.7 189.9 154.6 189.9 151.9C189.9 146.5 189.8 138.8 189.8 129.2L190 129.4C170.5 129.4 143.4 129.4 113.4 129.5L113.7 129.2C113.7 140.1 113.7 150.5 113.7 160.2L113.5 160C135.7 160 154.8 160.1 168.4 160.1C175.2 160.1 180.6 160.2 184.4 160.2C186.3 160.2 187.7 160.2 188.7 160.2C189.2 160.2 189.5 160.2 189.8 160.2C189.8 160.3 189.9 160.3 189.9 160.3C189.9 160.3 189.8 160.3 189.5 160.3C189.2 160.3 188.9 160.3 188.4 160.3C187.4 160.3 186 160.3 184.2 160.3C180.5 160.3 175.1 160.3 168.3 160.4C154.7 160.4 135.5 160.5 113.2 160.5H113V160.3C113 150.6 113 140.1 113 129.3V129H113.3C143.3 129 170.5 129.1 189.9 129.1H190.1V129.3C190.1 138.9 190 146.7 190 152.1C190 154.8 190 156.8 190 158.2C190 158.9 190 159.4 190 159.8C189.9 160.2 189.9 160.3 189.9 160.3Z" fill="#263238"/>
<path d="M227.7 97H151V129.3H227.7V97Z" fill="#F5F5F5"/>
<path d="M227.7 129.3C227.7 129.3 227.7 129.1 227.7 128.7C227.7 128.3 227.7 127.7 227.7 127C227.7 125.5 227.7 123.3 227.7 120.6C227.7 115 227.6 107 227.6 97.0002L227.8 97.2002C208.1 97.2002 181 97.2002 151.2 97.3002L151.5 97.0002C151.5 108.3 151.5 119.3 151.5 129.3L151.3 129.1C173.5 129.1 192.6 129.2 206.2 129.2C213 129.2 218.4 129.3 222.1 129.3C223.9 129.3 225.4 129.3 226.4 129.3C226.9 129.3 227.2 129.3 227.5 129.3C227.6 129.3 227.7 129.3 227.7 129.3C227.7 129.3 227.6 129.3 227.3 129.3C227 129.3 226.7 129.3 226.2 129.3C225.2 129.3 223.8 129.3 222 129.3C218.3 129.3 212.9 129.3 206.1 129.4C192.5 129.4 173.3 129.5 151 129.5H150.8V129.3C150.8 119.2 150.8 108.3 150.8 97.0002V96.7002H151.1C181 96.7002 208.1 96.8002 227.7 96.8002H227.9V97.0002C227.9 107 227.8 115.1 227.8 120.7C227.8 123.5 227.8 125.6 227.8 127.1C227.8 127.8 227.8 128.4 227.8 128.8C227.7 129.1 227.7 129.3 227.7 129.3Z" fill="#263238"/>
<path d="M381.301 355.399H304.601V387.699H381.301V355.399Z" fill="#F5F5F5"/>
<path d="M381.3 387.7C381.3 387.7 381.3 387.5 381.3 387.1C381.3 386.7 381.3 386.1 381.3 385.4C381.3 383.9 381.3 381.7 381.3 379C381.3 373.4 381.2 365.4 381.2 355.4L381.4 355.6C361.7 355.6 334.6 355.6 304.8 355.7L305.1 355.4C305.1 366.7 305.1 377.7 305.1 387.7L304.9 387.5C327.1 387.5 346.2 387.6 359.8 387.6C366.6 387.6 372 387.7 375.7 387.7C377.5 387.7 379 387.7 380 387.7C380.5 387.7 380.8 387.7 381.1 387.7C381.2 387.7 381.3 387.7 381.3 387.7C381.3 387.7 381.2 387.7 380.9 387.7C380.6 387.7 380.3 387.7 379.8 387.7C378.8 387.7 377.4 387.7 375.6 387.7C371.9 387.7 366.5 387.7 359.7 387.8C346.1 387.8 326.9 387.9 304.6 387.9H304.4V387.7C304.4 377.6 304.4 366.7 304.4 355.4V355.1H304.7C334.6 355.1 361.7 355.2 381.3 355.2H381.5V355.4C381.5 365.4 381.4 373.5 381.4 379.1C381.4 381.9 381.4 384 381.4 385.5C381.4 386.2 381.4 386.8 381.4 387.2C381.3 387.5 381.3 387.7 381.3 387.7Z" fill="#263238"/>
<path d="M457.4 355.399H380.7V387.699H457.4V355.399Z" fill="#EBEBEB"/>
<path d="M457.4 387.7C457.4 387.7 457.4 387.5 457.4 387.1C457.4 386.7 457.4 386.1 457.4 385.4C457.4 383.9 457.4 381.7 457.4 379C457.4 373.4 457.3 365.4 457.3 355.4L457.5 355.6C437.8 355.6 410.7 355.6 380.9 355.7L381.2 355.4C381.2 366.7 381.2 377.7 381.2 387.7L381 387.5C403.2 387.5 422.3 387.6 435.9 387.6C442.7 387.6 448.1 387.7 451.8 387.7C453.6 387.7 455.1 387.7 456.1 387.7C456.6 387.7 456.9 387.7 457.2 387.7H457.4C457.4 387.7 457.3 387.7 457 387.7C456.7 387.7 456.4 387.7 455.9 387.7C454.9 387.7 453.5 387.7 451.7 387.7C448 387.7 442.6 387.7 435.8 387.8C422.2 387.8 403 387.9 380.7 387.9H380.5V387.7C380.5 377.6 380.5 366.7 380.5 355.4V355.1H380.8C410.7 355.1 437.8 355.2 457.4 355.2H457.6V355.4C457.6 365.4 457.5 373.5 457.5 379.1C457.5 381.9 457.5 384 457.5 385.5C457.5 386.2 457.5 386.8 457.5 387.2C457.4 387.5 457.4 387.7 457.4 387.7Z" fill="#263238"/>
<path d="M304.801 355.399H228.101V387.699H304.801V355.399Z" fill="#EBEBEB"/>
<path d="M304.8 387.7C304.8 387.7 304.8 387.5 304.8 387.1C304.8 386.7 304.8 386.1 304.8 385.4C304.8 383.9 304.8 381.7 304.8 379C304.8 373.4 304.7 365.4 304.7 355.4L304.9 355.6C285.2 355.6 258.1 355.6 228.3 355.7L228.6 355.4C228.6 366.7 228.6 377.7 228.6 387.7L228.4 387.5C250.6 387.5 269.7 387.6 283.3 387.6C290.1 387.6 295.5 387.7 299.2 387.7C301 387.7 302.5 387.7 303.5 387.7C304 387.7 304.3 387.7 304.6 387.7H304.8C304.8 387.7 304.7 387.7 304.4 387.7C304.1 387.7 303.8 387.7 303.3 387.7C302.3 387.7 300.9 387.7 299.1 387.7C295.4 387.7 290 387.7 283.2 387.8C269.6 387.8 250.4 387.9 228.1 387.9H227.9V387.7C227.9 377.6 227.9 366.7 227.9 355.4V355.1H228.2C258.1 355.1 285.2 355.2 304.8 355.2H305V355.4C305 365.4 304.9 373.5 304.9 379.1C304.9 381.9 304.9 384 304.9 385.5C304.9 386.2 304.9 386.8 304.9 387.2C304.8 387.5 304.8 387.7 304.8 387.7Z" fill="#263238"/>
<path d="M271.3 322.899H194.6V355.199H271.3V322.899Z" fill="#F5F5F5"/>
<path d="M271.2 355.2C271.2 355.2 271.2 355 271.2 354.6C271.2 354.2 271.2 353.6 271.2 352.9C271.2 351.4 271.2 349.2 271.2 346.5C271.2 340.9 271.1 332.9 271.1 322.9L271.3 323.1C251.6 323.1 224.5 323.1 194.7 323.2L195 322.9C195 334.2 195 345.2 195 355.2L194.8 355C217 355 236.1 355.1 249.7 355.1C256.5 355.1 261.9 355.2 265.6 355.2C267.4 355.2 268.9 355.2 269.9 355.2C270.4 355.2 270.7 355.2 271 355.2C271.1 355.2 271.2 355.2 271.2 355.2C271.2 355.2 271.1 355.2 270.8 355.2C270.5 355.2 270.2 355.2 269.7 355.2C268.7 355.2 267.3 355.2 265.5 355.2C261.8 355.2 256.4 355.2 249.6 355.3C236 355.3 216.8 355.4 194.5 355.4H194.3V355.2C194.3 345.1 194.3 334.2 194.3 322.9V322.6H194.6C224.5 322.6 251.6 322.7 271.2 322.7H271.4V322.9C271.4 332.9 271.3 341 271.3 346.6C271.3 349.4 271.3 351.5 271.3 353C271.3 353.7 271.3 354.3 271.3 354.7C271.2 355 271.2 355.2 271.2 355.2Z" fill="#263238"/>
<path d="M400.5 387.7H323.8V420H400.5V387.7Z" fill="#F5F5F5"/>
<path d="M400.4 420C400.4 420 400.4 419.8 400.4 419.4C400.4 419 400.4 418.4 400.4 417.7C400.4 416.2 400.4 414 400.4 411.3C400.4 405.7 400.3 397.7 400.3 387.7L400.5 387.9C380.8 387.9 353.7 387.9 323.9 388L324.2 387.7C324.2 399 324.2 410 324.2 420L324 419.8C346.2 419.8 365.3 419.9 378.9 419.9C385.7 419.9 391.1 420 394.8 420C396.6 420 398.1 420 399.1 420C399.6 420 399.9 420 400.2 420C400.3 420 400.4 420 400.4 420C400.4 420 400.3 420 400 420C399.7 420 399.4 420 398.9 420C397.9 420 396.5 420 394.7 420C391 420 385.6 420 378.8 420.1C365.2 420.1 346 420.2 323.7 420.2H323.5V420C323.5 409.9 323.5 399 323.5 387.7V387.4H323.8C353.7 387.4 380.8 387.5 400.4 387.5H400.6V387.7C400.6 397.7 400.5 405.8 400.5 411.4C400.5 414.2 400.5 416.3 400.5 417.8C400.5 418.5 400.5 419.1 400.5 419.5C400.4 419.9 400.4 420 400.4 420Z" fill="#263238"/>
<path d="M379.8 399.1C379.9 399.2 373.4 402 365.3 405.3C357.3 408.6 350.7 411.1 350.6 411C350.5 410.9 357 408.1 365.1 404.8C373.1 401.5 379.7 399 379.8 399.1Z" fill="#263238"/>
<path d="M369.3 398.2C369.3 398.3 366.4 399.5 362.6 400.9C358.9 402.2 355.8 403.2 355.8 403.1C355.8 403 358.7 401.8 362.5 400.4C366.2 399 369.2 398.1 369.3 398.2Z" fill="#263238"/>
<path d="M438.7 367.8C438.7 367.9 431.8 370.6 423.2 373.8C414.6 377 407.6 379.4 407.5 379.3C407.5 379.2 414.4 376.5 423 373.3C431.7 370.2 438.7 367.7 438.7 367.8Z" fill="#263238"/>
<path d="M424.901 368.5C424.901 368.6 422.901 369.3 420.301 370.1C417.701 370.8 415.601 371.3 415.601 371.2C415.601 371.1 417.601 370.4 420.201 369.6C422.801 368.8 424.901 368.3 424.901 368.5Z" fill="#263238"/>
<path d="M488.2 372.4C488.2 372.5 487.1 372.8 485.3 373.4C483.5 374 481.1 374.8 478.4 375.8C475.7 376.8 473.3 377.7 471.6 378.4C469.9 379.1 468.8 379.5 468.8 379.4C468.8 379.3 469.8 378.8 471.5 378C473.2 377.2 475.6 376.2 478.3 375.3C481 374.3 483.5 373.6 485.3 373.1C487.1 372.6 488.2 372.4 488.2 372.4Z" fill="#263238"/>
<path d="M475.9 335.5C475.9 335.6 471 337.6 464.8 339.9C458.6 342.2 453.5 343.9 453.5 343.8C453.5 343.7 458.4 341.7 464.6 339.4C470.8 337.1 475.8 335.4 475.9 335.5Z" fill="#263238"/>
<path d="M467.9 332.9C467.9 333 465.5 333.8 462.5 334.7C459.5 335.6 457 336.1 456.9 336C456.9 335.9 459.3 335.1 462.3 334.2C465.4 333.3 467.9 332.7 467.9 332.9Z" fill="#263238"/>
<path d="M503.6 306.5C503.6 306.6 499.6 307.8 494.5 309.1C489.4 310.4 485.3 311.4 485.3 311.2C485.3 311 489.3 309.9 494.4 308.6C499.4 307.3 503.5 306.4 503.6 306.5Z" fill="#263238"/>
<path d="M559 268.4C559.1 268.5 554.5 270.5 548.8 272.7C543.1 275 538.5 276.7 538.4 276.5C538.3 276.4 542.9 274.4 548.6 272.2C554.3 270 559 268.3 559 268.4Z" fill="#263238"/>
<path d="M566.7 272.5C566.7 272.6 561 274.6 553.8 276.8C546.6 279.1 540.8 280.8 540.7 280.6C540.7 280.5 546.4 278.5 553.6 276.3C560.8 274.1 566.6 272.4 566.7 272.5Z" fill="#263238"/>
<path d="M121.1 258.2H72.2002V290.5H121.1V258.2Z" fill="#EBEBEB"/>
<path d="M121.1 290.5C121.1 290.5 121.1 290.3 121.1 289.9C121.1 289.5 121.1 288.9 121.1 288.2C121.1 286.7 121.1 284.5 121 281.7C121 276.1 120.9 268 120.9 258.2L121.1 258.4C107.6 258.4 90.6 258.4 72.2 258.5C72.1 258.6 72.7 258 72.5 258.2V258.3V258.4V258.7V259.2V260.3C72.5 261 72.5 261.7 72.5 262.4C72.5 263.8 72.5 265.2 72.5 266.6C72.5 269.4 72.5 272.2 72.5 274.9C72.5 280.3 72.5 285.5 72.5 290.5L72.3 290.3C86.7 290.3 98.9 290.4 107.5 290.4C111.8 290.4 115.2 290.4 117.6 290.5C118.8 290.5 119.7 290.5 120.3 290.5C120.6 290.5 120.8 290.5 121 290.5H121.1C121.1 290.5 121 290.5 120.9 290.5C120.7 290.5 120.5 290.5 120.2 290.5C119.6 290.5 118.7 290.5 117.6 290.5C115.2 290.5 111.8 290.5 107.6 290.6C98.9 290.6 86.7 290.7 72.3 290.7H72.1V290.5C72.1 285.6 72.1 280.4 72.1 274.9C72.1 272.2 72.1 269.4 72.1 266.6C72.1 265.2 72.1 263.8 72.1 262.4C72.1 261.7 72.1 261 72.1 260.3V259.2V258.7V258.4V258.3V258.2C71.9 258.4 72.4 257.9 72.4 257.9C90.9 257.9 107.9 257.9 121.3 258H121.5V258.2C121.5 268.1 121.4 276.2 121.4 281.8C121.4 284.6 121.4 286.8 121.3 288.3C121.3 289 121.3 289.6 121.3 290C121.1 290.3 121.1 290.5 121.1 290.5Z" fill="#263238"/>
<path d="M117.6 224.3H40.9004V258.2H117.6V224.3Z" fill="#F5F5F5"/>
<path d="M117.6 258.2C117.6 258.2 117.6 258 117.6 257.6C117.6 257.2 117.6 256.6 117.6 255.8C117.6 254.2 117.6 252 117.6 249C117.6 243.1 117.5 234.7 117.5 224.2L117.7 224.4C97.9002 224.4 70.9002 224.4 41.1002 224.5L41.4002 224.2C41.4002 236.1 41.4002 247.6 41.4002 258.1L41.2002 257.9C63.4002 257.9 82.6002 258 96.2002 258C103 258 108.4 258.1 112.1 258.1C113.9 258.1 115.4 258.1 116.4 258.1C116.9 258.1 117.2 258.1 117.5 258.1C117.4 258.2 117.6 258.2 117.6 258.2C117.6 258.2 117.5 258.2 117.2 258.2C116.9 258.2 116.6 258.2 116.1 258.2C115.1 258.2 113.7 258.2 111.9 258.2C108.2 258.2 102.8 258.2 96.0002 258.3C82.4002 258.3 63.2002 258.4 40.9002 258.4H40.7002V258.2C40.7002 247.7 40.7002 236.2 40.7002 224.3V224H41.0002C70.8002 224 97.9002 224.1 117.6 224.1H117.8V224.3C117.8 234.8 117.7 243.3 117.7 249.2C117.7 252.1 117.7 254.4 117.7 255.9C117.7 256.6 117.7 257.2 117.7 257.6C117.6 258 117.6 258.2 117.6 258.2Z" fill="#263238"/>
<path d="M564.3 207.7C564.3 207.7 564 207.9 563.4 208.2C562.7 208.5 561.9 208.9 560.9 209.4C558.8 210.4 556 211.8 552.8 213.4C549.7 215 546.8 216.5 544.8 217.6C543.9 218.1 543 218.5 542.4 218.9C541.8 219.2 541.5 219.3 541.5 219.3C541.5 219.3 541.8 219.1 542.3 218.7C542.8 218.4 543.6 217.9 544.6 217.3C546.6 216.1 549.4 214.6 552.6 213C555.8 211.4 558.7 210.1 560.8 209.1C561.9 208.6 562.7 208.3 563.3 208C564 207.8 564.3 207.7 564.3 207.7Z" fill="#263238"/>
<path d="M557.4 206.9C557.5 207 555.2 208.2 552.3 209.6C549.4 211 547.1 212 547 211.8C546.9 211.7 549.2 210.5 552.1 209.1C555 207.8 557.3 206.8 557.4 206.9Z" fill="#263238"/>
<path d="M94.9 238.4C94.9 238.5 90 240.5 83.8 242.8C77.6 245.1 72.5 246.8 72.5 246.7C72.5 246.6 77.4 244.6 83.6 242.3C89.8 240 94.9 238.3 94.9 238.4Z" fill="#263238"/>
<path d="M87 235.8C87 235.9 84.6 236.7 81.6 237.6C78.6 238.5 76.1 239 76 238.9C76 238.8 78.4 238 81.4 237.1C84.5 236.2 87 235.6 87 235.8Z" fill="#263238"/>
<path d="M247.001 336C247.001 336.1 242.101 338.1 235.901 340.4C229.701 342.7 224.601 344.4 224.601 344.3C224.601 344.2 229.501 342.2 235.701 339.9C241.901 337.6 247.001 335.9 247.001 336Z" fill="#263238"/>
<path d="M239.101 333.4C239.101 333.5 236.701 334.3 233.701 335.2C230.701 336.1 228.201 336.6 228.101 336.5C228.101 336.4 230.501 335.6 233.501 334.7C236.501 333.8 239.001 333.2 239.101 333.4Z" fill="#263238"/>
<path d="M141.6 306.8C141.6 306.9 136.7 308.9 130.5 311.2C124.3 313.5 119.2 315.2 119.2 315.1C119.2 315 124.1 313 130.3 310.7C136.5 308.4 141.5 306.6 141.6 306.8Z" fill="#263238"/>
<path d="M133.601 304.101C133.601 304.201 131.201 305 128.201 305.9C125.201 306.8 122.701 307.301 122.601 307.201C122.601 307.101 125.001 306.3 128.001 305.4C131.101 304.5 133.601 304.001 133.601 304.101Z" fill="#263238"/>
<path d="M136.4 175.3C136.4 175.4 131.5 177.4 125.3 179.7C119.1 182 114 183.7 114 183.6C114 183.5 118.9 181.5 125.1 179.2C131.3 176.9 136.3 175.1 136.4 175.3Z" fill="#263238"/>
<path d="M128.4 172.6C128.4 172.7 126 173.5 123 174.4C120 175.3 117.5 175.8 117.4 175.7C117.4 175.6 119.8 174.8 122.8 173.9C125.9 173 128.4 172.5 128.4 172.6Z" fill="#263238"/>
<path d="M465.7 77.8001C465.7 77.9001 460.8 79.9001 454.6 82.2001C448.4 84.5001 443.3 86.2001 443.3 86.1001C443.3 86.0001 448.2 84.0001 454.4 81.7001C460.6 79.4001 465.6 77.7001 465.7 77.8001Z" fill="#263238"/>
<path d="M457.8 75.2002C457.8 75.3002 455.4 76.1002 452.4 77.0002C449.4 77.9002 446.9 78.4002 446.8 78.3002C446.8 78.2002 449.2 77.4002 452.2 76.5002C455.2 75.6002 457.7 75.0002 457.8 75.2002Z" fill="#263238"/>
<path d="M326.3 12.2999C326.3 12.3999 321.4 14.3999 315.2 16.6999C309 18.9999 303.9 20.6999 303.9 20.5999C303.9 20.4999 308.8 18.4999 315 16.1999C321.2 13.8999 326.2 12.0999 326.3 12.2999Z" fill="#263238"/>
<path d="M318.301 9.60002C318.301 9.70002 315.901 10.5 312.901 11.4C309.901 12.3 307.401 12.8 307.301 12.7C307.301 12.6 309.701 11.8 312.701 10.9C315.801 10 318.301 9.50002 318.301 9.60002Z" fill="#263238"/>
<path d="M239.6 80.7999C239.6 80.8999 234.7 82.8999 228.5 85.1999C222.3 87.4999 217.2 89.1999 217.2 89.0999C217.2 88.9999 222.1 86.9999 228.3 84.6999C234.4 82.3999 239.5 80.5999 239.6 80.7999Z" fill="#263238"/>
<path d="M231.601 78.0998C231.601 78.1998 229.201 78.9998 226.201 79.8998C223.201 80.7998 220.701 81.2998 220.601 81.1998C220.601 81.0998 223.001 80.2998 226.001 79.3998C229.101 78.5998 231.601 77.9998 231.601 78.0998Z" fill="#263238"/>
<path d="M353.3 194.501L335.1 214.801L312.4 234.101L301.4 216.101L302.7 199.001L303.8 184.701C303.8 184.701 285 180.601 285.9 161.501C286.4 152.301 288.8 133.501 291.3 116.401C293.9 98.1005 310.2 84.9005 328.7 86.0005L330.5 86.1005C350.2 88.5005 359.2 106.601 356.3 126.201L353.3 194.501Z" fill="#FFBE9D"/>
<path d="M303.8 184.8C303.8 184.8 315.8 186.5 329 179.3C329 179.3 322.3 192.6 303.4 189.7L303.8 184.8Z" fill="#EB996E"/>
<path d="M297.8 133.7C297.7 135.1 298.8 136.4 300.2 136.6C301.7 136.8 303 135.8 303.2 134.3C303.3 132.9 302.2 131.6 300.8 131.4C299.2 131.3 297.9 132.3 297.8 133.7Z" fill="#263238"/>
<path d="M294.601 127.7C294.901 128.1 297.101 126.7 300.001 126.9C302.901 127 305.001 128.7 305.301 128.3C305.501 128.2 305.201 127.5 304.301 126.8C303.401 126.1 301.901 125.3 300.101 125.2C298.301 125.1 296.701 125.7 295.801 126.3C294.801 126.9 294.401 127.6 294.601 127.7Z" fill="#263238"/>
<path d="M325.6 133.7C325.5 135.1 326.6 136.4 328 136.6C329.5 136.8 330.8 135.8 331 134.3C331.1 132.9 330 131.6 328.6 131.4C327.1 131.3 325.8 132.3 325.6 133.7Z" fill="#263238"/>
<path d="M323.701 125.3C324.001 125.7 326.301 124.6 329.101 125.1C332.001 125.6 333.801 127.4 334.201 127.1C334.401 127 334.201 126.3 333.301 125.5C332.501 124.7 331.101 123.8 329.301 123.5C327.501 123.2 325.901 123.6 324.901 124.1C324.001 124.5 323.601 125.1 323.701 125.3Z" fill="#263238"/>
<path d="M311.501 149.5C311.501 149.3 309.701 148.9 306.801 148.3C306.101 148.2 305.401 148 305.301 147.5C305.201 146.9 305.501 146.2 305.901 145.3C306.701 143.5 307.601 141.7 308.501 139.8C312.101 131.9 314.701 125.4 314.401 125.2C314.101 125.1 310.901 131.3 307.401 139.2C306.501 141.1 305.701 143 304.901 144.8C304.601 145.6 304.001 146.6 304.301 147.7C304.501 148.3 305.001 148.7 305.501 148.9C306.001 149.1 306.401 149.1 306.801 149.2C309.701 149.5 311.501 149.6 311.501 149.5Z" fill="#263238"/>
<path d="M323.701 120.9C324.201 121.6 326.901 120.2 330.201 119.5C333.601 118.7 336.501 118.7 336.701 117.9C336.801 117.5 336.101 117 334.801 116.6C333.501 116.2 331.601 116.2 329.601 116.6C327.601 117.1 325.901 118 324.901 118.9C323.801 119.8 323.401 120.6 323.701 120.9Z" fill="#FF725E"/>
<path d="M294.9 123.2C295.4 124 297.9 123.8 300.8 124.3C303.7 124.7 306 125.8 306.7 125.2C307 124.9 306.8 124.2 305.8 123.4C304.9 122.6 303.2 121.7 301.3 121.4C299.3 121.1 297.5 121.3 296.4 121.8C295.2 122.2 294.7 122.8 294.9 123.2Z" fill="#FF725E"/>
<path d="M353.8 140.4C354.1 140.3 367.1 137.4 365.9 150.3C364.7 163.3 351.9 159.4 351.9 159C351.9 158.6 353.8 140.4 353.8 140.4Z" fill="#FFBE9D"/>
<path d="M356.301 154.501C356.401 154.501 356.501 154.701 356.901 154.901C357.301 155.101 357.901 155.301 358.601 155.101C360.001 154.701 361.401 152.701 361.701 150.301C361.801 149.101 361.701 148.001 361.401 147.001C361.101 146.001 360.501 145.301 359.901 145.101C359.201 144.901 358.701 145.201 358.501 145.601C358.301 145.901 358.301 146.201 358.301 146.201C358.301 146.201 358.001 146.001 358.201 145.401C358.301 145.101 358.501 144.901 358.801 144.601C359.101 144.401 359.601 144.301 360.101 144.401C361.101 144.601 361.901 145.601 362.301 146.601C362.701 147.701 362.901 149.001 362.701 150.301C362.401 152.901 360.801 155.201 358.901 155.601C358.001 155.801 357.201 155.401 356.901 155.101C356.301 154.801 356.301 154.501 356.301 154.501Z" fill="#EB996E"/>
<path d="M290.6 94.2003C291.3 91.7003 293.3 89.4003 295.9 89.2003C295 86.7003 296 83.6003 298.2 82.2003C300.4 80.7003 303.6 81.1003 305.6 82.9003C305.7 78.9003 310.8 76.0003 314.2 78.0003C314.2 75.7003 316 73.5003 318.2 73.0003C320.5 72.5003 323 73.7003 324 75.8003C327 71.3003 334.7 71.2003 337.8 75.5003C343.1 74.0003 349.3 77.2003 351.1 82.4003C355.3 82.9003 359.1 86.2003 360.1 90.4003C362.8 90.8003 365.2 92.7003 366.3 95.3003C367.3 97.8003 366.9 100.9 365.2 103.1C368.4 104.9 368.7 110.1 365.8 112.3C367.7 113.4 368.8 115.6 368.7 117.7C368.5 119.8 367 121.8 365 122.6C366.9 123 367.5 125.5 366.8 127.3C366.1 129.1 364.6 130.5 363.8 132.2C363.1 133.6 362.8 135.2 362.2 136.7C361 139.5 358.6 141.6 355.7 142.4C355.8 142.5 355.9 142.7 356 142.8C356.2 144.5 353.8 145.5 352.3 144.7C350.8 143.9 350 142.3 349.2 140.8C348.3 139.1 347.1 137.4 346.8 135.5C346.4 133.6 347.1 131.3 348.9 130.5C346.7 129.6 345.4 127.2 345.1 124.9C344.8 122.5 345.4 120.2 345.9 117.9C346.7 114.5 347.6 111.1 348.4 107.7C343.7 107.3 339.4 104 337.6 99.6003C334.1 102 328.5 100.3 327 96.3003C325.2 100.9 319.4 103.4 314.8 101.6C315.1 104.3 310.2 106.5 307.5 107.1C304.8 107.6 301.6 105.6 301.6 105.6C301.6 105.6 296.9 108 294.5 106.9C292.1 105.8 289 102.4 290.8 100C290.8 99.9003 289.8 96.7003 290.6 94.2003Z" fill="#FF725E"/>
<path d="M286.8 151.2C288.8 149.8 292.1 151 292.7 153.4C293.9 151.9 295.9 151.1 297.8 151.5C299.7 151.9 301.2 153.4 301.7 155.2C302.6 152.5 307 151.9 308.7 154.3C309.4 153.2 311 152.6 312.3 153C312.2 151.7 312.9 150.4 314.1 149.8C315.2 149.2 316.7 149.4 317.7 150.3C319.2 147.7 323.3 147.2 325.5 149.3C325.9 148.1 327.2 147.3 328.4 147.4C329.7 147.5 330.8 148.5 331 149.7C332.3 148.1 334.7 147.6 336.5 148.5C336.5 146.6 338.7 145.1 340.5 145.7C340.1 144.1 342.5 143.4 343.7 142.3C344.3 141.8 344.6 141.1 345.2 140.7C345.8 140.3 346.8 140.2 347.2 140.8C346.9 139.5 347.8 138.1 349 137.7C350.3 137.3 351.8 138 352.3 139.2C352.6 139.9 352.6 140.7 352.7 141.5C353 144 354.3 147 352.4 148.7C352.1 149 351.6 149.2 351.5 149.7C351.2 150.4 351.9 151.1 352 151.9C352 152.8 351.2 153.4 350.8 154.2C350.2 155.4 350.7 156.8 350.7 158.1C350.7 159.4 350 161 348.7 160.9C349.6 162.8 348.9 165.4 347.1 166.5C348 168.7 346.6 171.6 344.3 172.3C345.1 173 345 174.4 344.4 175.3C343.7 176.2 342.7 176.7 341.7 177.1C342.6 177.6 342.7 179 342.1 179.8C341.5 180.6 340.5 181 339.5 181.3C339.1 181.4 338.6 181.5 338.3 181.9C337.8 182.6 338.4 183.5 338.3 184.3C338.1 185.5 336.3 185.8 335.7 187C335.2 188 335.8 189.4 334.9 190.2C334.4 190.7 333.5 190.6 332.8 190.8C331.6 191.2 331 192.5 330.2 193.6C328.7 195.5 326.2 196.3 323.8 196.8C322.6 197.1 321.4 197.3 320.1 197.5C317.7 197.9 315.2 198.1 312.7 198.3C311.5 198.4 310 198.4 309.4 197.3C307.6 199.3 303.8 198.7 302.7 196.3C300.5 196.8 298.2 195.8 296.2 194.8C295.5 194.5 294.8 194.1 294.1 193.8C292 192.8 289.6 191.5 289.1 189.2C286.3 188.7 284.6 185.1 285.9 182.6C284.9 182.8 284 181.8 283.9 180.8C283.8 179.8 284.2 178.8 284.4 177.8C285.3 173.7 283.3 169.5 284 165.4C284.5 162.5 286.3 159.8 285.6 156.9C285.4 156.3 285.2 155.7 285.3 155.2C285.4 154.6 285.9 154 286.5 154.2C285.8 152.5 287.5 150.4 289.3 150.8" fill="#FF725E"/>
<g opacity="0.3">
<g opacity="0.3">
<g opacity="0.3">
<g opacity="0.3">
<g opacity="0.3">
<path opacity="0.3" d="M337.801 175C337.601 174.9 339.101 172.1 339.201 168.3C339.401 164.5 338.301 161.5 338.501 161.5C338.601 161.5 338.901 162.2 339.201 163.4C339.501 164.6 339.801 166.4 339.701 168.3C339.601 170.2 339.101 172 338.701 173.1C338.301 174.4 337.901 175 337.801 175Z" fill="black"/>
</g>
</g>
</g>
</g>
</g>
<g opacity="0.3">
<g opacity="0.3">
<g opacity="0.3">
<g opacity="0.3">
<g opacity="0.3">
<path opacity="0.3" d="M341 170.5C340.9 170.4 341.4 170 341.8 169.1C342.2 168.2 342.3 166.8 342.2 165.3C342.1 162.2 341.3 159.8 341.4 159.8C341.5 159.7 342.5 162.1 342.7 165.3C342.8 166.9 342.6 168.4 342.1 169.3C341.6 170.2 341 170.6 341 170.5Z" fill="black"/>
</g>
</g>
</g>
</g>
</g>
<g opacity="0.3">
<g opacity="0.3">
<g opacity="0.3">
<g opacity="0.3">
<g opacity="0.3">
<path opacity="0.3" d="M307.1 189.001C307.1 189.001 306.5 188.401 305.8 187.201C305.1 186.001 304.4 184.201 304.1 182.101C303.8 180.001 304.1 178.101 304.5 176.701C304.9 175.401 305.3 174.601 305.3 174.601C305.4 174.601 305.1 175.401 304.8 176.701C304.5 178.001 304.3 179.901 304.6 181.901C304.9 183.901 305.5 185.701 306.1 186.901C306.7 188.201 307.2 188.901 307.1 189.001Z" fill="black"/>
</g>
</g>
</g>
</g>
</g>
<g opacity="0.3">
<g opacity="0.3">
<g opacity="0.3">
<g opacity="0.3">
<g opacity="0.3">
<path opacity="0.3" d="M310.5 188.9C310.4 189 308.6 187.1 307.9 184.1C307.1 181.1 307.8 178.5 307.9 178.6C308.1 178.6 307.6 181.1 308.4 184C309.1 186.8 310.6 188.8 310.5 188.9Z" fill="black"/>
</g>
</g>
</g>
</g>
</g>
<g opacity="0.3">
<g opacity="0.3">
<g opacity="0.3">
<g opacity="0.3">
<g opacity="0.3">
<path opacity="0.3" d="M316.4 187.901C316.4 188.001 315.8 187.801 315.1 187.201C314.3 186.701 313.4 185.701 312.7 184.501C312 183.301 311.7 182.001 311.6 181.101C311.5 180.201 311.6 179.601 311.7 179.601C311.9 179.601 311.8 181.901 313.2 184.301C314.5 186.601 316.5 187.801 316.4 187.901Z" fill="black"/>
</g>
</g>
</g>
</g>
</g>
<path d="M310 158.7C312.2 157.6 313.5 156.8 315.7 155.8C316.7 155.3 318 154.8 319 155.3C319.7 155.7 320.1 156.5 320.2 157.3C320.4 158.6 320 159.8 319.3 160.9C318.6 162 317.6 162.8 316.6 163.6C315.4 164.5 313.9 165.3 312.5 164.9C311.4 164.6 310.6 163.6 310.3 162.5C309.9 161.4 310 160.2 310 159.1" fill="white"/>
<path d="M321.301 154.4C321.201 153.6 320.401 153.2 319.601 152.9C318.401 152.4 317.101 151.8 315.801 152.1C314.701 152.3 313.701 153.1 312.701 153.7C311.101 154.6 309.301 155 307.501 154.8H307.201C306.901 155.8 306.701 156.8 306.901 157.8C307.201 158.8 307.901 159.7 308.901 159.8C309.901 159.9 311.001 159 310.801 158C311.201 158.6 311.901 159 312.701 159C313.401 158.9 314.101 158.4 314.301 157.7C315.501 158.5 317.401 157.6 317.601 156.2C318.401 156.4 319.201 156.6 320.001 156.4C320.801 156 321.501 155.2 321.301 154.4Z" fill="#FF725E"/>
<path d="M168.1 113.5C168.1 113.5 168 113.6 167.9 113.7C167.7 113.9 167.5 114 167.3 114.2C166.8 114.6 166 115.3 165.1 116.1C164.2 116.9 163.2 118 162.3 119.3C161.4 120.6 160.7 122.3 160.5 124.1C160.3 125.9 160.4 127.7 160.5 129.3C160.6 130.9 160.5 132.4 160.3 133.6C160.1 134.8 159.7 135.7 159.4 136.3C159.1 136.9 158.8 137.2 158.8 137.2C158.8 137.2 159 136.9 159.3 136.3C159.6 135.7 160 134.8 160.1 133.6C160.3 132.4 160.3 131 160.2 129.4C160.1 127.8 160 126 160.2 124.2C160.4 122.3 161.1 120.6 162 119.3C162.9 118 164 116.9 164.8 116.1C165.7 115.3 166.5 114.7 167 114.3C167.2 114.1 167.4 114 167.6 113.8C168 113.6 168.1 113.5 168.1 113.5Z" fill="#263238"/>
<path d="M177.2 105.4C177.2 105.4 177.1 105.5 177 105.6C176.8 105.8 176.7 105.9 176.5 106.1C176.1 106.5 175.4 107.2 174.7 108.1C174 109 173.2 110.1 172.5 111.4C171.8 112.7 171 114.2 170.4 115.8C169.8 117.4 169.4 119 169.1 120.5C168.8 122 168.7 123.3 168.6 124.4C168.5 125.5 168.5 126.4 168.6 127.1C168.6 127.4 168.6 127.6 168.6 127.8C168.6 128 168.6 128.1 168.6 128.1C168.6 128.1 168.4 126.7 168.4 124.4C168.4 123.3 168.6 121.9 168.8 120.4C169.1 118.9 169.5 117.3 170.1 115.7C170.7 114.1 171.5 112.6 172.2 111.3C173 110 173.8 108.9 174.5 108C176.1 106.3 177.2 105.4 177.2 105.4Z" fill="#263238"/>
<path d="M239.6 228.4C239.6 228.4 225.1 206.9 219.3 201.5C213.6 196.1 177.5 147.5 177.5 147.5L158.6 163.7C158.6 163.7 185.3 218.4 192 231.9C198.7 245.4 210.6 260.9 214.9 265.3C219.3 269.7 247 272.7 247 272.7C247 272.7 241.4 237.5 239.6 228.4Z" fill="#FFBE9D"/>
<path d="M127 149.8L214.4 72.8003L220.8 80.4003L135.1 159.2C135.1 159.1 127.7 156.9 127 149.8Z" fill="#01AAED"/>
<path d="M136.9 157.4C136.9 157.4 136.8 157.2 136.8 156.9C136.7 156.4 136.6 156 136.5 155.4C136.3 154.2 135.9 152.5 135.5 150.6C135 148.8 134.5 147.1 134.1 145.9C133.9 145.4 133.8 145 133.6 144.5C133.5 144.2 133.4 144 133.4 144C133.4 144 133.5 144.2 133.6 144.5C133.7 144.8 133.9 145.3 134.2 145.9C134.6 147.1 135.2 148.7 135.7 150.6C136.2 152.5 136.5 154.2 136.7 155.4C136.8 156 136.9 156.5 136.9 156.9C136.9 157.2 136.9 157.4 136.9 157.4Z" fill="#263238"/>
<path d="M151.1 144.3C151.1 144.3 150.4 145 149 145.7C147.6 146.4 145.4 147 143 146.7C140.6 146.4 138.6 145.2 137.5 144.1C136.3 143 135.8 142.2 135.8 142.2C135.8 142.2 136 142.4 136.2 142.7C136.5 143 136.9 143.5 137.5 144C138.7 145 140.6 146.1 143 146.5C145.4 146.8 147.5 146.3 148.9 145.6C149.6 145.3 150.2 144.9 150.5 144.7C150.9 144.4 151.1 144.3 151.1 144.3Z" fill="#263238"/>
<path d="M153.7 126.6C153.7 126.6 153.9 126.9 154.1 127.5C154.3 128.1 154.5 129 154.5 130.2C154.5 131.4 154.3 132.7 153.8 134.2C153.3 135.6 152.3 137.1 151 138.2C149.6 139.3 148 140 146.5 140.3C145 140.6 143.6 140.6 142.5 140.4C141.4 140.2 140.5 139.9 139.9 139.6C139.3 139.3 139 139.1 139 139.1C139 139 140.2 139.9 142.5 140.3C143.6 140.5 145 140.5 146.5 140.2C148 139.9 149.5 139.2 150.9 138.1C152.2 137 153.1 135.5 153.7 134.1C154.3 132.7 154.5 131.3 154.5 130.2C154.3 127.9 153.6 126.6 153.7 126.6Z" fill="#263238"/>
<path d="M200.2 85.4004C200.2 85.4004 200.3 85.6004 200.4 86.1004C200.5 86.6004 200.7 87.3004 200.8 88.2004C201 90.0004 201 92.8004 199.8 96.0004C199.2 97.6004 198.4 99.2004 197.3 100.8C196.2 102.4 194.8 104 193.2 105.5C191.6 107 189.8 108.5 187.9 109.9C186.9 110.6 185.9 111.3 184.9 112C183.9 112.7 182.9 113.6 181.6 113.9C181 114 180.3 114 179.7 113.8C179.1 113.5 178.7 113 178.5 112.4C178.1 111.2 178.4 109.9 178.8 108.8C179.6 106.5 180.9 104.6 182.5 103.1C185.6 100 189.6 98.7004 192.9 98.6004H193V98.7004C191.9 102 189.6 104 188 105C187.2 105.5 186.5 105.8 186 106C185.5 106.2 185.3 106.2 185.3 106.2C185.3 106.2 185.5 106.1 186 105.9C186.5 105.7 187.2 105.4 188 104.9C189.6 103.9 191.8 101.9 192.9 98.7004L193 98.8004C189.7 98.8004 185.8 100.2 182.7 103.2C181.2 104.7 179.8 106.6 179.1 108.8C178.7 109.9 178.5 111.1 178.8 112.3C179 112.9 179.4 113.3 179.9 113.6C180.4 113.9 181.1 113.9 181.7 113.7C182.9 113.4 183.9 112.5 184.9 111.9C185.9 111.2 186.9 110.5 187.9 109.8C189.8 108.4 191.6 106.9 193.2 105.4C194.8 103.9 196.2 102.3 197.3 100.7C198.4 99.1004 199.2 97.5004 199.8 95.9004C201 92.8004 201.1 90.0004 200.9 88.2004C200.8 87.3004 200.6 86.6004 200.5 86.1004C200.3 85.7004 200.2 85.4004 200.2 85.4004Z" fill="#263238"/>
<path d="M208.2 78.3003C208.2 78.3003 207.8 79.2003 207.4 80.7003C207 82.2003 206.8 84.4003 206.6 86.7003C206.5 87.9003 206.4 89.0003 206.2 90.0003C206 91.0003 205.8 91.9003 205.5 92.7003C204.9 94.2003 204.3 94.9003 204.3 94.9003C204.3 94.9003 204.8 94.1003 205.3 92.6003C205.6 91.9003 205.8 91.0003 206 90.0003C206.2 89.0003 206.3 87.9003 206.4 86.7003C206.6 84.3003 206.8 82.2003 207.3 80.6003C207.7 79.2003 208.2 78.3003 208.2 78.3003Z" fill="#263238"/>
<path d="M215.8 85.2C215.8 85.2 215.7 85.1 215.5 84.8C215.3 84.6 215.1 84.2 214.8 83.8C214.3 82.9 213.7 81.6 213.2 80.1C212.8 78.6 212.6 77.1 212.5 76.1C212.5 75.6 212.5 75.2 212.5 74.9C212.5 74.6 212.5 74.5 212.5 74.5C212.5 74.5 212.5 75.1 212.6 76.2C212.7 77.2 212.9 78.6 213.3 80.1C213.7 81.6 214.3 82.9 214.8 83.8C215.4 84.7 215.8 85.2 215.8 85.2Z" fill="#263238"/>
<path d="M202.8 60.2004L234.9 95.9004H239.3L257.9 79.4004V74.2004L225.6 40.3004L220.8 39.4004L202.8 55.5004V60.2004Z" fill="#E0E0E0"/>
<path d="M202.8 60.2002C202.8 60.2002 202.8 60.1002 202.8 59.9002C202.8 59.7002 202.8 59.4002 202.8 59.0002C202.8 58.2002 202.8 57.0002 202.8 55.5002C206.4 52.2002 212.7 46.6002 220.8 39.3002L220.9 39.2002H221C222.5 39.5002 224.1 39.8002 225.8 40.1002H225.9C234.9 49.6002 246.1 61.3002 258.2 74.0002L258.3 74.1002V74.2002C258.3 74.5002 258.3 74.8002 258.3 75.1002C258.3 76.5002 258.3 78.0002 258.3 79.4002V79.5002L258.2 79.6002C251.7 85.4002 245.4 91.0002 239.6 96.1002L239.5 96.2002H239.4C237.9 96.2002 236.4 96.2002 234.9 96.2002H234.8L234.7 96.1002C225.3 85.5002 217.3 76.6002 211.6 70.3002C208.8 67.2002 206.6 64.7002 205.1 62.9002C204.4 62.1002 203.8 61.4002 203.4 60.9002C203.2 60.7002 203.1 60.5002 203 60.4002C202.8 60.3002 202.8 60.2002 202.8 60.2002C202.8 60.2002 202.9 60.3002 203 60.4002C203.1 60.5002 203.3 60.7002 203.5 60.9002C203.9 61.4002 204.5 62.0002 205.3 62.8002C206.9 64.5002 209.1 67.0002 211.9 70.1002C217.6 76.4002 225.6 85.2002 235.1 95.7002L234.9 95.6002C236.4 95.6002 237.8 95.6002 239.4 95.6002L239.2 95.7002C245 90.5002 251.2 85.0002 257.7 79.2002L257.6 79.4002C257.6 78.0002 257.6 76.6002 257.6 75.1002C257.6 74.8002 257.6 74.5002 257.6 74.2002L257.7 74.4002C245.7 61.7002 234.5 50.0002 225.5 40.5002L225.6 40.6002C223.9 40.3002 222.3 39.9002 220.8 39.7002H221C212.8 46.9002 206.5 52.5002 202.8 55.8002V55.7002C202.8 57.2002 202.8 58.4002 202.8 59.2002C202.8 59.6002 202.8 59.9002 202.8 60.1002C202.8 60.1002 202.8 60.2002 202.8 60.2002Z" fill="#263238"/>
<path d="M225.6 40C225.6 40 225.3 40.3 224.8 40.9C224.3 41.5 223.5 42.3 222.5 43.2C220.5 45.1 217.6 47.6 214.4 50.3C211.2 53 208.2 55.4 206.2 57.3C205.2 58.2 204.4 58.9 203.8 59.5C203.2 60 202.9 60.3 202.9 60.3C202.9 60.3 203.2 60 203.7 59.4C204.2 58.8 205 58 206 57.1C208 55.2 210.9 52.7 214.2 50C217.4 47.3 220.4 44.9 222.4 43C223.4 42.1 224.2 41.4 224.8 40.8C225.3 40.2 225.6 40 225.6 40Z" fill="#263238"/>
<path d="M257.1 74.6001C257.1 74.6001 256.8 74.9001 256.2 75.5001C255.5 76.1001 254.7 76.9001 253.7 77.8001C251.6 79.7001 248.7 82.3001 245.6 85.3001C242.4 88.2001 239.6 90.9001 237.6 92.9001C236.6 93.8001 235.8 94.6001 235.2 95.2001C234.6 95.7001 234.3 96.0001 234.3 96.0001C234.3 96.0001 234.6 95.6001 235.1 95.1001C235.6 94.5001 236.4 93.7001 237.4 92.7001C239.4 90.7001 242.1 87.9001 245.3 85.0001C248.5 82.1001 251.4 79.5001 253.6 77.7001C254.7 76.8001 255.6 76.1001 256.2 75.6001C256.7 74.8001 257.1 74.6001 257.1 74.6001Z" fill="#263238"/>
<path d="M236.9 87.4C236.8 87.4 234.5 79.5 231.9 69.8C229.3 60 227.3 52.1 227.4 52C227.5 52 229.8 59.9 232.4 69.6C235.1 79.4 237.1 87.4 236.9 87.4Z" fill="white"/>
<path d="M232.8 84.1002C232.7 84.1002 230.7 77.6002 228.5 69.5002C226.3 61.4002 224.5 54.8002 224.7 54.7002C224.8 54.7002 226.8 61.2002 229 69.3002C231.2 77.4002 232.9 84.0002 232.8 84.1002Z" fill="white"/>
<path d="M158.5 104.9C155.7 105.5 153.7 108.8 154.5 111.6C152.8 110.7 150.6 111.7 149.5 113.3C148.4 114.9 148.3 116.9 148.1 118.9C145.5 118.1 142.4 120.4 142.3 123.1C142.3 123.9 142.5 124.7 142.1 125.4C141.6 126.4 140.3 126.6 139.5 127.4C138.5 128.3 138.3 129.7 138.6 131C138.9 132.3 139.7 133.3 140.6 134.3C142.6 136.5 145.1 138.3 147.8 139.6C149 140.2 150.4 140.6 151.6 140.2C152.8 139.7 153.5 137.9 152.4 137C153.9 138.4 156.5 138.3 158 136.8C159.4 135.3 159.5 132.7 158.1 131.2C159.4 133 162.5 132.3 163.5 130.3C164.5 128.4 163.9 125.9 162.6 124.1C163.8 125.4 166.3 124.4 166.9 122.7C167.5 121 166.9 119.1 166.2 117.5C164.4 113.1 161 109 158.5 104.9Z" fill="#FFBE9D"/>
<path d="M152.901 137.3C152.901 137.4 152.201 136.9 151.101 136.1C150.001 135.3 148.601 134 147.201 132.5C145.701 131 144.501 129.6 143.601 128.6C142.701 127.6 142.201 126.9 142.301 126.9C142.401 126.8 144.701 129.2 147.601 132.1C149.001 133.6 150.401 134.8 151.401 135.7C152.301 136.7 152.901 137.3 152.901 137.3Z" fill="#EB996E"/>
<path d="M147.9 118.8C148 118.8 148.4 119.6 149.2 121C150 122.3 151.2 124.1 152.7 125.9C155.8 129.5 159.1 131.6 159 131.8C159 131.9 158.1 131.4 156.8 130.5C155.5 129.6 153.9 128.1 152.3 126.3C150.7 124.5 149.6 122.6 148.9 121.2C148.1 119.7 147.8 118.8 147.9 118.8Z" fill="#EB996E"/>
<path d="M163.001 124.5C163.001 124.5 162.201 124.1 161.101 123.1C160.001 122.1 158.601 120.6 157.301 118.7C156.101 116.8 155.301 114.9 154.801 113.5C154.401 112.1 154.201 111.2 154.301 111.2C154.501 111.1 155.301 114.7 157.701 118.5C160.201 122.2 163.101 124.4 163.001 124.5Z" fill="#EB996E"/>
<path d="M177.5 147.5C177.5 147.5 180.7 126.3 179.9 124C179.1 121.7 172.9 106.8 172.9 106.8L157.1 104.9C157.1 104.9 155.1 107.8 158.6 110.2C162.1 112.6 165.6 112.9 165.6 112.9L167.2 119.5C167.2 119.5 155.5 128.7 156.8 139.1L145.2 149.8L158.6 163.6L177.5 147.5Z" fill="#FFBE9D"/>
<path d="M168.5 118.8C168.6 118.9 167.3 119.6 165.6 121.1C164.7 121.8 163.8 122.8 162.8 123.9C161.8 125 160.9 126.4 160 127.8C159.1 129.3 158.5 130.8 158 132.2C157.5 133.6 157.2 134.9 157 136C156.7 138.2 156.7 139.6 156.6 139.6C156.6 139.6 156.5 139.3 156.5 138.6C156.5 138.3 156.5 137.9 156.5 137.4C156.5 136.9 156.5 136.4 156.6 135.9C156.7 134.8 157 133.4 157.5 132C158 130.6 158.6 129 159.5 127.5C160.4 126 161.4 124.7 162.4 123.5C163.4 122.4 164.4 121.4 165.3 120.7C165.7 120.3 166.2 120 166.5 119.8C166.9 119.5 167.2 119.3 167.5 119.2C168.2 118.9 168.5 118.8 168.5 118.8Z" fill="#EB996E"/>
<path d="M167.2 119.5C167.1 119.5 166.9 118.9 166.6 117.8C166.3 116.7 165.9 115.1 165.4 113.3L165.6 113.5C164.4 113.2 163.2 112.7 162 112.2C160.7 111.6 159.5 111.1 158.4 110.5C157.3 109.8 156.6 108.8 156.4 107.9C156.2 106.9 156.4 106.1 156.6 105.7C156.8 105.2 157 105 157 105C157 105 156.9 105.3 156.7 105.8C156.6 106.3 156.4 107 156.6 107.9C156.8 108.8 157.5 109.6 158.5 110.2C159.5 110.8 160.8 111.3 162.1 111.9C163.3 112.4 164.5 112.9 165.6 113.2H165.8V113.3C166.2 115.1 166.6 116.7 166.8 117.9C167.1 118.8 167.2 119.5 167.2 119.5Z" fill="#EB996E"/>
<path d="M175.9 150.3C175.9 150.4 175.2 150.7 174 151C172.8 151.4 171.1 151.8 169.2 152.3C167.3 152.7 165.6 153 164.3 153.2C163 153.4 162.3 153.4 162.3 153.3C162.3 153.2 165.3 152.6 169.1 151.8C172.8 151 175.8 150.2 175.9 150.3Z" fill="#EB996E"/>
<path d="M441 251.5C441 251.5 426.8 233 423.4 229.2C420.5 225.9 407.7 211.9 403.4 208.3C399.1 204.7 400.1 203.9 396.2 203.5C392.3 203.2 376.7 201.1 373.8 204.7C370.9 208.3 361.1 227.1 361.1 241.8C361.1 256.5 375.8 286.4 381.6 291.2C381.6 291.2 403.2 286.3 410.3 288.3C417.4 290.4 441 251.5 441 251.5Z" fill="#01AAED"/>
<path d="M398.7 204.1L360 193.6L354 190.3C340.1 197.9 313.3 215.2 302.4 202.2L298 205.3C298 205.3 268.2 253.9 267.8 261.8C267.6 266.3 265.6 331.4 264.9 355.4C264.9 355.4 271.5 355.5 271.1 355.2L396.2 355.4L399.6 288.8L398.7 204.1Z" fill="#01AAED"/>
<path d="M401.3 285.8C401.3 285.8 400.9 285.6 400.3 285.2C399.7 284.8 398.7 284.1 397.6 283.3C395.4 281.7 392.4 279.2 389.5 276.3C386.5 273.3 384.1 270.4 382.4 268.2C381.6 267.1 380.9 266.2 380.5 265.6C380.1 265 379.9 264.6 379.9 264.6C379.9 264.6 380.2 264.9 380.7 265.5C381.2 266.1 381.9 267 382.7 268C384.4 270.1 386.9 273 389.9 275.9C392.9 278.8 395.8 281.3 397.9 283C399 283.9 399.8 284.5 400.5 285C401 285.5 401.3 285.8 401.3 285.8Z" fill="#263238"/>
<path d="M298.1 205.3C298.1 205.3 282.5 208.5 280.9 209C275.1 210.7 239.1 226.5 239.1 226.5C239.1 226.5 231.4 258 241.6 271.9C246 278 251 283.1 251 283.1L295 272.5L298.1 205.3Z" fill="#01AAED"/>
<path d="M359.3 193.1C359.3 193.1 359.1 193.3 358.8 193.5C358.4 193.8 357.9 194.1 357.2 194.6C355.7 195.5 353.7 196.8 351.2 198.4C346.2 201.6 339.2 206.2 330.5 209.3C326.2 210.8 321.9 211.9 317.9 212C313.9 212.1 310.3 211.5 307.5 210.5C304.7 209.5 302.6 208.1 301.3 207.1C300.6 206.6 300.2 206.1 299.9 205.8C299.6 205.5 299.4 205.3 299.4 205.3C299.4 205.3 299.6 205.4 299.9 205.7C300.2 206 300.7 206.4 301.4 206.9C302.7 207.9 304.8 209.2 307.6 210.1C310.4 211 314 211.6 317.9 211.5C321.8 211.4 326.1 210.3 330.4 208.8C339 205.7 346 201.2 351.1 198.1C353.6 196.6 355.7 195.3 357.2 194.4C357.9 194 358.4 193.7 358.9 193.4C359 193.2 359.2 193.1 359.3 193.1Z" fill="#263238"/>
<path d="M376.5 252.9C376.5 252.9 376.4 252.7 376.4 252.4C376.3 252 376.2 251.5 376.1 250.9C376 250.2 375.8 249.4 375.7 248.4C375.7 247.9 375.6 247.4 375.5 246.8C375.4 246.2 375.4 245.7 375.4 245.1C375.4 243.9 375.3 242.5 375.5 241.1C375.6 240.4 375.6 239.6 375.7 238.9C375.8 238.1 375.9 237.4 376.1 236.6C376.7 233.4 377.6 229.9 379.1 226.5C380.6 223.1 382.4 219.9 384.2 217.3C386.1 214.7 388 212.4 389.7 210.7C390.1 210.3 390.5 209.8 390.9 209.5C391.3 209.1 391.7 208.8 392.1 208.5C392.5 208.2 392.8 207.9 393.1 207.6C393.4 207.3 393.7 207.1 394 206.9C394.5 206.5 394.9 206.2 395.3 206C395.6 205.8 395.8 205.7 395.8 205.7C395.8 205.7 395.7 205.8 395.4 206.1C395.1 206.4 394.7 206.7 394.2 207.1C393.9 207.3 393.6 207.6 393.3 207.8C393 208.1 392.7 208.4 392.3 208.7C391.9 209 391.6 209.4 391.2 209.8C390.8 210.2 390.4 210.6 390 211.1C388.3 212.8 386.5 215.1 384.6 217.7C382.8 220.4 381 223.5 379.6 226.9C378.1 230.3 377.2 233.7 376.6 236.9C376.5 237.7 376.3 238.5 376.2 239.2C376.1 240 376.1 240.7 376 241.4C375.8 242.8 375.9 244.2 375.9 245.4C375.9 246 375.9 246.6 376 247.1C376 247.6 376.1 248.2 376.1 248.6C376.1 249.6 376.3 250.4 376.4 251.1C376.5 251.7 376.6 252.2 376.6 252.7C376.5 252.7 376.5 252.9 376.5 252.9Z" fill="#263238"/>
<g opacity="0.3">
<path opacity="0.3" d="M266.9 279.4L269.2 231.9C262.5 246.1 261.3 264.7 266.9 279.4Z" fill="black"/>
</g>
<g opacity="0.3">
<path opacity="0.3" d="M284 353.701C300.3 354.401 316.7 350.401 330.9 342.401C345.4 334.201 357.5 321.801 365.4 307.101C339.8 326.201 314.1 342.901 284 353.701Z" fill="black"/>
</g>
<path d="M369.1 303.201C369.1 303.201 369 303.301 368.9 303.401C368.7 303.501 368.6 303.701 368.3 303.901C367.8 304.401 367 305.101 366 305.901C365 306.801 363.8 307.801 362.4 309.001C361 310.201 359.3 311.601 357.5 313.001C355.7 314.501 353.6 316.101 351.4 317.701C349.2 319.401 346.8 321.101 344.2 322.901C339 326.401 333.3 330.101 327 333.701C320.8 337.301 314.7 340.401 309.1 343.101C306.3 344.401 303.6 345.701 301.1 346.801C298.6 347.901 296.2 348.901 294 349.801C291.8 350.701 289.8 351.501 288.1 352.101C286.4 352.801 284.8 353.301 283.6 353.801C282.4 354.201 281.4 354.601 280.7 354.801C280.4 354.901 280.1 355.001 280 355.001C279.8 355.101 279.7 355.101 279.7 355.101C279.7 355.101 279.8 355.101 279.9 355.001C280.1 354.901 280.3 354.801 280.6 354.701C281.3 354.401 282.2 354.101 283.4 353.601C284.6 353.101 286.1 352.601 287.9 351.901C289.6 351.201 291.6 350.401 293.8 349.501C296 348.601 298.3 347.601 300.9 346.401C303.4 345.301 306.1 344.001 308.9 342.701C314.5 340.001 320.6 336.801 326.8 333.201C333 329.601 338.8 325.901 343.9 322.401C346.5 320.601 348.9 319.001 351.1 317.301C353.3 315.701 355.4 314.101 357.2 312.701C359.1 311.301 360.7 309.901 362.2 308.701C363.7 307.501 364.9 306.501 365.9 305.601C366.9 304.801 367.7 304.101 368.2 303.601C368.4 303.401 368.7 303.201 368.8 303.101C369 303.201 369.1 303.201 369.1 303.201Z" fill="#263238"/>
<g opacity="0.3">
<path opacity="0.3" d="M375 247.6C375.1 247.7 374.9 248.1 374.3 248.7C373.7 249.3 372.6 250 371.1 250.5C368 251.5 363.1 251.2 358 249C355.5 247.9 352.9 246.6 350.2 245.4C348.8 244.9 347.5 244.4 346 244.1C344.6 243.8 343.2 243.8 341.7 243.9C338.7 244.2 335.6 245.5 332.6 247.3C329.5 249.1 326.5 251.5 323.1 253.8C319.7 256.1 316 258.3 311.9 259.4C309.9 260 307.7 260.3 305.6 260.1C303.5 260 301.4 259.5 299.6 258.8C296 257.3 293.2 255.2 290.7 253.2C288.3 251.2 286.1 249.4 284 248.1C281.9 246.7 280 245.8 278.1 245.3C276.3 244.8 274.6 244.7 273.2 244.9C270.5 245.2 269.1 246.1 268.9 245.8C268.8 245.7 269 245.3 269.6 244.7C270.2 244.1 271.3 243.4 272.8 243C274.3 242.5 276.3 242.3 278.6 242.6C280.9 242.9 283.4 243.7 285.8 245.1C288.3 246.4 290.7 248.2 293.2 249.9C295.7 251.6 298.3 253.4 301.2 254.4C304.1 255.5 307.1 255.5 310.4 254.6C313.6 253.6 316.8 251.8 320 249.6C323.2 247.4 326.4 244.9 329.9 243C333.4 241 337.2 239.5 341.2 239.2C343.2 239.1 345.2 239.2 347 239.7C348.8 240.2 350.4 240.8 351.9 241.5C354.8 242.9 357.3 244.5 359.5 245.7C363.9 248.1 367.9 248.9 370.5 248.6C373.4 248.3 374.8 247.3 375 247.6Z" fill="#01AAED"/>
</g>
<g opacity="0.3">
<path opacity="0.3" d="M425.3 231.2C425.6 231.3 425.8 232.2 425.3 233.6C424.9 235 423.7 237 421.6 238.9C419.6 240.7 416.7 242.3 413.2 243.2C409.7 244.1 405.9 244.3 402.1 244.2C400.2 244.1 398.4 244.1 396.7 244C395.8 244 395 244 394.2 244C393.4 244 392.7 244 391.9 244.1C388.9 244.3 386.2 244.8 384 245.5C379.5 246.7 377.2 248.5 376.7 248C376.5 247.8 376.7 246.9 377.7 245.8C378.7 244.7 380.4 243.3 382.7 242.1C385.1 240.9 388 239.9 391.5 239.4C392.4 239.3 393.3 239.2 394.2 239.1C395.1 239.1 396 239 396.9 239C398.7 239 400.6 239 402.4 239C406.1 239.1 409.5 239 412.3 238.5C415.2 238 417.7 237 419.5 235.9C421.4 234.8 422.7 233.5 423.6 232.6C424.4 231.7 424.9 231.1 425.3 231.2Z" fill="#01AAED"/>
</g>
<g opacity="0.3">
<path opacity="0.3" d="M264 244.2C263.7 244.8 261.9 244.6 259.7 243.3C257.4 242 254.8 239.4 252.8 236C251.8 234.3 251.1 232.5 250.6 230.9C250.1 229.2 249.9 227.7 249.9 226.4C249.9 223.8 250.6 222.2 251.3 222.2C252 222.2 252.6 223.6 253.5 225.7C254.4 227.8 255.6 230.5 257.3 233.4C259 236.3 260.8 238.7 262.1 240.5C263.4 242.3 264.3 243.5 264 244.2Z" fill="#01AAED"/>
</g>
<path d="M365.2 272.2C363.1 272.6 361.4 274.4 361.2 276.5C361.1 277.7 361.4 278.8 362.7 279.6C366.1 281.7 369.5 283 374 281.3C378.5 279.6 383.4 278.7 383.4 278.7C383.4 278.7 391.3 277.9 396.4 279.3C401.5 280.6 409.4 286.3 411.9 286.1C414.4 285.9 431 284.4 433.6 282C436.2 279.5 440.8 271.4 435.1 266.9C429.4 262.4 419.6 258.8 418.7 258.2C417.8 257.6 407.9 256.9 407.9 256.9L399.4 254.8C399.4 254.8 395.2 260.6 393.3 262.5C391.4 264.4 385.4 268.2 382.5 268.7C380.5 269.1 370.1 271.2 365.2 272.2Z" fill="#FFBE9D"/>
<path d="M418.701 253.3C418.701 253.3 419.001 253.1 419.601 252.9C421.101 252.2 424.201 250.8 427.201 250.5C431.301 250 434.001 249.6 438.301 250.5C442.601 251.4 451.801 259.1 454.001 263.2C456.201 267.3 457.901 284.2 455.701 289.4C453.501 294.5 450.901 302.9 444.901 303.3C438.901 303.6 416.801 302.5 414.601 295.5C412.401 288.5 402.301 281.5 402.301 281.5L418.701 253.3Z" fill="#FFBE9D"/>
<path d="M381.7 254.1C381.7 254.1 389.6 249.4 392.8 249C396 248.6 399.6 249 399.6 249L407.1 254.1C407.1 254.1 411.8 252.6 415.2 253.2C418.6 253.8 422.2 255.8 422.2 255.8C422.2 255.8 431.1 258.3 433 259.2C434.9 260.1 439.6 264.9 439.6 264.9L441.9 273.2V293C441.9 293 437.9 295.1 436.2 293.8C434.5 292.5 432.6 288.9 432.6 287.4C432.6 285.9 432.4 278.7 432.4 278.7C432.4 278.7 431.3 275.3 429.9 274.9C428.6 274.5 426.7 274.9 426.7 274.9C426.7 274.9 416.9 294.5 415.6 295.6C414.3 296.7 411.8 296.7 410.3 295.6C408.8 294.5 407.3 293.3 407.8 291.6C408.4 289.9 415.7 269.3 415.7 269.3L416.6 264L411.6 268.2C411.6 268.2 405.5 286.5 403.4 287.3C401.3 288.1 398.9 288.4 397.4 287.3C395.9 286.2 394.6 286 395.3 283C396.1 280 399.8 265.1 400 263.8C400.2 262.5 401.9 260.4 401.9 260.4L394.5 258.3C394.5 258.3 387.9 261.5 385.3 261.7C382.7 261.9 378.5 262.1 379.1 258.3C379.8 254.5 381.7 254.1 381.7 254.1Z" fill="#FFBE9D"/>
<path d="M381.7 254.1C381.7 254.1 381.6 254.1 381.3 254.3C381.1 254.4 380.8 254.7 380.4 255.1C380.1 255.5 379.8 256.1 379.6 256.8C379.4 257.5 379.2 258.4 379.2 259.4C379.3 259.9 379.4 260.4 379.8 260.8C380.2 261.2 380.7 261.4 381.3 261.6C382.5 261.9 383.8 261.8 385.3 261.7C386.7 261.6 388.2 261 389.7 260.4C391.2 259.8 392.8 259.1 394.5 258.3H394.6C396.9 258.9 399.3 259.6 402 260.4L402.2 260.5L402 260.7C401.4 261.4 400.9 262.2 400.5 263C400.3 263.4 400.2 263.8 400.1 264.3C400 264.8 399.9 265.2 399.8 265.7C399.3 267.6 398.9 269.6 398.4 271.6C397.9 273.6 397.4 275.8 396.8 277.9C396.5 279 396.3 280.1 396 281.2C395.9 281.8 395.7 282.3 395.6 282.9C395.5 283.5 395.3 284 395.3 284.6C395.3 285.2 395.4 285.7 395.8 286.1C396.2 286.5 396.7 286.8 397.2 287.1C398.1 287.9 399.3 288 400.5 287.9C401.1 287.8 401.7 287.7 402.3 287.5C402.6 287.4 402.9 287.3 403.2 287.2C403.4 287.1 403.6 286.9 403.8 286.7C404.5 285.7 405.1 284.5 405.6 283.4C407.7 278.7 409.5 273.6 411.3 268.3V268.2H411.4C413 266.9 414.7 265.5 416.4 264L416.9 263.6L416.8 264.3C416.5 265.9 416.2 267.8 415.9 269.6C413.8 275.5 411.6 281.7 409.3 288.1C409 288.9 408.7 289.7 408.4 290.5L408 291.7C407.9 292.1 407.8 292.5 407.9 292.8C408.1 293.5 408.7 294.2 409.3 294.7C409.6 295 410 295.2 410.3 295.5C410.6 295.7 411 295.9 411.4 296.1C412.2 296.4 413 296.4 413.8 296.2C414.2 296.1 414.6 296 414.9 295.7C415.1 295.6 415.2 295.5 415.3 295.3C415.4 295.2 415.5 295 415.7 294.8C416.6 293.3 417.5 291.8 418.3 290.2C421.1 285 423.7 279.8 426.3 274.8L426.4 274.7H426.5C427.2 274.6 427.8 274.5 428.5 274.5C428.8 274.5 429.2 274.5 429.5 274.6C429.8 274.6 430.2 274.9 430.5 275.1C431.5 276.1 432 277.4 432.4 278.6C432.4 280.5 432.5 282.4 432.5 284.3C432.5 285.2 432.5 286.2 432.6 287.1C432.6 288 432.9 288.8 433.3 289.6C433.7 290.4 434.1 291.2 434.7 291.9C435 292.3 435.2 292.6 435.5 292.9C435.8 293.2 436.1 293.5 436.5 293.6C437.3 293.9 438.2 293.7 439 293.5C439.8 293.3 440.7 293 441.4 292.6L441.3 292.8C441.3 285.9 441.3 279.3 441.3 273V273.1C440.5 270.3 439.8 267.5 439 264.8L439.1 264.9C437.8 263.6 436.5 262.4 435.2 261.3C434.5 260.7 433.9 260.2 433.2 259.7C432.5 259.2 431.8 258.9 431 258.7C427.9 257.6 424.8 256.7 421.8 255.9C419.3 254.5 416.7 253.4 414.1 253.2C411.5 253 409.1 253.6 406.9 254.2H406.8H406.7C403.9 252.3 401.4 250.6 399.2 249.1H399.3C397.8 249 396.3 248.9 395 248.9C393.6 248.9 392.4 249 391.2 249.4C389 250.1 387.2 251.1 385.7 251.8C384.3 252.5 383.2 253.1 382.5 253.5C382.1 253.7 381.9 253.8 381.7 254C381.8 254.1 381.7 254.1 381.7 254.1C381.7 254.1 382.1 253.9 382.8 253.4C383.5 253 384.6 252.4 386 251.6C387.4 250.9 389.2 249.9 391.5 249.2C392.6 248.8 393.9 248.8 395.3 248.7C396.7 248.7 398.1 248.7 399.7 248.8C402 250.3 404.5 252 407.3 253.9H407.2C409.5 253.2 411.9 252.7 414.6 252.8C417.3 253.1 419.9 254.2 422.5 255.5C425.5 256.3 428.5 257.2 431.7 258.3C432.5 258.6 433.3 258.9 434 259.4C434.7 259.9 435.4 260.4 436 261C437.3 262.1 438.6 263.4 439.9 264.6V264.7C440.6 267.4 441.4 270.2 442.2 273C442.2 279.3 442.2 285.9 442.2 292.8V293L442.1 293.1C441.3 293.5 440.4 293.8 439.6 294.1C439.2 294.2 438.7 294.3 438.2 294.3C437.7 294.3 437.2 294.3 436.8 294.1C436.3 293.9 435.9 293.6 435.6 293.2C435.3 292.9 435 292.5 434.7 292.1C434.2 291.3 433.7 290.5 433.3 289.7C432.9 288.9 432.5 287.9 432.5 286.9C432.5 286 432.5 285 432.4 284.1C432.4 282.2 432.3 280.3 432.3 278.4V278.5C431.9 277.3 431.4 276.1 430.5 275.2C430.1 274.8 429.5 274.8 428.8 274.7C428.2 274.7 427.5 274.7 426.9 274.9L427.1 274.8C424.5 279.9 421.9 285.1 419.1 290.2C418.2 291.8 417.4 293.3 416.5 294.8C416.3 295.2 416 295.6 415.6 295.8C415.2 296.1 414.8 296.2 414.3 296.3C413.4 296.5 412.5 296.4 411.6 296.2C411.2 296.1 410.7 295.8 410.4 295.6C410.1 295.3 409.7 295.1 409.4 294.8C408.7 294.2 408 293.6 407.8 292.6C407.7 292.1 407.8 291.6 407.9 291.2L408.3 290C408.6 289.2 408.9 288.4 409.2 287.6C411.5 281.2 413.7 275 415.8 269.1C416.1 267.3 416.5 265.5 416.7 263.8L417.1 264C415.4 265.4 413.7 266.9 412.1 268.1L412.2 268C410.4 273.3 408.6 278.4 406.4 283.1C405.8 284.3 405.3 285.5 404.5 286.5C404.3 286.7 404 287.1 403.7 287.2C403.4 287.3 403.1 287.4 402.8 287.5C402.2 287.7 401.6 287.8 400.9 287.9C400.3 288 399.6 287.9 399 287.8C398.4 287.7 397.8 287.3 397.3 287C396.8 286.7 396.3 286.4 395.8 285.9C395.3 285.4 395.1 284.7 395.2 284.1C395.2 283.5 395.4 282.9 395.5 282.3C395.6 281.7 395.8 281.2 395.9 280.6C396.2 279.5 396.5 278.4 396.7 277.3C397.2 275.1 397.8 273 398.3 271C398.8 269 399.3 267 399.8 265.1C399.9 264.6 400 264.2 400.1 263.7C400.2 263.2 400.3 262.7 400.5 262.3C400.9 261.4 401.5 260.7 402 259.9L402.1 260.2C399.5 259.5 397 258.8 394.7 258.1H394.8C393.1 258.9 391.5 259.6 389.9 260.2C388.3 260.8 386.9 261.3 385.4 261.5C384 261.6 382.6 261.6 381.4 261.3C380.8 261.1 380.2 260.9 379.8 260.5C379.4 260.1 379.2 259.5 379.1 259C379 258 379.3 257.1 379.5 256.4C379.7 255.7 380.1 255.1 380.4 254.7C380.7 254.3 381.1 254.1 381.3 253.9C381.6 254.1 381.7 254.1 381.7 254.1Z" fill="#EB996E"/>
<path d="M445.1 257.6C445.1 257.7 444 257.1 442.1 256.3C440.2 255.6 437.5 254.8 434.4 254.6C431.3 254.4 428.5 254.8 426.6 255.2C424.6 255.7 423.5 256.1 423.4 256C423.4 256 423.7 255.8 424.2 255.6C424.7 255.4 425.5 255.1 426.5 254.8C428.5 254.2 431.3 253.8 434.5 254C437.6 254.2 440.4 255.1 442.3 255.9C443.2 256.3 444 256.7 444.5 257C444.8 257.4 445.1 257.6 445.1 257.6Z" fill="#EB996E"/>
<path d="M410.4 255.5C410.4 255.7 407.9 255.9 405.4 257.6C402.9 259.2 401.7 261.5 401.6 261.4C401.5 261.4 401.8 260.8 402.3 259.9C402.9 259.1 403.8 258 405.1 257.1C406.4 256.2 407.7 255.8 408.7 255.6C409.8 255.4 410.4 255.4 410.4 255.5Z" fill="#EB996E"/>
<path d="M429.1 264C429 264.1 427.6 262.9 425.4 262.7C423.2 262.5 421.6 263.5 421.5 263.4C421.5 263.4 421.8 263 422.5 262.7C423.2 262.4 424.3 262.1 425.4 262.2C426.6 262.3 427.6 262.7 428.2 263.1C428.8 263.6 429.1 264 429.1 264Z" fill="#EB996E"/>
<path d="M381.3 272.4C381.4 272.4 381.5 274.2 380.4 276C379.3 277.8 377.7 278.6 377.7 278.5C377.6 278.4 379 277.4 380 275.7C380.9 274 381.1 272.4 381.3 272.4Z" fill="#EB996E"/>
<path d="M432.7 289.101C432.7 289.101 432.2 289.901 431.1 290.801C430 291.701 428.2 292.701 426 293.101C423.8 293.501 421.8 293.201 420.5 292.801C419.1 292.401 418.4 291.901 418.4 291.801C418.4 291.701 419.2 292.101 420.6 292.401C421.9 292.701 423.9 292.901 426 292.501C428.1 292.101 429.8 291.201 430.9 290.401C432 289.701 432.6 289.101 432.7 289.101Z" fill="#EB996E"/>
<path d="M393.086 119.173L384.227 150.236L457.989 171.275L466.849 140.212L393.086 119.173Z" fill="#EBEBEB"/>
<path d="M457.9 171.3C457.9 171.3 457.9 171.1 458 170.7C458.1 170.3 458.3 169.8 458.4 169.1C458.8 167.7 459.4 165.6 460.1 162.9C461.6 157.5 463.8 149.8 466.5 140.2L466.6 140.4C447.7 135 421.6 127.6 392.9 119.5L393.2 119.3C390.1 130.2 387.1 140.7 384.3 150.4L384.1 150.1C405.4 156.2 423.8 161.5 436.9 165.3C443.4 167.2 448.6 168.7 452.2 169.7C454 170.2 455.4 170.6 456.3 170.9C456.8 171 457.1 171.1 457.4 171.2C457.8 171.2 457.9 171.3 457.9 171.3C457.9 171.3 457.8 171.3 457.6 171.2C457.3 171.1 457 171 456.6 170.9C455.7 170.6 454.3 170.3 452.5 169.8C448.9 168.8 443.7 167.3 437.2 165.5C424.1 161.8 405.6 156.6 384.2 150.5L384 150.4L384.1 150.2C386.9 140.5 389.8 130 393 119.1L393.1 118.8L393.4 118.9C422.1 127.1 448.2 134.6 467.1 140L467.3 140.1L467.2 140.3C464.4 149.9 462.2 157.7 460.6 163.1C459.8 165.8 459.2 167.8 458.8 169.3C458.6 170 458.4 170.5 458.3 170.9C458 171.1 457.9 171.3 457.9 171.3Z" fill="#263238"/>
<path d="M288.901 304.2L232.801 262.2C231.401 261.1 231.101 259.1 232.101 257.6L247.601 237C248.701 235.6 250.701 235.3 252.201 236.3L308.301 278.3C309.701 279.4 310.001 281.4 309.001 282.9L293.501 303.5C292.401 305 290.401 305.3 288.901 304.2Z" fill="#E0E0E0"/>
<path d="M288.9 304.2C288.9 304.2 289.1 304.3 289.4 304.5C289.7 304.7 290.2 304.9 290.9 304.8C291.6 304.8 292.5 304.5 293.2 303.8C293.8 303 294.5 302 295.3 300.9C298.5 296.6 303.1 290.3 308.9 282.6C309.5 281.7 309.6 280.3 309 279.3C308.7 278.8 308.2 278.4 307.7 278C307.2 277.6 306.7 277.2 306.1 276.8C304 275.2 301.8 273.6 299.6 271.9C295.1 268.5 290.2 264.9 285.2 261.1C275 253.5 263.9 245.1 252.1 236.3C251.4 235.8 250.5 235.6 249.7 235.8C248.9 236 248.2 236.5 247.7 237.2C246.6 238.6 245.5 240.1 244.5 241.5C242.4 244.4 240.2 247.2 238.2 249.9C237.2 251.3 236.1 252.7 235.1 254C234.6 254.7 234.1 255.4 233.6 256L232.8 257C232.5 257.3 232.3 257.6 232.1 258C231.8 258.7 231.7 259.5 232 260.2C232.2 260.9 232.7 261.5 233.4 262C234.7 263 236 263.9 237.3 264.9C247.4 272.5 256.6 279.4 264.3 285.2C272 291 278.2 295.7 282.5 298.9C284.6 300.5 286.3 301.8 287.4 302.6C287.9 303 288.4 303.4 288.7 303.6C288.8 304.1 288.9 304.2 288.9 304.2C288.9 304.2 288.7 304.1 288.4 303.9C288.1 303.7 287.7 303.4 287.1 303C285.9 302.1 284.3 300.9 282.1 299.3C277.8 296.1 271.5 291.4 263.8 285.7C256.1 279.9 246.9 273.1 236.8 265.5C235.5 264.5 234.2 263.6 232.9 262.6C232.2 262.2 231.6 261.5 231.3 260.6C231 259.8 231.1 258.8 231.5 258C231.7 257.6 232 257.2 232.2 256.9L233 255.9C233.5 255.2 234 254.6 234.5 253.9C235.5 252.5 236.5 251.2 237.6 249.8C239.7 247 241.8 244.2 243.9 241.4C245 240 246 238.5 247.1 237.1C247.6 236.3 248.5 235.7 249.4 235.5C250.4 235.3 251.4 235.5 252.2 236.1C263.9 244.9 275.1 253.3 285.3 260.9C290.4 264.7 295.2 268.3 299.7 271.7C302 273.4 304.1 275 306.2 276.6C306.7 277 307.2 277.4 307.8 277.8C308.3 278.2 308.9 278.6 309.2 279.2C309.9 280.3 309.8 281.8 309.1 282.9C303.3 290.6 298.6 296.8 295.4 301.1C294.6 302.2 293.9 303.1 293.2 303.9C292.5 304.7 291.5 304.9 290.8 304.9C290.1 304.9 289.6 304.7 289.2 304.5C289.1 304.4 288.9 304.2 288.9 304.2Z" fill="#263238"/>
<path d="M248.901 242.5C249.001 242.6 246.301 246.2 242.801 250.5C239.301 254.8 236.401 258.3 236.301 258.2C236.201 258.1 238.901 254.5 242.401 250.2C245.901 245.8 248.801 242.4 248.901 242.5Z" fill="#263238"/>
<path d="M268.7 274.6C268.6 274.7 267.5 272.1 266.3 268.9C265.1 265.7 264.3 263.1 264.4 263.1C264.5 263 265.6 265.6 266.8 268.8C268 271.9 268.9 274.5 268.7 274.6Z" fill="#263238"/>
<path d="M277.6 285.6C277.6 285.6 277.4 285.3 277 284.6C276.6 284 276.1 283 275.5 281.9C274.3 279.6 272.7 276.3 271.2 272.6C269.6 268.9 268.4 265.5 267.6 263C267.2 261.8 266.9 260.7 266.7 260C266.5 259.3 266.4 258.9 266.4 258.9C266.4 258.9 266.6 259.3 266.9 260C267.2 260.8 267.6 261.8 268 262.9C268.9 265.4 270.2 268.8 271.8 272.4C273.4 276.1 274.9 279.4 276 281.8C276.5 282.9 277 283.8 277.3 284.6C277.4 285.2 277.6 285.6 277.6 285.6Z" fill="#263238"/>
<path d="M281.8 284.2C281.7 284.3 280.7 282.4 279.7 280.1C278.7 277.8 278 275.9 278.1 275.8C278.2 275.7 279.2 277.6 280.2 279.9C281.2 282.3 281.9 284.2 281.8 284.2Z" fill="#263238"/>
<path d="M153.346 13.4232L77.3594 23.8774L81.7619 55.8771L157.749 45.4228L153.346 13.4232Z" fill="#E0E0E0"/>
<path d="M157.7 45.4002C157.7 45.4002 157.7 45.2002 157.6 44.8002C157.5 44.4002 157.5 43.8002 157.3 43.1002C157.1 41.6002 156.8 39.5002 156.4 36.7002C155.6 31.2002 154.5 23.2002 153.1 13.3002L153.3 13.5002C133.9 16.3002 107 20.0002 77.3996 24.1002L77.5996 23.8002C79.0996 35.0002 80.5996 45.9002 81.9996 55.8002L81.6996 55.6002C103.7 52.6002 122.7 50.1002 136.1 48.2002C142.8 47.3002 148.2 46.6002 151.9 46.1002C153.7 45.9002 155.2 45.7002 156.1 45.5002C156.6 45.4002 156.9 45.4002 157.2 45.4002C157.6 45.4002 157.7 45.4002 157.7 45.4002C157.7 45.4002 157.6 45.4002 157.3 45.5002C157 45.5002 156.7 45.6002 156.2 45.7002C155.2 45.8002 153.8 46.0002 152 46.3002C148.3 46.8002 143 47.6002 136.3 48.5002C122.8 50.4002 103.8 53.0002 81.6996 56.1002H81.4996V55.9002C80.0996 45.9002 78.5996 35.1002 77.0996 23.9002V23.6002H77.3996C107 19.6002 133.8 15.9002 153.3 13.2002H153.5V13.4002C154.8 23.3002 155.9 31.3002 156.6 36.9002C157 39.6002 157.2 41.8002 157.4 43.3002C157.5 44.0002 157.6 44.6002 157.6 44.9002C157.7 45.3002 157.7 45.4002 157.7 45.4002Z" fill="#263238"/>
</g>
<defs>
<clipPath id="clip0_1_29446">
<rect width="697.8" height="420.3" fill="white"/>
</clipPath>
</defs>
</svg>
