<svg width="212" height="63" viewBox="0 0 212 63" fill="none" xmlns="http://www.w3.org/2000/svg">
<path d="M37 9.84504C34.4247 8.6462 31.5636 7.97533 28.5497 7.96803L28.5 7.96797L28.4547 7.96802C25.4392 7.97468 22.5766 8.64562 20 9.84504V22.9079H24V12.5919C25.3725 12.1926 26.815 11.9713 28.3007 11.9532C28.3671 11.9524 28.4335 11.952 28.5 11.952C28.557 11.952 28.614 11.9522 28.6708 11.9528C30.1666 11.9685 31.6188 12.19 33 12.5919V22.9079H37V9.84504Z" fill="url(#paint0_linear_593_16822)"/>
<path d="M12.1124 30.8759C12.5053 34.3328 13.9083 37.4535 16 39.9378V45.4629C14.8815 44.5837 13.8544 43.5893 12.9358 42.4971C12.61 42.1096 12.2978 41.7098 12 41.2985C9.48611 37.8262 8 33.5321 8 28.8839C8 24.2357 9.48611 19.9416 12 16.4693C12.2978 16.0579 12.61 15.6582 12.9358 15.2707C13.8544 14.1785 14.8815 13.1841 16 12.3049V17.83C13.9083 20.3143 12.5053 23.4349 12.1124 26.8919H44.8876C44.4947 23.4349 43.0917 20.3143 41 17.83V12.3049C42.1185 13.1841 43.1456 14.1785 44.0642 15.2707C44.39 15.6582 44.7022 16.0579 45 16.4693C47.4039 19.7896 48.868 23.8615 48.9915 28.2758C48.9972 28.4778 49 28.6805 49 28.8839C49 29.1127 48.9964 29.3407 48.9893 29.5678C48.8512 33.9529 47.3901 37.9971 45 41.2985C44.7022 41.7098 44.39 42.1096 44.0642 42.4971C43.1456 43.5893 42.1185 44.5837 41 45.4629V39.9378C43.0917 37.4535 44.4947 34.3328 44.8876 30.8759H12.1124Z" fill="url(#paint1_linear_593_16822)"/>
<path d="M20 47.9227C21.2692 48.5136 22.6079 48.9762 24 49.2943V34.8599H20V47.9227Z" fill="url(#paint2_linear_593_16822)"/>
<path d="M33 49.2943C34.3921 48.9762 35.7308 48.5136 37 47.9227V34.8599H33V49.2943Z" fill="url(#paint3_linear_593_16822)"/>
<path fill-rule="evenodd" clip-rule="evenodd" d="M46.1897 52.2898C53.5603 45.8158 57 38.2375 57 28.9659C57 12.9685 44.2401 0 28.5 0C12.7599 0 0 12.9685 0 28.9659C0 44.3864 11.8562 56.9925 26.8093 57.8816V57.8973C27.7624 58.0201 28.4999 58.86 28.4999 59.8778V61.9943C28.4999 62.7664 29.346 63.2471 30.021 62.8675C31.0038 62.3147 31.9541 61.8033 32.8947 61.2972C36.906 59.1386 40.743 57.0739 46.1897 52.2898ZM53.1356 28.9659C53.1356 42.6978 42.1652 53.9399 28.5 53.9399C14.8348 53.9399 3.86441 42.6978 3.86441 28.9659C3.86441 15.2339 14.8348 3.99185 28.5 3.99185C42.1652 3.99185 53.1356 15.2339 53.1356 28.9659Z" fill="url(#paint4_linear_593_16822)"/>
<path d="M86.1456 7.15374V28.9719H82.1612L72.669 15.2397H72.5092V28.9719H67.8963V7.15374H71.9446L81.3622 20.8753H81.554V7.15374H86.1456ZM95.529 29.2915C93.8458 29.2915 92.3969 28.9506 91.1824 28.2688C89.975 27.5799 89.0446 26.6069 88.3912 25.3498C87.7378 24.0856 87.4111 22.5905 87.4111 20.8647C87.4111 19.1814 87.7378 17.7042 88.3912 16.4329C89.0446 15.1616 89.9644 14.1708 91.1505 13.4606C92.3436 12.7503 93.7428 12.3952 95.3479 12.3952C96.4275 12.3952 97.4324 12.5692 98.3628 12.9172C99.3003 13.2581 100.117 13.7731 100.813 14.462C101.516 15.1509 102.063 16.0174 102.454 17.0614C102.844 18.0983 103.04 19.3128 103.04 20.7049V21.9513H89.2222V19.1388H98.7677C98.7677 18.4854 98.6256 17.9066 98.3415 17.4023C98.0574 16.8981 97.6632 16.5039 97.159 16.2198C96.6618 15.9286 96.083 15.783 95.4225 15.783C94.7336 15.783 94.1228 15.9428 93.5901 16.2624C93.0645 16.5749 92.6526 16.9975 92.3543 17.5302C92.056 18.0557 91.9033 18.6417 91.8962 19.288V21.962C91.8962 22.7716 92.0453 23.4712 92.3436 24.0607C92.649 24.6502 93.0787 25.1047 93.6327 25.4243C94.1867 25.7439 94.8436 25.9037 95.6036 25.9037C96.1078 25.9037 96.5695 25.8327 96.9885 25.6907C97.4076 25.5486 97.7662 25.3356 98.0645 25.0515C98.3628 24.7674 98.5901 24.4194 98.7463 24.0074L102.944 24.2844C102.731 25.2929 102.294 26.1736 101.633 26.9265C100.98 27.6722 100.135 28.2546 99.0979 28.6736C98.0681 29.0856 96.8784 29.2915 95.529 29.2915ZM107.312 28.9719L102.859 12.6083H107.451L109.986 23.6026H110.135L112.777 12.6083H117.284L119.968 23.5387H120.107L122.6 12.6083H127.181L122.738 28.9719H117.934L115.121 18.6807H114.919L112.106 28.9719H107.312ZM141.417 17.2745L137.262 17.5302C137.191 17.175 137.038 16.8554 136.804 16.5714C136.569 16.2802 136.261 16.0493 135.877 15.8789C135.501 15.7013 135.05 15.6125 134.524 15.6125C133.821 15.6125 133.228 15.7617 132.745 16.06C132.262 16.3512 132.02 16.7418 132.02 17.2319C132.02 17.6225 132.177 17.9527 132.489 18.2226C132.802 18.4925 133.338 18.7091 134.098 18.8725L137.06 19.4691C138.65 19.7958 139.837 20.3214 140.618 21.0458C141.399 21.7702 141.79 22.7219 141.79 23.9009C141.79 24.9733 141.474 25.9144 140.841 26.7241C140.216 27.5337 139.357 28.1658 138.263 28.6204C137.177 29.0678 135.923 29.2915 134.503 29.2915C132.337 29.2915 130.611 28.8405 129.325 27.9385C128.047 27.0295 127.297 25.7937 127.077 24.2312L131.541 23.9968C131.676 24.6573 132.003 25.1616 132.521 25.5096C133.04 25.8505 133.704 26.0209 134.513 26.0209C135.309 26.0209 135.948 25.8682 136.431 25.5628C136.921 25.2503 137.17 24.8491 137.177 24.359C137.17 23.9471 136.996 23.6097 136.655 23.3469C136.314 23.077 135.788 22.8711 135.078 22.729L132.244 22.1644C130.646 21.8448 129.457 21.2908 128.675 20.5025C127.901 19.7141 127.514 18.7091 127.514 17.4875C127.514 16.4364 127.798 15.5309 128.366 14.7709C128.942 14.011 129.748 13.425 130.785 13.0131C131.829 12.6012 133.05 12.3952 134.449 12.3952C136.516 12.3952 138.143 12.832 139.329 13.7056C140.522 14.5792 141.218 15.7688 141.417 17.2745ZM147.386 7.15374V28.9719H142.847V7.15374H147.386ZM156.679 29.2915C154.995 29.2915 153.547 28.9506 152.332 28.2688C151.125 27.5799 150.194 26.6069 149.541 25.3498C148.887 24.0856 148.561 22.5905 148.561 20.8647C148.561 19.1814 148.887 17.7042 149.541 16.4329C150.194 15.1616 151.114 14.1708 152.3 13.4606C153.493 12.7503 154.892 12.3952 156.498 12.3952C157.577 12.3952 158.582 12.5692 159.512 12.9172C160.45 13.2581 161.267 13.7731 161.963 14.462C162.666 15.1509 163.213 16.0174 163.603 17.0614C163.994 18.0983 164.189 19.3128 164.189 20.7049V21.9513H150.372V19.1388H159.917C159.917 18.4854 159.775 17.9066 159.491 17.4023C159.207 16.8981 158.813 16.5039 158.309 16.2198C157.811 15.9286 157.233 15.783 156.572 15.783C155.883 15.783 155.272 15.9428 154.74 16.2624C154.214 16.5749 153.802 16.9975 153.504 17.5302C153.206 18.0557 153.053 18.6417 153.046 19.288V21.962C153.046 22.7716 153.195 23.4712 153.493 24.0607C153.799 24.6502 154.228 25.1047 154.782 25.4243C155.336 25.7439 155.993 25.9037 156.753 25.9037C157.257 25.9037 157.719 25.8327 158.138 25.6907C158.557 25.5486 158.916 25.3356 159.214 25.0515C159.512 24.7674 159.74 24.4194 159.896 24.0074L164.093 24.2844C163.88 25.2929 163.444 26.1736 162.783 26.9265C162.13 27.6722 161.284 28.2546 160.248 28.6736C159.218 29.0856 158.028 29.2915 156.679 29.2915ZM174.055 12.6083V16.0174H164.2V12.6083H174.055ZM166.438 8.68783H170.976V23.9435C170.976 24.3625 171.04 24.6893 171.168 24.9236C171.296 25.1509 171.473 25.3107 171.7 25.403C171.935 25.4954 172.205 25.5415 172.51 25.5415C172.723 25.5415 172.936 25.5238 173.149 25.4883C173.362 25.4456 173.526 25.4137 173.639 25.3924L174.353 28.7695C174.126 28.8405 173.806 28.9222 173.394 29.0145C172.982 29.114 172.482 29.1743 171.892 29.1956C170.798 29.2383 169.84 29.0927 169.016 28.7589C168.199 28.425 167.563 27.9066 167.109 27.2035C166.654 26.5003 166.43 25.6125 166.438 24.5401V8.68783ZM183.915 12.6083V16.0174H174.061V12.6083H183.915ZM176.298 8.68783H180.836V23.9435C180.836 24.3625 180.9 24.6893 181.028 24.9236C181.156 25.1509 181.333 25.3107 181.561 25.403C181.795 25.4954 182.065 25.5415 182.37 25.5415C182.583 25.5415 182.796 25.5238 183.009 25.4883C183.222 25.4456 183.386 25.4137 183.499 25.3924L184.213 28.7695C183.986 28.8405 183.666 28.9222 183.254 29.0145C182.842 29.114 182.342 29.1743 181.752 29.1956C180.659 29.2383 179.7 29.0927 178.876 28.7589C178.059 28.425 177.423 27.9066 176.969 27.2035C176.514 26.5003 176.291 25.6125 176.298 24.5401V8.68783ZM192.353 29.2915C190.67 29.2915 189.221 28.9506 188.006 28.2688C186.799 27.5799 185.868 26.6069 185.215 25.3498C184.562 24.0856 184.235 22.5905 184.235 20.8647C184.235 19.1814 184.562 17.7042 185.215 16.4329C185.868 15.1616 186.788 14.1708 187.974 13.4606C189.167 12.7503 190.567 12.3952 192.172 12.3952C193.251 12.3952 194.256 12.5692 195.187 12.9172C196.124 13.2581 196.941 13.7731 197.637 14.462C198.34 15.1509 198.887 16.0174 199.278 17.0614C199.668 18.0983 199.863 19.3128 199.863 20.7049V21.9513H186.046V19.1388H195.591C195.591 18.4854 195.449 17.9066 195.165 17.4023C194.881 16.8981 194.487 16.5039 193.983 16.2198C193.486 15.9286 192.907 15.783 192.246 15.783C191.557 15.783 190.947 15.9428 190.414 16.2624C189.888 16.5749 189.476 16.9975 189.178 17.5302C188.88 18.0557 188.727 18.6417 188.72 19.288V21.962C188.72 22.7716 188.869 23.4712 189.167 24.0607C189.473 24.6502 189.903 25.1047 190.457 25.4243C191.011 25.7439 191.667 25.9037 192.427 25.9037C192.932 25.9037 193.393 25.8327 193.812 25.6907C194.231 25.5486 194.59 25.3356 194.888 25.0515C195.187 24.7674 195.414 24.4194 195.57 24.0074L199.768 24.2844C199.555 25.2929 199.118 26.1736 198.457 26.9265C197.804 27.6722 196.959 28.2546 195.922 28.6736C194.892 29.0856 193.702 29.2915 192.353 29.2915ZM201.025 28.9719V12.6083H205.425V15.4634H205.595C205.894 14.4478 206.394 13.6807 207.098 13.1623C207.801 12.6367 208.61 12.3739 209.527 12.3739C209.754 12.3739 209.999 12.3881 210.262 12.4165C210.524 12.4449 210.755 12.484 210.954 12.5337V16.5607C210.741 16.4968 210.446 16.44 210.07 16.3902C209.693 16.3405 209.349 16.3157 209.037 16.3157C208.369 16.3157 207.772 16.4613 207.247 16.7525C206.728 17.0366 206.316 17.4343 206.011 17.9456C205.713 18.457 205.563 19.0465 205.563 19.7141V28.9719H201.025Z" fill="#253646"/>
<path d="M67.8963 55.8638V34.0456H72.5092V43.0477H81.8736V34.0456H86.4759V55.8638H81.8736V46.851H72.5092V55.8638H67.8963ZM98.8875 48.8964V39.5001H103.426V55.8638H99.0686V52.8915H98.8982C98.5288 53.8503 97.9145 54.6209 97.0551 55.2033C96.2028 55.7856 95.1624 56.0768 93.9337 56.0768C92.8399 56.0768 91.8776 55.8283 91.0466 55.3311C90.2156 54.8339 89.5658 54.1273 89.097 53.2111C88.6354 52.2949 88.401 51.1976 88.3939 49.9192V39.5001H92.9322V49.1095C92.9393 50.0754 93.1986 50.8389 93.7099 51.4C94.2213 51.9611 94.9067 52.2416 95.7661 52.2416C96.3129 52.2416 96.8243 52.1173 97.3001 51.8687C97.776 51.6131 98.1595 51.2366 98.4507 50.7395C98.749 50.2423 98.8946 49.628 98.8875 48.8964ZM105.341 55.8638V34.0456H109.88V42.2487H110.018C110.217 41.8084 110.505 41.3609 110.881 40.9064C111.265 40.4447 111.762 40.0612 112.372 39.7558C112.99 39.4433 113.757 39.2871 114.674 39.2871C115.867 39.2871 116.968 39.5996 117.976 40.2246C118.985 40.8425 119.791 41.7764 120.394 43.0264C120.998 44.2693 121.3 45.8283 121.3 47.7033C121.3 49.5285 121.005 51.0697 120.416 52.3268C119.833 53.5768 119.038 54.525 118.029 55.1713C117.028 55.8105 115.906 56.1301 114.663 56.1301C113.782 56.1301 113.033 55.9845 112.415 55.6933C111.804 55.4021 111.304 55.0364 110.913 54.596C110.522 54.1486 110.224 53.6976 110.018 53.243H109.816V55.8638H105.341ZM109.784 47.682C109.784 48.655 109.919 49.5037 110.189 50.2281C110.458 50.9525 110.849 51.5172 111.36 51.922C111.872 52.3197 112.493 52.5186 113.225 52.5186C113.963 52.5186 114.588 52.3162 115.1 51.9114C115.611 51.4994 115.998 50.9312 116.261 50.2068C116.531 49.4753 116.666 48.6337 116.666 47.682C116.666 46.7373 116.534 45.9064 116.272 45.1891C116.009 44.4717 115.622 43.9106 115.11 43.5058C114.599 43.101 113.97 42.8986 113.225 42.8986C112.486 42.8986 111.861 43.0939 111.35 43.4845C110.845 43.8751 110.458 44.4291 110.189 45.1464C109.919 45.8638 109.784 46.7089 109.784 47.682Z" fill="#253646"/>
<defs>
<linearGradient id="paint0_linear_593_16822" x1="28.5" y1="0" x2="28.5" y2="63" gradientUnits="userSpaceOnUse">
<stop stop-color="#0193CC"/>
<stop offset="1" stop-color="#1E3C8A"/>
</linearGradient>
<linearGradient id="paint1_linear_593_16822" x1="28.5" y1="0" x2="28.5" y2="63" gradientUnits="userSpaceOnUse">
<stop stop-color="#0193CC"/>
<stop offset="1" stop-color="#1E3C8A"/>
</linearGradient>
<linearGradient id="paint2_linear_593_16822" x1="28.5" y1="0" x2="28.5" y2="63" gradientUnits="userSpaceOnUse">
<stop stop-color="#0193CC"/>
<stop offset="1" stop-color="#1E3C8A"/>
</linearGradient>
<linearGradient id="paint3_linear_593_16822" x1="28.5" y1="0" x2="28.5" y2="63" gradientUnits="userSpaceOnUse">
<stop stop-color="#0193CC"/>
<stop offset="1" stop-color="#1E3C8A"/>
</linearGradient>
<linearGradient id="paint4_linear_593_16822" x1="28.5" y1="0" x2="28.5" y2="63" gradientUnits="userSpaceOnUse">
<stop stop-color="#0193CC"/>
<stop offset="1" stop-color="#1E3C8A"/>
</linearGradient>
</defs>
</svg>
