 <svg
      width="586"
      height="534"
      viewBox="0 0 586 534"
      fill="none"
      xmlns="http://www.w3.org/2000/svg"
    >
      <g clip-path="url(#clip0_1571_32508)">
        <path
          d="M568.512 533.998C573.053 533.999 577.412 532.211 580.644 529.021C583.877 525.832 585.723 521.497 585.784 516.956C586.503 469.955 590.288 400.62 501.773 381.435C430.136 365.926 472.602 238.6 279.684 246.836C141.199 252.738 177.927 369.467 70.3082 379.196C-1.3425 385.668 -1.96661 476.292 0.787622 517.811C1.07684 522.188 3.01933 526.292 6.2214 529.29C9.42348 532.288 13.6456 533.957 18.0321 533.958L568.512 533.998Z"
          fill="#F3FBFE"
        />
        <path
          opacity="0.55"
          d="M501.773 381.478C430.136 365.969 472.603 238.643 279.684 246.879C246.742 248.235 223.732 255.956 206.324 266.973C212.185 266.2 218.413 265.617 225.048 265.386C417.979 257.15 375.499 384.463 447.136 399.985C534.715 418.981 531.948 487.027 531.174 534.001H568.512C573.053 534.001 577.412 532.213 580.644 529.023C583.877 525.834 585.723 521.5 585.784 516.959C586.503 469.998 590.288 400.663 501.773 381.478Z"
          fill="#F3FBFE"
        />
        <path d="M198.047 0H195.008V222.251H198.047V0Z" fill="#95E1FF" />
        <path d="M416.445 0H413.406V256.389H416.445V0Z" fill="#95E1FF" />
        <path
          d="M416.161 241.52L189.663 215.007C187.361 214.737 185.028 214.923 182.797 215.555C180.567 216.186 178.483 217.252 176.665 218.69C174.847 220.127 173.33 221.91 172.2 223.934C171.071 225.959 170.352 228.186 170.085 230.489L153.179 375.346C152.911 377.647 153.098 379.979 153.731 382.207C154.364 384.436 155.429 386.519 156.867 388.336C158.304 390.153 160.086 391.668 162.109 392.797C164.133 393.925 166.359 394.644 168.66 394.911L395.24 421.356C397.541 421.625 399.873 421.437 402.101 420.805C404.33 420.172 406.412 419.106 408.229 417.669C410.046 416.231 411.562 414.449 412.69 412.426C413.818 410.402 414.537 408.176 414.804 405.875L431.71 261.018C432.232 256.37 430.887 251.706 427.972 248.05C425.056 244.393 420.808 242.045 416.161 241.52Z"
          fill="#E3F7FE"
        />
        <path
          d="M430.041 275.36L431.71 261.018C432.232 256.37 430.888 251.706 427.972 248.05C425.056 244.393 420.808 242.045 416.161 241.52L189.663 215.007C187.361 214.737 185.028 214.923 182.797 215.555C180.567 216.186 178.483 217.252 176.665 218.69C174.847 220.127 173.33 221.91 172.201 223.934C171.071 225.959 170.353 228.186 170.085 230.489L168.416 244.831L430.041 275.36Z"
          fill="#01AAED"
        />
        <path
          d="M205.063 332.538L233.772 281.941C234.672 280.356 236.02 279.071 237.646 278.248C239.273 277.425 241.106 277.1 242.916 277.314C245.359 277.6 247.588 278.843 249.115 280.772C250.641 282.7 251.34 285.156 251.057 287.599L245.074 338.779H245.331C246.177 338.878 246.994 339.144 247.736 339.561C248.477 339.979 249.129 340.54 249.651 341.212C250.174 341.884 250.558 342.653 250.781 343.474C251.003 344.296 251.06 345.154 250.948 345.997C250.748 347.691 249.884 349.236 248.546 350.294C247.209 351.352 245.506 351.837 243.812 351.642H243.568L242.469 360.963C242.366 361.87 242.085 362.747 241.642 363.544C241.2 364.341 240.604 365.043 239.889 365.609C239.174 366.175 238.354 366.595 237.477 366.843C236.599 367.091 235.681 367.163 234.776 367.056C233.87 366.951 232.994 366.669 232.198 366.226C231.402 365.783 230.701 365.187 230.135 364.472C229.569 363.758 229.15 362.939 228.901 362.062C228.652 361.185 228.578 360.268 228.684 359.362L229.769 350.041L209.106 347.626C208.266 347.528 207.455 347.266 206.717 346.854C205.979 346.443 205.329 345.89 204.805 345.227C204.281 344.564 203.892 343.804 203.662 342.991C203.431 342.178 203.363 341.328 203.462 340.489L204.004 335.794C204.12 334.645 204.481 333.535 205.063 332.538ZM231.384 336.323L235.088 304.587C235.096 304.562 235.099 304.537 235.097 304.512C235.095 304.486 235.089 304.462 235.077 304.439C235.066 304.416 235.05 304.396 235.031 304.38C235.012 304.363 234.99 304.35 234.966 304.342C234.942 304.334 234.916 304.331 234.891 304.333C234.866 304.335 234.841 304.341 234.818 304.353C234.796 304.364 234.775 304.38 234.759 304.399C234.742 304.418 234.73 304.44 234.722 304.464L217.748 334.396C217.681 334.518 217.644 334.655 217.642 334.794C217.639 334.934 217.67 335.072 217.733 335.196C217.796 335.321 217.889 335.428 218.002 335.508C218.116 335.589 218.248 335.64 218.386 335.658L230.448 337.015C230.662 337.039 230.878 336.982 231.052 336.853C231.225 336.725 231.344 336.535 231.384 336.323Z"
          fill="#95E1FF"
        />
        <path
          d="M331.77 347.352L360.493 296.756C361.392 295.173 362.737 293.89 364.361 293.067C365.985 292.244 367.815 291.918 369.624 292.129C370.834 292.269 372.005 292.646 373.069 293.238C374.133 293.831 375.07 294.628 375.826 295.583C376.583 296.538 377.143 297.633 377.475 298.806C377.808 299.978 377.906 301.204 377.764 302.414L371.794 353.594H372.052C372.891 353.69 373.702 353.951 374.439 354.361C375.176 354.771 375.825 355.323 376.348 355.985C376.871 356.647 377.259 357.406 377.488 358.218C377.717 359.03 377.783 359.88 377.683 360.717C377.587 361.556 377.326 362.368 376.916 363.106C376.506 363.844 375.954 364.493 375.292 365.018C374.631 365.542 373.872 365.931 373.06 366.161C372.248 366.392 371.398 366.46 370.56 366.362H370.302L369.217 375.683C369.002 377.51 368.072 379.176 366.629 380.316C365.186 381.456 363.35 381.976 361.524 381.762C360.618 381.659 359.741 381.379 358.943 380.936C358.146 380.493 357.444 379.897 356.878 379.182C356.312 378.467 355.893 377.647 355.645 376.77C355.396 375.892 355.324 374.974 355.432 374.069L356.517 364.747L335.84 362.278C335.001 362.18 334.189 361.918 333.451 361.506C332.713 361.095 332.063 360.542 331.539 359.879C331.015 359.216 330.627 358.457 330.396 357.644C330.166 356.831 330.098 355.98 330.196 355.141L330.752 350.446C330.883 349.358 331.229 348.306 331.77 347.352ZM358.132 351.111L361.836 319.374C361.841 319.328 361.83 319.28 361.805 319.241C361.779 319.202 361.741 319.172 361.696 319.158C361.651 319.143 361.603 319.145 361.559 319.162C361.515 319.179 361.479 319.211 361.456 319.252L344.496 349.184C344.429 349.306 344.392 349.443 344.389 349.582C344.387 349.722 344.418 349.859 344.481 349.984C344.544 350.108 344.636 350.216 344.75 350.296C344.864 350.377 344.996 350.428 345.134 350.446L357.196 351.803C357.41 351.827 357.626 351.769 357.8 351.641C357.973 351.513 358.092 351.323 358.132 351.111Z"
          fill="#95E1FF"
        />
        <path
          d="M274.815 302.768C276.484 288.48 284.963 281.18 298.748 282.795C312.533 284.41 319.1 293.446 317.458 307.747L312.031 354.219C310.362 368.521 301.869 375.807 288.084 374.206C274.299 372.605 267.732 363.541 269.388 349.24L274.815 302.768ZM283.322 351.777C282.575 358.168 285.113 360.909 289.576 361.438C294.04 361.967 297.134 359.864 297.88 353.473L303.51 305.292C304.257 298.901 301.733 296.146 297.269 295.631C292.805 295.115 289.698 297.205 288.966 303.582L283.322 351.777Z"
          fill="#95E1FF"
        />
        <path
          d="M195.118 235.022C195.012 235.956 194.631 236.837 194.024 237.555C193.417 238.273 192.61 238.794 191.707 239.053C190.803 239.311 189.843 239.296 188.948 239.009C188.053 238.722 187.263 238.175 186.679 237.439C186.095 236.702 185.742 235.809 185.666 234.872C185.59 233.935 185.793 232.996 186.251 232.175C186.709 231.354 187.4 230.687 188.237 230.259C189.074 229.831 190.019 229.661 190.952 229.771C192.2 229.917 193.339 230.552 194.119 231.536C194.9 232.52 195.259 233.773 195.118 235.022Z"
          fill="white"
        />
        <path
          d="M217.829 237.679C217.718 238.609 217.335 239.485 216.726 240.196C216.118 240.907 215.312 241.423 214.411 241.676C213.51 241.93 212.554 241.911 211.664 241.622C210.774 241.332 209.989 240.786 209.41 240.051C208.83 239.316 208.481 238.425 208.407 237.492C208.333 236.559 208.538 235.625 208.994 234.808C209.451 233.991 210.14 233.327 210.973 232.901C211.807 232.475 212.748 232.306 213.678 232.415C214.296 232.487 214.894 232.681 215.438 232.985C215.982 233.289 216.46 233.697 216.846 234.186C217.231 234.675 217.517 235.235 217.686 235.835C217.854 236.434 217.903 237.061 217.829 237.679Z"
          fill="#95E1FF"
        />
        <path
          d="M241.45 240.42C241.342 241.35 240.96 242.228 240.353 242.941C239.746 243.655 238.941 244.172 238.04 244.428C237.139 244.683 236.182 244.666 235.291 244.378C234.399 244.09 233.613 243.544 233.033 242.809C232.452 242.074 232.102 241.184 232.027 240.25C231.952 239.316 232.156 238.381 232.613 237.563C233.069 236.746 233.758 236.082 234.592 235.655C235.426 235.229 236.368 235.06 237.298 235.169C238.545 235.315 239.683 235.95 240.461 236.935C241.24 237.92 241.595 239.173 241.45 240.42Z"
          fill="#FFBF4D"
        />
        <path
          d="M150.264 405.412C148.385 414.428 147.529 423.627 147.713 432.834C148.174 445.249 146.695 526.877 146.695 526.877H156.668C156.668 526.877 170.859 462.956 171.388 457.909C171.918 452.861 179.041 402.387 179.041 402.387L150.264 405.412Z"
          fill="#23459F"
        />
        <path
          d="M156.898 401.695C156.898 401.695 159.191 419.131 163.099 431.546C167.006 443.961 186.164 526.905 186.164 526.905H196.136C196.136 526.905 194.304 462.984 193.612 457.937C192.921 452.889 187.873 402.401 187.873 402.401L156.898 401.695Z"
          fill="#3D5DB2"
        />
        <path
          d="M186.977 526.879V533.84H205.971C206.205 533.84 206.434 533.765 206.622 533.626C206.81 533.486 206.948 533.29 207.015 533.065C207.082 532.841 207.075 532.601 206.994 532.381C206.914 532.161 206.764 531.973 206.568 531.845C203.855 530 199.35 527.449 195.226 526.879H186.977Z"
          fill="#01AAED"
        />
        <path
          d="M147.211 526.879V533.84H166.206C166.431 533.834 166.649 533.758 166.83 533.623C167.01 533.488 167.144 533.3 167.213 533.085C167.282 532.87 167.282 532.639 167.213 532.424C167.144 532.209 167.01 532.021 166.83 531.886C164.048 530.04 159.612 527.489 155.474 526.92L147.211 526.879Z"
          fill="#01AAED"
        />
        <path
          d="M181.442 320.571C181.442 320.571 187.982 310.652 180.479 309.716C174.726 308.97 172.338 310.679 172.338 310.679C172.338 310.679 165.704 309.96 162.081 313.094C159.598 315.252 150.481 331.955 165.229 337.993C179.977 344.031 176.829 328.495 176.829 328.495L181.442 320.571Z"
          fill="#23459F"
        />
        <path
          d="M180.479 309.689C174.726 308.942 172.338 310.652 172.338 310.652C172.338 310.652 165.704 309.933 162.081 313.067C159.598 315.224 150.481 331.927 165.229 337.965C172.162 340.815 175.133 338.901 176.341 336.066C162.352 340.014 160.833 323.148 163.139 318.345C165.446 313.542 171.117 315.727 171.117 315.727C173.315 310.177 180.479 310.788 183.436 311.208C183.078 310.761 182.63 310.394 182.12 310.133C181.61 309.871 181.051 309.719 180.479 309.689Z"
          fill="#253646"
        />
        <path
          d="M172.257 325.399C172.257 325.399 170.33 323.459 168.878 325.399C167.427 327.339 168.39 331.681 170.805 331.925C170.805 331.925 170.086 338.208 165.256 337.963V343.052H176.612V339.212C176.612 339.212 183.626 336.322 183.396 330.514C183.279 327.131 182.624 323.787 181.456 320.609C179.014 323.193 175.774 324.881 172.257 325.399Z"
          fill="#F98D3D"
        />
        <path
          d="M173.993 340.8C175.119 341.275 174.93 341.98 174.984 343.052H176.612V339.212C176.612 339.212 173.898 340.094 169.828 337.855C171.069 339.03 172.472 340.022 173.993 340.8Z"
          fill="#ED701B"
        />
        <path
          d="M176.327 316.147C176.327 316.147 170.439 313.799 169.747 315.563C169.299 316.716 170.439 317.707 172.012 318.711L170.656 318.928C170.584 318.938 170.518 318.968 170.463 319.016C170.409 319.063 170.371 319.126 170.352 319.195C170.333 319.265 170.335 319.338 170.358 319.407C170.38 319.475 170.423 319.535 170.479 319.579C171.639 320.071 172.9 320.276 174.156 320.176L176.327 316.147Z"
          fill="#F98D3D"
        />
        <path
          d="M218.385 330.894C207.151 322.577 176.475 315.969 176.475 315.969L173.951 320.582C173.951 320.582 201.792 331.437 199.96 332.984C198.875 333.933 185.267 340.161 180.667 342.264C179.669 342.711 178.586 342.933 177.492 342.916L163.396 342.834C159.957 342.668 156.526 343.302 153.374 344.686C150.221 346.071 147.433 348.168 145.229 350.813C138.078 359.049 125.908 378.112 125.908 378.112L146.395 408.234L148.661 411.559V411.843L150.683 412.047C157.263 412.658 178.361 414.326 189.54 411.952L189.839 411.884L189.31 362.468C200.1 354.047 209.956 344.495 218.711 333.974C218.909 333.758 219.06 333.503 219.152 333.225C219.244 332.947 219.275 332.652 219.244 332.36C219.214 332.069 219.121 331.787 218.973 331.535C218.825 331.282 218.624 331.063 218.385 330.894ZM149.652 398.289L147.657 393.92L141.294 380.012L151.85 368.18L149.95 394.137L149.652 398.289Z"
          fill="#F75553"
        />
        <path
          d="M147.645 393.922L149.653 398.291L148.676 411.466L148.662 411.507L146.396 408.182L147.645 393.922Z"
          fill="#F75553"
        />
        <g mix-blend-mode="multiply" opacity="0.29">
          <path
            d="M184.548 360.598C182.648 361.954 183.191 374.166 182.662 381.832C181.875 394.627 181.115 405.699 181.685 412.85C184.324 412.705 186.949 412.374 189.541 411.859L189.839 411.791L189.31 362.375C200.1 353.954 209.956 344.402 218.711 333.881C218.9 333.667 219.043 333.415 219.13 333.142C219.216 332.869 219.245 332.581 219.215 332.297C219.184 332.012 219.094 331.737 218.952 331.489C218.809 331.241 218.616 331.025 218.385 330.855C208.019 341.763 196.695 351.717 184.548 360.598Z"
            fill="#F98D2B"
          />
        </g>
        <path
          d="M193.612 457.922C193.11 454.272 190.355 426.972 188.849 412.047L181.686 412.847C181.686 412.847 192.133 498.776 192.825 526.89H196.135C196.135 526.89 194.303 462.969 193.612 457.922Z"
          fill="#23459F"
        />
        <path
          d="M147.672 326.811L145.514 322.93C147.252 319.659 147.687 315.851 146.733 312.271C145.778 308.692 143.505 305.606 140.37 303.634C137.234 301.662 133.468 300.95 129.829 301.64C126.19 302.33 122.946 304.371 120.75 307.354C118.554 310.337 117.568 314.041 117.99 317.721C118.412 321.402 120.211 324.786 123.025 327.194C125.839 329.603 129.461 330.857 133.162 330.706C136.863 330.554 140.369 329.007 142.977 326.376L147.672 326.811Z"
          fill="#01AAED"
        />
        <path
          d="M124.973 314.789H125.542V316.824C125.542 317.448 125.732 317.72 126.167 317.72C126.601 317.72 126.75 317.543 127.076 317.15V314.789H127.632V318.127H127.171V317.598C127.05 317.781 126.887 317.932 126.696 318.038C126.505 318.144 126.29 318.203 126.072 318.208C125.366 318.208 125.04 317.747 125.04 316.851L124.973 314.789Z"
          fill="white"
        />
        <path
          d="M130.005 318.384V319.51H129.449V314.788H129.911V315.168C130.203 314.894 130.582 314.73 130.982 314.707C131.837 314.707 132.339 315.372 132.339 316.403C132.339 317.434 131.661 318.208 130.887 318.208C130.545 318.182 130.221 318.043 129.965 317.814L130.005 318.384ZM130.82 317.719C131.376 317.719 131.783 317.217 131.783 316.362C131.783 315.508 131.525 315.141 130.901 315.141C130.556 315.171 130.236 315.331 130.005 315.589V317.339C130.226 317.555 130.513 317.689 130.82 317.719Z"
          fill="white"
        />
        <path
          d="M133.846 317.355C134.118 317.6 134.469 317.74 134.836 317.748C135.27 317.748 135.487 317.518 135.487 317.233C135.487 316.948 135.094 316.744 134.727 316.595C134.361 316.446 133.737 316.201 133.737 315.645C133.737 315.089 134.158 314.695 134.877 314.695C135.259 314.695 135.629 314.83 135.921 315.075L135.65 315.428C135.439 315.243 135.171 315.138 134.89 315.13C134.47 315.13 134.28 315.36 134.28 315.618C134.28 315.876 134.646 316.039 135.012 316.188C135.379 316.337 136.03 316.568 136.03 317.192C136.03 317.816 135.596 318.196 134.809 318.196C134.357 318.187 133.922 318.024 133.574 317.735L133.846 317.355Z"
          fill="white"
        />
        <path
          d="M137.794 317.329C137.881 317.324 137.967 317.344 138.042 317.389C138.117 317.433 138.177 317.499 138.214 317.577C138.251 317.656 138.264 317.744 138.25 317.83C138.236 317.916 138.197 317.996 138.138 318.059C138.078 318.123 138.001 318.167 137.916 318.186C137.831 318.205 137.743 318.198 137.662 318.166C137.581 318.134 137.511 318.079 137.462 318.007C137.413 317.935 137.387 317.85 137.387 317.763C137.385 317.708 137.394 317.653 137.414 317.601C137.433 317.549 137.463 317.502 137.5 317.462C137.538 317.421 137.584 317.389 137.634 317.366C137.684 317.343 137.739 317.331 137.794 317.329Z"
          fill="white"
        />
        <path
          d="M140.196 317.328C140.283 317.326 140.368 317.349 140.441 317.395C140.514 317.441 140.572 317.508 140.607 317.587C140.642 317.666 140.652 317.754 140.637 317.839C140.622 317.924 140.582 318.002 140.522 318.064C140.461 318.127 140.384 318.169 140.3 318.187C140.215 318.205 140.127 318.197 140.047 318.165C139.967 318.132 139.898 318.077 139.85 318.005C139.801 317.933 139.776 317.849 139.776 317.763C139.774 317.706 139.783 317.65 139.804 317.597C139.824 317.545 139.855 317.497 139.894 317.456C139.933 317.416 139.98 317.384 140.032 317.362C140.084 317.34 140.14 317.328 140.196 317.328Z"
          fill="white"
        />
        <path
          d="M91.5964 502.696C91.5964 502.696 88.5165 499.833 90.5788 488.951C92.6411 478.07 97.8782 467.608 95.3003 455.79C92.7225 443.972 72.6152 414.203 72.5474 412.222C72.4796 410.241 66.3334 446.862 76.7398 461.326C87.1462 475.79 88.408 480.77 87.9467 488.354C87.4854 495.939 88.0552 502.059 89.1949 503.822L91.5964 502.696Z"
          fill="#95E1FF"
        />
        <path
          d="M89.6828 480.811C88.4753 485.669 87.7426 497.84 89.6828 500.757C89.8592 501.028 90.117 500.879 90.4426 500.363C89.8456 498.355 89.4657 494.827 90.5783 488.952C92.6406 478.097 97.8777 467.609 95.2998 455.791C92.722 443.973 72.6147 414.204 72.5469 412.223C72.5469 412.223 75.586 437.026 85.7889 454.108C93.1018 466.334 90.8496 475.954 89.6828 480.811Z"
          fill="#BCECFF"
        />
        <path
          d="M95.2591 501.95C95.2591 501.95 89.3436 487.187 99.3294 474.406C109.315 461.624 125.366 445.206 125.691 438.707C125.691 438.707 129.762 469.575 116.764 478.313C103.766 487.051 94.6215 488.463 96.8737 501.895L95.2591 501.95Z"
          fill="#95E1FF"
        />
        <path
          d="M109.342 472.181C94.7978 482.764 93.6039 494.962 95.8561 500.607C95.932 500.816 96.0584 501.004 96.224 501.153C96.3897 501.302 96.5895 501.408 96.8058 501.462C94.8521 488.49 103.929 487.011 116.805 478.395C129.68 469.779 125.732 438.789 125.732 438.789C125.732 438.789 123.873 461.516 109.342 472.181Z"
          fill="#BCECFF"
        />
        <path
          d="M85.531 502.275C86.6898 496.93 86.9921 491.434 86.4264 485.993C85.4224 477.608 76.6035 472.832 68.3679 463.917C64.1212 459.331 62.873 435.084 65.4916 432.832C65.4916 432.832 50.9606 450.471 53.1993 463.361C55.4379 476.251 79.1678 484.65 81.3521 490.878C82.6596 494.565 83.3384 498.445 83.3602 502.357L85.531 502.275Z"
          fill="#95E1FF"
        />
        <path
          d="M60.5795 439.764C55.7765 452.776 60.7016 468.543 76.6707 478.339C88.4203 485.544 84.6756 500.537 84.6756 500.537L86.6022 494.621C86.8034 491.754 86.7444 488.875 86.4258 486.019C85.4218 477.607 76.6029 472.83 68.3673 463.916C64.297 459.493 62.9403 436.779 65.2332 433.156C63.5713 435.279 62.0181 437.484 60.5795 439.764Z"
          fill="#BCECFF"
        />
        <path
          d="M65.2324 433.158L65.4902 432.832C65.3914 432.93 65.3048 433.039 65.2324 433.158Z"
          fill="#BCECFF"
        />
        <path
          d="M98.2988 501.297C98.2988 501.297 101.704 488.652 110.143 486.955C118.582 485.259 128.256 472.79 128.772 470.348C128.84 470.348 127.347 493.889 98.2988 501.297Z"
          fill="#95E1FF"
        />
        <path
          d="M109.654 491.174C104.499 493.752 102.341 497.225 101.514 500.387C127.374 492.069 128.649 470.387 128.649 470.387C128.328 471.276 127.871 472.109 127.292 472.856C124.918 477.266 118.785 486.574 109.654 491.174Z"
          fill="#BCECFF"
        />
        <path
          d="M116.546 496.605H72.4512L77.6883 529.577C77.8792 530.788 78.4969 531.892 79.4299 532.688C80.3628 533.484 81.5497 533.921 82.7761 533.919H106.221C107.448 533.921 108.634 533.484 109.567 532.688C110.5 531.892 111.118 530.788 111.309 529.577L116.546 496.605Z"
          fill="#FFBF4D"
        />
        <path
          d="M115.678 502.099L116.532 496.645H72.4512L73.3195 502.099H115.678Z"
          fill="#FF9F50"
        />
        <path
          d="M105.854 496.605L100.631 529.536C100.437 530.747 99.8189 531.848 98.8865 532.644C97.9541 533.44 96.7687 533.877 95.543 533.878H106.221C107.447 533.88 108.634 533.444 109.567 532.647C110.5 531.851 111.118 530.748 111.309 529.536L116.546 496.605H105.854Z"
          fill="#FF9F50"
        />
        <path
          d="M420.625 437.922H221.371V478.437H420.625V437.922Z"
          fill="#FFBF4D"
        />
        <g mix-blend-mode="multiply" opacity="0.29">
          <path
            d="M420.625 437.922H221.371V447.759H420.625V437.922Z"
            fill="#F98D2B"
          />
        </g>
        <path
          d="M238.697 437.922H256.877L252.007 447.759H233.812L238.697 437.922Z"
          fill="#F77E2D"
        />
        <path
          d="M279.672 437.922H297.852L292.981 447.759H274.801L279.672 437.922Z"
          fill="#F77E2D"
        />
        <path
          d="M320.646 437.922H338.827L333.956 447.759H315.775L320.646 437.922Z"
          fill="#F77E2D"
        />
        <path
          d="M361.621 437.922H379.788L374.917 447.759H356.736L361.621 437.922Z"
          fill="#F77E2D"
        />
        <path
          d="M420.625 437.922V438.193L415.876 447.759H397.709L402.593 437.922H420.625Z"
          fill="#F77E2D"
        />
        <path
          d="M260.214 478.438H246.172V533.838H260.214V478.438Z"
          fill="#95E1FF"
        />
        <path
          d="M260.216 478.438H257.027V533.838H260.216V478.438Z"
          fill="#BCECFF"
        />
        <path
          d="M396.91 478.438H382.867V533.838H396.91V478.438Z"
          fill="#95E1FF"
        />
        <path
          d="M396.91 478.438H392.758V533.838H396.91V478.438Z"
          fill="#BCECFF"
        />
        <path
          d="M260.214 478.395H246.172V485.369H260.214V478.395Z"
          fill="#BCECFF"
        />
        <path
          d="M396.91 478.395H382.867V485.369H396.91V478.395Z"
          fill="#BCECFF"
        />
        <path
          d="M260.214 431.586H246.172V437.882H260.214V431.586Z"
          fill="#95E1FF"
        />
        <path
          d="M260.216 431.586H257.027V437.882H260.216V431.586Z"
          fill="#BCECFF"
        />
        <path
          d="M396.91 431.586H382.867V437.882H396.91V431.586Z"
          fill="#95E1FF"
        />
        <path
          d="M396.91 431.586H392.758V437.882H396.91V431.586Z"
          fill="#BCECFF"
        />
        <path
          d="M260.214 437.094H246.172V437.881H260.214V437.094Z"
          fill="#BCECFF"
        />
        <path
          d="M396.91 437.094H382.867V437.881H396.91V437.094Z"
          fill="#BCECFF"
        />
        <path
          d="M256.878 437.922L236.784 478.437H221.371V472.847L238.697 437.922H256.878Z"
          fill="#01AAED"
        />
        <path
          d="M279.672 437.922L259.578 478.437H277.759L297.852 437.922H279.672Z"
          fill="#01AAED"
        />
        <path
          d="M338.827 437.922L318.733 478.437H300.553L320.646 437.922H338.827Z"
          fill="#01AAED"
        />
        <path
          d="M379.786 437.922L359.706 478.437H341.525L361.619 437.922H379.786Z"
          fill="#01AAED"
        />
        <path
          d="M402.594 437.922L382.5 478.437H400.667L420.625 438.193L402.594 437.922Z"
          fill="#01AAED"
        />
        <path
          d="M256.877 437.922L252.007 447.759H233.812L238.697 437.922H256.877Z"
          fill="#23459F"
        />
        <path
          d="M297.852 437.922L292.981 447.759H274.801L279.672 437.922H297.852Z"
          fill="#23459F"
        />
        <path
          d="M338.827 437.922L333.956 447.759H315.775L320.646 437.922H338.827Z"
          fill="#23459F"
        />
        <path
          d="M379.786 437.922L374.915 447.759H356.734L361.619 437.922H379.786Z"
          fill="#23459F"
        />
        <path
          d="M420.625 438.193L415.876 447.759H397.709L402.593 437.922L420.625 438.193Z"
          fill="#23459F"
        />
        <path
          mix-blend-mode="overlay"
          opacity="0.55"
          d="M417.193 455.453H226.92V475.724H417.193V455.453Z"
          fill="url(#paint0_linear_1571_32508)"
        />
        <path
          d="M254.81 435.18C261.636 434.07 266.27 427.635 265.159 420.808C264.049 413.981 257.615 409.347 250.788 410.458C243.962 411.568 239.328 418.003 240.439 424.83C241.549 431.657 247.983 436.291 254.81 435.18Z"
          fill="#FFBF4D"
        />
        <path
          d="M258.507 422.791C258.504 421.67 258.169 420.575 257.544 419.644C256.919 418.713 256.033 417.988 254.996 417.561C253.96 417.133 252.82 417.023 251.721 417.243C250.621 417.464 249.612 418.005 248.82 418.799C248.029 419.593 247.49 420.603 247.272 421.703C247.054 422.803 247.167 423.942 247.597 424.978C248.027 426.014 248.754 426.899 249.686 427.521C250.618 428.144 251.714 428.476 252.835 428.476C253.581 428.476 254.32 428.329 255.009 428.043C255.698 427.757 256.324 427.338 256.85 426.81C257.377 426.282 257.795 425.655 258.079 424.965C258.363 424.276 258.508 423.537 258.507 422.791Z"
          fill="#01AAED"
        />
        <path
          d="M391.788 435.192C398.615 434.081 403.248 427.647 402.138 420.82C401.027 413.993 394.593 409.359 387.767 410.47C380.94 411.58 376.307 418.015 377.417 424.842C378.528 431.669 384.962 436.302 391.788 435.192Z"
          fill="#FFBF4D"
        />
        <path
          d="M395.485 422.791C395.482 421.67 395.148 420.575 394.523 419.644C393.898 418.713 393.011 417.988 391.975 417.561C390.938 417.133 389.798 417.023 388.699 417.243C387.6 417.464 386.591 418.005 385.799 418.799C385.007 419.593 384.468 420.603 384.251 421.703C384.033 422.803 384.146 423.942 384.576 424.978C385.005 426.014 385.732 426.899 386.664 427.521C387.597 428.144 388.693 428.476 389.814 428.476C390.56 428.476 391.298 428.329 391.987 428.043C392.676 427.757 393.302 427.338 393.829 426.81C394.356 426.282 394.773 425.655 395.057 424.965C395.342 424.276 395.487 423.537 395.485 422.791Z"
          fill="#01AAED"
        />
        <path
          d="M496.13 529.533H432.66L442.375 506.005L446.268 496.508L447.354 493.916L449.104 489.669L449.457 488.814L453.364 479.316L454.083 477.593L461.003 460.795C461.278 460.121 461.747 459.545 462.352 459.139C462.956 458.732 463.667 458.516 464.395 458.516C465.123 458.516 465.834 458.732 466.438 459.139C467.042 459.545 467.512 460.121 467.787 460.795L474.706 477.593L475.425 479.316L479.319 488.814L479.686 489.669L481.436 493.916L482.508 496.508L486.415 506.005L496.13 529.533Z"
          fill="#FFBF4D"
        />
        <g mix-blend-mode="multiply" opacity="0.29">
          <path
            d="M436.825 519.453L432.66 529.534H496.13L491.964 519.453H436.825Z"
            fill="#F98D2B"
          />
        </g>
        <path
          d="M500.268 523.512H427.586V533.783H500.268V523.512Z"
          fill="#95E1FF"
        />
        <path
          d="M500.268 523.512H484.57V533.783H500.268V523.512Z"
          fill="#BCECFF"
        />
        <g mix-blend-mode="multiply" opacity="0.29">
          <path
            d="M493.633 523.51H484.652L477.434 506.021L473.54 496.523L472.454 493.917L470.745 489.671L470.392 488.802L466.484 479.304L465.725 477.608L459.891 463.443L460.976 460.729C461.251 460.055 461.72 459.478 462.325 459.072C462.929 458.666 463.64 458.449 464.368 458.449C465.096 458.449 465.807 458.666 466.411 459.072C467.015 459.478 467.485 460.055 467.76 460.729L474.679 477.527L475.398 479.25L479.292 488.748L479.659 489.616L481.409 493.85L482.481 496.455L486.388 505.953L493.633 523.51Z"
            fill="#F98D2B"
          />
        </g>
        <path
          d="M479.319 488.803H449.457L453.365 479.305H475.412L479.319 488.803Z"
          fill="#01AAED"
        />
        <path
          d="M486.415 505.994V506.008H442.361V505.994L446.269 496.496H482.508L486.415 505.994Z"
          fill="#01AAED"
        />
        <path
          d="M479.319 488.803H470.351L466.443 479.305H475.412L479.319 488.803Z"
          fill="#23459F"
        />
        <path
          d="M486.415 505.994V506.008H477.433V505.994L473.525 496.496H482.507L486.415 505.994Z"
          fill="#23459F"
        />
        <path
          d="M91.61 298.793C93.9105 298.817 96.1413 298.004 97.8881 296.507C99.6349 295.01 100.779 292.929 101.107 290.652C101.228 289.798 101.287 288.936 101.284 288.074C101.284 283.036 99.2825 278.204 95.7203 274.642C92.1581 271.079 87.3267 269.078 82.289 269.078C81.8684 269.078 81.4342 269.078 81.0136 269.078C80.5496 263.927 78.12 259.152 74.2292 255.745C70.3384 252.338 65.2852 250.56 60.1183 250.78C54.9514 251 50.0675 253.201 46.4803 256.927C42.8931 260.652 40.8781 265.616 40.8534 270.788C40.8534 271.276 40.8534 271.765 40.8534 272.253C37.9002 270.61 34.5807 269.737 31.2012 269.715C27.8217 269.693 24.4912 270.523 21.5169 272.128C18.5427 273.733 16.0206 276.061 14.1833 278.898C12.346 281.734 11.2529 284.988 11.0046 288.359C11.0046 288.44 11.0046 288.522 11.0046 288.603C10.9383 289.906 11.1381 291.209 11.5919 292.433C12.0457 293.656 12.7439 294.774 13.6441 295.719C14.5442 296.663 15.6274 297.415 16.8274 297.927C18.0275 298.439 19.3193 298.702 20.6241 298.698L91.61 298.793Z"
          fill="#E3F7FE"
        />
        <path
          d="M543.589 313.664C558.513 313.664 559.395 291.126 544.444 290.394H543.209C540.611 290.39 538.028 290.798 535.557 291.601C534.552 285.526 531.398 280.013 526.671 276.067C521.944 272.121 515.957 270.004 509.8 270.101C503.643 270.198 497.725 272.503 493.125 276.596C488.524 280.689 485.546 286.298 484.733 292.402C479.694 290.009 473.977 289.457 468.573 290.841C455.481 294.206 458.235 313.691 471.748 313.691L543.589 313.664Z"
          fill="#E3F7FE"
        />
        <path
          d="M363.749 202.605C378.674 202.605 379.542 180.081 364.59 179.348H363.356C360.759 179.347 358.177 179.75 355.704 180.542C354.707 174.461 351.557 168.94 346.828 164.988C342.1 161.036 336.108 158.916 329.947 159.015C323.785 159.114 317.865 161.425 313.265 165.526C308.666 169.628 305.694 175.246 304.893 181.357C301.706 179.823 298.213 179.03 294.676 179.036C292.676 179.034 290.684 179.285 288.747 179.783C275.654 183.161 278.409 202.632 291.922 202.632L363.749 202.605Z"
          fill="#E3F7FE"
        />
        <path
          d="M125.367 244.246C145.186 244.246 161.253 228.178 161.253 208.357C161.253 188.537 145.186 172.469 125.367 172.469C105.547 172.469 89.4805 188.537 89.4805 208.357C89.4805 228.178 105.547 244.246 125.367 244.246Z"
          fill="#FFBF4D"
        />
        <path
          d="M125.665 172.469C132.122 176.708 137.041 182.917 139.689 190.174C142.337 197.431 142.574 205.348 140.365 212.75C138.155 220.153 133.618 226.645 127.425 231.263C121.233 235.881 113.716 238.378 105.992 238.384H105.693C110.358 241.442 115.672 243.371 121.212 244.017C126.752 244.663 132.367 244.008 137.61 242.105C142.853 240.202 147.581 237.103 151.417 233.054C155.253 229.005 158.093 224.117 159.711 218.779C161.329 213.44 161.68 207.798 160.737 202.301C159.794 196.803 157.582 191.601 154.277 187.107C150.973 182.613 146.666 178.952 141.699 176.413C136.733 173.874 131.243 172.529 125.665 172.482V172.469Z"
          fill="#FF9F50"
        />
      </g>
      <defs>
        <linearGradient
          id="paint0_linear_1571_32508"
          x1="322.056"
          y1="490.283"
          x2="322.056"
          y2="457.651"
          gradientUnits="userSpaceOnUse"
        >
          <stop stop-color="white" />
          <stop offset="0.12" stop-color="white" stop-opacity="0.82" />
          <stop offset="0.3" stop-color="white" stop-opacity="0.58" />
          <stop offset="0.47" stop-color="white" stop-opacity="0.37" />
          <stop offset="0.64" stop-color="white" stop-opacity="0.21" />
          <stop offset="0.78" stop-color="white" stop-opacity="0.1" />
          <stop offset="0.91" stop-color="white" stop-opacity="0.02" />
          <stop offset="1" stop-color="white" stop-opacity="0" />
        </linearGradient>
        <clipPath id="clip0_1571_32508">
          <rect width="586" height="534" fill="white" />
        </clipPath>
      </defs>
    </svg>