<svg width="80" height="16" viewBox="0 0 80 16" fill="none" xmlns="http://www.w3.org/2000/svg">
<path d="M7.26485 2.29248L5.73439 5.39561L2.31017 5.89483C1.6961 5.98389 1.45001 6.74092 1.89532 7.17452L4.37267 9.58858L3.78673 12.9987C3.68126 13.6151 4.33048 14.0769 4.87423 13.7886L7.93751 12.1784L11.0008 13.7886C11.5445 14.0745 12.1938 13.6151 12.0883 12.9987L11.5024 9.58858L13.9797 7.17452C14.425 6.74092 14.1789 5.98389 13.5649 5.89483L10.1406 5.39561L8.61017 2.29248C8.33595 1.73936 7.54142 1.73233 7.26485 2.29248Z" fill="#F7B500"/>
<path d="M23.1399 2.29248L21.6094 5.39561L18.1852 5.89483C17.5711 5.98389 17.325 6.74092 17.7703 7.17452L20.2477 9.58858L19.6617 12.9987C19.5563 13.6151 20.2055 14.0769 20.7492 13.7886L23.8125 12.1784L26.8758 13.7886C27.4195 14.0745 28.0688 13.6151 27.9633 12.9987L27.3774 9.58858L29.8547 7.17452C30.3 6.74092 30.0539 5.98389 29.4399 5.89483L26.0156 5.39561L24.4852 2.29248C24.2109 1.73936 23.4164 1.73233 23.1399 2.29248Z" fill="#F7B500"/>
<path d="M39.0149 2.29248L37.4844 5.39561L34.0602 5.89483C33.4461 5.98389 33.2 6.74092 33.6453 7.17452L36.1227 9.58858L35.5367 12.9987C35.4313 13.6151 36.0805 14.0769 36.6242 13.7886L39.6875 12.1784L42.7508 13.7886C43.2945 14.0745 43.9438 13.6151 43.8383 12.9987L43.2524 9.58858L45.7297 7.17452C46.175 6.74092 45.9289 5.98389 45.3149 5.89483L41.8906 5.39561L40.3602 2.29248C40.0859 1.73936 39.2914 1.73233 39.0149 2.29248Z" fill="#F7B500"/>
<path d="M54.8899 2.29248L53.3594 5.39561L49.9352 5.89483C49.3211 5.98389 49.075 6.74092 49.5203 7.17452L51.9977 9.58858L51.4117 12.9987C51.3063 13.6151 51.9555 14.0769 52.4992 13.7886L55.5625 12.1784L58.6258 13.7886C59.1695 14.0745 59.8188 13.6151 59.7133 12.9987L59.1274 9.58858L61.6047 7.17452C62.05 6.74092 61.8039 5.98389 61.1899 5.89483L57.7656 5.39561L56.2352 2.29248C55.9609 1.73936 55.1664 1.73233 54.8899 2.29248Z" fill="#F7B500"/>
<path d="M70.7649 2.29248L69.2344 5.39561L65.8102 5.89483C65.1961 5.98389 64.95 6.74092 65.3953 7.17452L67.8727 9.58858L67.2867 12.9987C67.1813 13.6151 67.8305 14.0769 68.3742 13.7886L71.4375 12.1784L74.5008 13.7886C75.0445 14.0745 75.6938 13.6151 75.5883 12.9987L75.0024 9.58858L77.4797 7.17452C77.925 6.74092 77.6789 5.98389 77.0649 5.89483L73.6406 5.39561L72.1102 2.29248C71.8359 1.73936 71.0414 1.73233 70.7649 2.29248Z" fill="#F7B500"/>
</svg>
