<svg width="34" height="35" viewBox="0 0 34 35" fill="none" xmlns="http://www.w3.org/2000/svg">
<g clipPath="url(#clip0_1_30010)">
<path d="M7.54102 20.878L6.36703 25.2607L2.07613 25.3514C0.793777 22.973 0.0664062 20.2517 0.0664062 17.3599C0.0664062 14.5635 0.74648 11.9265 1.95196 9.60449H1.95288L5.77299 10.3049L7.44643 14.102C7.09618 15.1231 6.90528 16.2193 6.90528 17.3599C6.90541 18.5977 7.12964 19.7838 7.54102 20.878Z" fill="#FBBB00"/>
<path d="M33.4989 14.209C33.6926 15.2291 33.7935 16.2826 33.7935 17.3593C33.7935 18.5666 33.6666 19.7443 33.4248 20.8803C32.6039 24.7459 30.4589 28.1214 27.4874 30.5101L27.4865 30.5091L22.6748 30.2636L21.9938 26.0125C23.9656 24.8562 25.5065 23.0466 26.3181 20.8803H17.3008V14.209H26.4497H33.4989Z" fill="#518EF8"/>
<path d="M27.4863 30.5096L27.4872 30.5105C24.5973 32.8334 20.9262 34.2232 16.9299 34.2232C10.5079 34.2232 4.92446 30.6337 2.07617 25.3514L7.54106 20.8779C8.96517 24.6787 12.6316 27.3843 16.9299 27.3843C18.7775 27.3843 20.5084 26.8848 21.9936 26.0129L27.4863 30.5096Z" fill="#01AAED"/>
<path d="M27.694 4.37839L22.231 8.8509C20.6938 7.89008 18.8768 7.33503 16.9301 7.33503C12.5345 7.33503 8.79945 10.1647 7.44668 14.1018L1.95307 9.60423H1.95215C4.75874 4.19309 10.4126 0.496094 16.9301 0.496094C21.0218 0.496094 24.7735 1.9536 27.694 4.37839Z" fill="#F14336"/>
</g>
<defs>
<clipPath id="clip0_1_30010">
<rect width="33.727" height="33.727" fill="white" transform="translate(0.0664062 0.496094)"/>
</clipPath>
</defs>
</svg>
