<?xml version="1.0" standalone="no"?>
<!DOCTYPE svg PUBLIC "-//W3C//DTD SVG 20010904//EN"
 "http://www.w3.org/TR/2001/REC-SVG-20010904/DTD/svg10.dtd">
<svg version="1.0" xmlns="http://www.w3.org/2000/svg"
 width="672.000000pt" height="672.000000pt" viewBox="0 0 672.000000 672.000000"
 preserveAspectRatio="xMidYMid meet">
<metadata>
Created by potrace 1.14, written by Peter Selinger 2001-2017
</metadata>
<g transform="translate(0.000000,672.000000) scale(0.100000,-0.100000)"
fill="#000000" stroke="none">
<path d="M3149 6716 c-2 -2 -42 -7 -89 -11 -46 -3 -87 -8 -90 -10 -3 -1 -28
-5 -56 -9 -59 -7 -261 -50 -314 -67 -19 -6 -44 -12 -55 -14 -28 -5 -227 -76
-305 -110 -78 -33 -232 -111 -315 -160 -33 -19 -75 -42 -92 -52 -18 -9 -33
-20 -33 -25 0 -4 -4 -8 -10 -8 -9 0 -61 -33 -90 -57 -8 -7 -65 -51 -126 -98
-151 -116 -334 -295 -464 -454 -19 -23 -40 -48 -45 -54 -6 -7 -41 -55 -77
-107 -37 -52 -71 -99 -75 -105 -21 -26 -126 -210 -171 -300 -49 -98 -59 -120
-102 -220 -19 -43 -86 -230 -94 -260 -1 -5 -9 -30 -16 -55 -7 -25 -14 -49 -16
-55 -1 -5 -7 -30 -14 -55 -7 -25 -14 -53 -16 -63 -2 -10 -5 -26 -8 -35 -3 -9
-8 -33 -11 -52 -3 -19 -8 -46 -10 -60 -10 -50 -14 -69 -21 -117 -3 -26 -8 -57
-10 -68 -18 -92 -26 -592 -11 -700 3 -27 9 -77 13 -110 5 -49 41 -254 59 -340
24 -111 101 -346 162 -495 28 -67 163 -341 172 -350 3 -3 15 -21 25 -40 11
-19 45 -73 75 -119 31 -46 61 -91 66 -99 25 -39 153 -199 205 -256 45 -51 204
-210 255 -257 59 -53 232 -187 295 -228 30 -20 57 -38 60 -41 33 -34 326 -187
470 -245 156 -64 361 -128 473 -149 15 -2 35 -7 45 -10 9 -3 35 -7 57 -11 37
-5 51 -7 130 -20 17 -2 62 -7 100 -10 39 -3 84 -8 100 -11 54 -10 113 -52 142
-101 26 -45 27 -52 29 -206 2 -175 7 -197 59 -222 48 -22 66 -19 137 21 34 20
88 50 118 66 30 17 127 71 215 121 88 49 180 101 205 115 25 14 56 32 70 41
43 27 64 40 95 57 38 22 316 205 331 219 6 5 22 18 35 27 368 267 729 592 941
850 113 137 207 267 274 378 21 36 41 67 44 70 11 11 115 216 149 295 12 28
26 59 31 70 35 76 122 334 136 404 3 14 7 28 9 31 2 4 7 20 9 36 3 16 8 40 11
54 21 91 48 260 60 375 22 209 22 576 0 735 -2 19 -7 55 -10 80 -3 25 -8 56
-10 70 -3 14 -7 39 -10 55 -13 80 -36 188 -56 265 -21 79 -74 251 -88 285 -5
11 -28 67 -52 125 -75 183 -200 416 -303 563 -23 32 -45 66 -51 75 -5 10 -12
19 -15 22 -3 3 -30 37 -60 75 -80 103 -101 127 -250 276 -112 112 -181 171
-355 307 -130 101 -423 262 -620 340 -101 40 -309 108 -355 116 -14 2 -52 11
-85 19 -33 8 -80 18 -105 22 -25 4 -54 9 -65 11 -11 2 -40 6 -65 9 -25 3 -58
8 -75 11 -34 6 -491 15 -496 10z m396 -431 c103 -9 185 -20 240 -31 17 -3 39
-7 50 -9 181 -31 396 -106 615 -215 89 -44 248 -136 260 -149 3 -3 32 -24 64
-46 58 -39 94 -66 186 -143 67 -56 219 -209 281 -282 29 -36 56 -67 59 -70 22
-22 139 -187 175 -246 87 -145 135 -234 184 -347 127 -292 201 -585 227 -902
12 -153 6 -429 -12 -548 -3 -20 -7 -47 -9 -60 -9 -66 -15 -105 -20 -127 -3
-14 -8 -38 -11 -55 -11 -62 -47 -194 -80 -295 -161 -484 -433 -883 -840 -1230
-16 -14 -65 -51 -109 -83 -44 -31 -84 -60 -90 -65 -5 -4 -26 -17 -45 -28 -19
-10 -37 -22 -40 -25 -12 -15 -183 -104 -295 -154 -113 -50 -325 -123 -410
-141 -195 -40 -247 -48 -375 -60 -70 -6 -326 -6 -400 0 -64 5 -152 15 -175 20
-11 2 -60 11 -110 20 -49 10 -103 21 -120 26 -16 5 -77 24 -135 42 -194 59
-409 159 -590 276 -88 56 -213 146 -240 172 -9 8 -32 28 -51 43 -100 81 -331
327 -384 409 -5 8 -42 62 -81 119 -38 57 -83 127 -99 154 -36 63 -145 282
-145 292 0 4 -7 21 -15 37 -19 35 -111 309 -119 351 -3 17 -10 50 -16 75 -13
48 -16 64 -24 124 -4 21 -8 41 -10 45 -2 3 -7 35 -11 71 -3 36 -8 79 -11 95
-3 27 -17 265 -16 290 8 202 15 285 28 380 4 28 8 55 9 60 10 102 111 474 155
570 5 11 19 43 30 70 40 92 126 259 175 340 46 76 162 244 175 255 3 3 13 16
22 29 21 30 126 146 187 208 258 258 541 446 866 575 120 48 346 115 415 124
14 1 34 5 45 7 69 16 143 25 275 33 52 4 96 7 97 8 4 3 206 -3 268 -9z"/>
<path d="M3178 5864 c-2 -1 -32 -5 -68 -8 -81 -8 -243 -40 -312 -62 -135 -42
-179 -58 -253 -90 l-80 -34 2 -653 c1 -358 2 -672 3 -697 l0 -45 202 1 c112 1
205 2 208 3 3 1 5 248 4 551 l-1 549 28 6 c16 4 30 6 31 5 2 -1 15 3 31 9 67
26 236 45 387 44 132 -2 208 -9 300 -29 36 -8 79 -17 95 -20 62 -12 58 27 59
-570 l1 -548 203 -1 c111 0 203 2 203 5 1 3 2 317 3 697 l1 693 -54 26 c-68
32 -297 108 -371 123 -30 6 -66 14 -80 16 -26 6 -49 9 -160 24 -56 8 -375 12
-382 5z"/>
<path d="M1999 5361 c-307 -264 -572 -678 -675 -1056 -27 -97 -34 -124 -38
-145 -2 -14 -11 -57 -20 -95 -8 -39 -18 -100 -21 -135 -3 -36 -8 -83 -10 -105
-6 -54 -6 -352 0 -390 3 -16 7 -52 10 -80 2 -27 7 -61 10 -75 3 -14 7 -43 10
-65 3 -22 8 -48 11 -57 2 -9 6 -25 8 -35 13 -64 61 -222 101 -328 32 -85 135
-299 147 -303 4 -2 8 -8 8 -14 0 -13 90 -152 101 -156 5 -2 9 -9 9 -16 0 -12
9 -23 111 -145 104 -123 275 -288 287 -276 4 3 7 133 7 288 0 273 0 282 -22
312 -88 123 -152 227 -202 330 -52 107 -104 239 -114 291 -2 11 -7 26 -10 34
-7 17 -27 101 -34 145 -2 17 -7 41 -9 55 -3 14 -6 39 -7 55 l-2 30 1690 0
1690 0 1 -24 c1 -20 -27 -179 -41 -231 -12 -46 -46 -157 -52 -170 -3 -8 -7
-17 -8 -20 -16 -47 -60 -145 -98 -220 -34 -66 -121 -206 -137 -220 -34 -31
-60 -84 -60 -122 0 -24 0 -72 0 -108 1 -36 1 -69 1 -75 -3 -228 -2 -285 3
-293 3 -6 2 -13 -3 -16 -5 -3 -7 -15 -4 -26 8 -30 33 -12 168 124 124 124 256
290 316 397 19 33 39 66 45 72 10 12 124 243 124 253 0 3 6 20 14 37 37 82
106 318 121 417 2 14 7 41 10 60 39 227 39 551 0 760 -4 19 -8 46 -10 60 -2
14 -9 45 -15 70 -6 25 -13 58 -16 74 -9 45 -72 233 -106 311 -57 132 -124 259
-189 359 -22 32 -39 62 -39 66 0 4 -7 10 -15 14 -8 3 -15 12 -15 20 0 8 -3 16
-7 18 -5 2 -35 37 -67 78 -62 78 -264 283 -297 301 -22 11 -21 20 -19 -136 1
-109 0 -139 -3 -202 -1 -18 0 -33 3 -33 3 0 4 -21 2 -47 -8 -145 -7 -150 40
-211 47 -60 149 -226 185 -302 38 -80 72 -160 68 -160 -2 0 4 -19 14 -42 16
-39 55 -178 66 -238 3 -14 7 -36 10 -50 3 -14 7 -46 9 -72 l5 -47 -1694 0
-1693 0 3 27 c27 206 87 406 176 587 59 119 98 186 122 212 9 11 17 23 17 26
0 4 19 31 42 61 l42 55 1 291 c0 159 -2 290 -5 290 -3 0 -26 -18 -51 -39z"/>
<path d="M2487 3002 c-12 -2 -17 -14 -17 -35 -1 -43 -1 -1248 0 -1312 0 -47 2
-51 33 -63 17 -7 46 -19 62 -27 83 -38 314 -109 316 -97 4 45 0 1524 -4 1529
-7 6 -360 11 -390 5z"/>
<path d="M3844 3000 l-29 -5 -2 -755 c-1 -415 0 -761 2 -767 3 -9 11 -10 30
-3 14 5 36 12 48 14 37 7 206 67 271 96 l61 27 0 698 0 697 -176 2 c-96 0
-188 -1 -205 -4z"/>
</g>
</svg>
